<?xml version="1.0" encoding="utf-8"?>
<!-- Generator: Adobe Illustrator 23.0.1, SVG Export Plug-In . SVG Version: 6.00 Build 0)  -->
<svg version="1.1" id="Camada_1" xmlns="http://www.w3.org/2000/svg" xmlns:xlink="http://www.w3.org/1999/xlink" x="0px" y="0px"
	 viewBox="0 0 400 400" style="enable-background:new 0 0 400 400;" xml:space="preserve">
<style type="text/css">
	.st0{fill:#CD350C;}
	.st1{fill:#FFFFFF;}
	.st2{fill:#D7D7D7;}
	.st3{fill:#6E2108;}
	.st4{fill:#3E1605;}
	.st5{enable-background:new    ;}
	.st6{fill:#E1781C;}
	.st7{fill:#E4BB31;}
	.st8{fill:#5A969B;}
	.st9{fill:#9AD6D8;}
	.st10{fill:#E2AF0E;}
	.st11{fill:url(#XMLID_18_);}
	.st12{fill:#F2C724;}
	.st13{fill:#E0AD0B;}
	.st14{opacity:0.5;fill:url(#XMLID_19_);}
	.st15{fill:url(#XMLID_20_);}
	.st16{opacity:0.5;fill:url(#XMLID_21_);}
	.st17{fill:url(#XMLID_22_);}
	.st18{opacity:0.5;fill:url(#XMLID_23_);}
	.st19{fill:url(#XMLID_24_);}
</style>
<g id="XMLID_656_">
	<g id="XMLID_2853_">
		<g id="XMLID_345_">
			<path id="XMLID_648_" class="st10" d="M30.31,267.4c28.66-32.46,92.91-55.09,167.63-55.09c74.72,0,138.98,22.63,167.63,55.09
				h15.97v37.93c0,51.38-82.2,93.03-183.6,93.03s-183.6-41.65-183.6-93.03V267.4H30.31z"/>
			
				<linearGradient id="XMLID_18_" gradientUnits="userSpaceOnUse" x1="253.861" y1="305.3321" x2="574.0958" y2="305.3321" gradientTransform="matrix(-1 0 0 1 488.0053 0)">
				<stop  offset="0" style="stop-color:#FFFFFF;stop-opacity:0"/>
				<stop  offset="1" style="stop-color:#E2AF0E"/>
			</linearGradient>
			<path id="XMLID_360_" class="st11" d="M30.31,267.4c28.66-32.46,92.91-55.09,167.63-55.09c74.72,0,138.98,22.63,167.63,55.09
				h15.97v37.93c0,51.38-82.2,93.03-183.6,93.03s-183.6-41.65-183.6-93.03V267.4H30.31z"/>
			<ellipse id="XMLID_584_" class="st12" cx="197.95" cy="267.4" rx="183.6" ry="93.03"/>
			<ellipse id="XMLID_359_" class="st13" cx="197.95" cy="262.88" rx="142.06" ry="63.23"/>
			<path id="XMLID_347_" class="st12" d="M212.67,261.12c-8.66-12.39-9.11-17.16-2.04-21.24c5.94-3.43,17.05-5.02,28.84,1.79
				c10.21,5.89,13.01,11.83,14.35,14.68l0.57,1.21l18.26-4.75l-0.42-0.88c-2.67-5.56-7.48-10.55-14.71-15.21l15.87-9.16l-12.89-7.44
				l-16.51,9.53c-17.77-6.94-37.96-6.32-51.79,1.67c-16.44,9.49-10.61,21.51-1.86,33.07c7.43,10.14,7.26,16.13-0.58,20.66
				c-8.63,4.99-22.1,4.17-32.75-1.98c-11.06-6.38-14.73-13.99-15.79-16.96l-0.48-1.33l-18.23,4.97l0.23,0.8
				c1.66,5.74,8.21,12.8,16.85,18.25l-16.34,9.43l12.89,7.44l17.15-9.9c18.3,7.28,40.06,6.61,54.57-1.77
				C222.05,285.79,223.48,275.96,212.67,261.12z"/>
		</g>
		
			<linearGradient id="XMLID_19_" gradientUnits="userSpaceOnUse" x1="4850.6582" y1="405.5357" x2="4999.6821" y2="177.0317" gradientTransform="matrix(-1 0 0 1 5146.6421 0)">
			<stop  offset="0.0608" style="stop-color:#FFFFFF;stop-opacity:0"/>
			<stop  offset="0.1203" style="stop-color:#DFE1E3;stop-opacity:0.1278"/>
			<stop  offset="0.2121" style="stop-color:#B3B8BD;stop-opacity:0.3251"/>
			<stop  offset="0.301" style="stop-color:#9198A0;stop-opacity:0.5164"/>
			<stop  offset="0.385" style="stop-color:#79818A;stop-opacity:0.697"/>
			<stop  offset="0.4622" style="stop-color:#6A737D;stop-opacity:0.8628"/>
			<stop  offset="0.526" style="stop-color:#656E79"/>
		</linearGradient>
		<path id="XMLID_19683_" class="st14" d="M22.95,254.8c0-51.38,82.2-93.03,183.6-93.03c21.73,0,42.57,1.93,61.92,5.44
			c59.89,15.32,100.98,46.75,100.98,83.07c0,51.38-82.2,93.03-183.6,93.03c-21.73,0-42.58-1.93-61.92-5.44
			C64.04,322.54,22.95,291.11,22.95,254.8z"/>
		<g id="XMLID_337_">
			<path id="XMLID_361_" class="st10" d="M40.66,202.31c28.66-32.46,92.91-55.09,167.63-55.09c74.72,0,138.98,22.63,167.63,55.09
				h15.97v37.93c0,51.38-82.2,93.03-183.6,93.03S24.7,291.62,24.7,240.24v-37.93H40.66z"/>
			
				<linearGradient id="XMLID_20_" gradientUnits="userSpaceOnUse" x1="145.8066" y1="240.2408" x2="513.8694" y2="240.2408" gradientTransform="matrix(-1 0 0 1 488.0053 0)">
				<stop  offset="0" style="stop-color:#FFFFFF;stop-opacity:0"/>
				<stop  offset="1" style="stop-color:#E2AF0E"/>
			</linearGradient>
			<path id="XMLID_357_" class="st15" d="M40.66,202.31c28.66-32.46,92.91-55.09,167.63-55.09c74.72,0,138.98,22.63,167.63,55.09
				h15.97v37.93c0,51.38-82.2,93.03-183.6,93.03S24.7,291.62,24.7,240.24v-37.93H40.66z"/>
			<ellipse id="XMLID_358_" class="st12" cx="208.3" cy="202.31" rx="183.6" ry="93.03"/>
			<ellipse id="XMLID_348_" class="st13" cx="208.3" cy="197.79" rx="142.06" ry="63.23"/>
			<path id="XMLID_338_" class="st12" d="M223.02,196.02c-8.66-12.39-9.11-17.16-2.04-21.24c5.94-3.43,17.05-5.02,28.84,1.79
				c10.21,5.89,13.01,11.82,14.35,14.67l0.57,1.21l18.26-4.75l-0.42-0.88c-2.67-5.56-7.48-10.55-14.71-15.21l15.87-9.16l-12.89-7.44
				l-16.51,9.53c-17.77-6.94-37.96-6.32-51.79,1.67c-16.44,9.49-10.61,21.51-1.86,33.08c7.43,10.14,7.26,16.13-0.58,20.66
				c-8.63,4.98-22.1,4.17-32.75-1.98c-11.06-6.38-14.73-13.99-15.79-16.96l-0.48-1.33l-18.23,4.97l0.23,0.8
				c1.66,5.74,8.21,12.8,16.85,18.25l-16.34,9.43l12.89,7.44l17.15-9.9c18.3,7.28,40.06,6.61,54.57-1.77
				C232.4,220.7,233.83,210.87,223.02,196.02z"/>
		</g>
		
			<linearGradient id="XMLID_21_" gradientUnits="userSpaceOnUse" x1="4848.9121" y1="353.0468" x2="4997.936" y2="124.5427" gradientTransform="matrix(-1 0 0 1 5146.6421 0)">
			<stop  offset="0.0608" style="stop-color:#FFFFFF;stop-opacity:0"/>
			<stop  offset="0.1203" style="stop-color:#DFE1E3;stop-opacity:0.1278"/>
			<stop  offset="0.2121" style="stop-color:#B3B8BD;stop-opacity:0.3251"/>
			<stop  offset="0.301" style="stop-color:#9198A0;stop-opacity:0.5164"/>
			<stop  offset="0.385" style="stop-color:#79818A;stop-opacity:0.697"/>
			<stop  offset="0.4622" style="stop-color:#6A737D;stop-opacity:0.8628"/>
			<stop  offset="0.526" style="stop-color:#656E79"/>
		</linearGradient>
		<path id="XMLID_15356_" class="st16" d="M24.7,202.31c0-51.38,82.2-93.03,183.6-93.03c21.73,0,42.57,1.93,61.92,5.44
			c59.89,15.32,100.98,46.75,100.98,83.07c0,51.38-82.2,93.03-183.6,93.03c-21.73,0-42.58-1.93-61.92-5.44
			C65.79,270.05,24.7,238.62,24.7,202.31z"/>
		<g id="XMLID_1391_">
			<path id="XMLID_1427_" class="st10" d="M19.97,152.43c28.66-32.46,92.91-55.09,167.63-55.09c74.72,0,138.98,22.63,167.63,55.09
				h15.97v37.93c0,51.38-82.2,93.03-183.6,93.03S4,241.75,4,190.37v-37.93H19.97z"/>
			
				<linearGradient id="XMLID_22_" gradientUnits="userSpaceOnUse" x1="222.1653" y1="190.3677" x2="558.7723" y2="190.3677" gradientTransform="matrix(-1 0 0 1 488.0053 0)">
				<stop  offset="0" style="stop-color:#FFFFFF;stop-opacity:0"/>
				<stop  offset="1" style="stop-color:#E2AF0E"/>
			</linearGradient>
			<path id="XMLID_350_" class="st17" d="M19.97,152.43c28.66-32.46,92.91-55.09,167.63-55.09c74.72,0,138.98,22.63,167.63,55.09
				h15.97v37.93c0,51.38-82.2,93.03-183.6,93.03S4,241.75,4,190.37v-37.93H19.97z"/>
			<ellipse id="XMLID_1423_" class="st12" cx="187.6" cy="152.43" rx="183.6" ry="93.03"/>
			<ellipse id="XMLID_1395_" class="st13" cx="187.6" cy="147.91" rx="142.06" ry="63.23"/>
			<path id="XMLID_1392_" class="st12" d="M202.32,146.15c-8.66-12.39-9.11-17.16-2.04-21.24c5.94-3.43,17.05-5.02,28.84,1.79
				c10.21,5.89,13.01,11.82,14.35,14.67l0.57,1.21l18.26-4.75l-0.42-0.88c-2.67-5.56-7.48-10.55-14.71-15.21l15.87-9.16l-12.89-7.44
				l-16.51,9.53c-17.77-6.94-37.96-6.32-51.79,1.67c-16.44,9.49-10.61,21.51-1.86,33.07c7.43,10.14,7.27,16.13-0.58,20.66
				c-8.63,4.99-22.1,4.17-32.75-1.98c-11.06-6.38-14.73-13.99-15.79-16.96l-0.48-1.33l-18.23,4.97l0.23,0.8
				c1.66,5.74,8.21,12.8,16.85,18.25l-16.34,9.43l12.89,7.44l17.15-9.9c18.3,7.28,40.06,6.61,54.57-1.77
				C211.7,170.83,213.14,160.99,202.32,146.15z"/>
		</g>
		
			<linearGradient id="XMLID_23_" gradientUnits="userSpaceOnUse" x1="202.0222" y1="289.1217" x2="347.6465" y2="65.8308" gradientTransform="matrix(-1 0 0 1 488.0053 0)">
			<stop  offset="0.0608" style="stop-color:#FFFFFF;stop-opacity:0"/>
			<stop  offset="0.1203" style="stop-color:#DFE1E3;stop-opacity:0.1278"/>
			<stop  offset="0.2121" style="stop-color:#B3B8BD;stop-opacity:0.3251"/>
			<stop  offset="0.301" style="stop-color:#9198A0;stop-opacity:0.5164"/>
			<stop  offset="0.385" style="stop-color:#79818A;stop-opacity:0.697"/>
			<stop  offset="0.4622" style="stop-color:#6A737D;stop-opacity:0.8628"/>
			<stop  offset="0.526" style="stop-color:#656E79"/>
		</linearGradient>
		<path id="XMLID_828_" class="st18" d="M22.5,111.71c29.81-30.97,92.53-52.31,165.1-52.31c76.74,0,142.45,23.86,169.89,57.74
			c2.14,5.68,3.37,11.53,3.37,17.53c0,51.38-82.2,93.03-183.6,93.03c-21.73,0-42.58-1.93-61.92-5.44
			c-59.89-15.32-100.98-46.75-100.98-83.07C14.35,129.63,17.21,120.4,22.5,111.71z"/>
		<g id="XMLID_2205_">
			<path id="XMLID_2201_" class="st10" d="M42.77,92.53c28.66-32.46,92.91-55.09,167.63-55.09c74.72,0,138.98,22.63,167.63,55.09
				H394v37.93c0,51.38-82.2,93.03-183.6,93.03S26.8,181.84,26.8,130.46V92.53H42.77z"/>
			
				<linearGradient id="XMLID_24_" gradientUnits="userSpaceOnUse" x1="156.6124" y1="130.4604" x2="554.4874" y2="130.4604" gradientTransform="matrix(-1 0 0 1 488.0053 0)">
				<stop  offset="0" style="stop-color:#FFFFFF;stop-opacity:0"/>
				<stop  offset="1" style="stop-color:#E2AF0E"/>
			</linearGradient>
			<path id="XMLID_578_" class="st19" d="M42.77,92.53c28.66-32.46,92.91-55.09,167.63-55.09c74.72,0,138.98,22.63,167.63,55.09H394
				v37.93c0,51.38-82.2,93.03-183.6,93.03S26.8,181.84,26.8,130.46V92.53H42.77z"/>
			<ellipse id="XMLID_2193_" class="st12" cx="210.4" cy="92.53" rx="183.6" ry="93.03"/>
			<ellipse id="XMLID_2200_" class="st13" cx="210.4" cy="88.01" rx="142.06" ry="63.23"/>
			<path id="XMLID_1365_" class="st12" d="M225.12,86.24c-8.66-12.39-9.11-17.16-2.04-21.24c5.94-3.43,17.05-5.02,28.84,1.79
				c10.21,5.89,13.01,11.83,14.35,14.67l0.57,1.21l18.26-4.75l-0.42-0.88c-2.67-5.56-7.48-10.55-14.71-15.21l15.87-9.16l-12.89-7.44
				l-16.51,9.53c-17.77-6.94-37.96-6.32-51.79,1.67c-16.44,9.49-10.61,21.51-1.86,33.07c7.43,10.14,7.27,16.13-0.58,20.66
				c-8.63,4.99-22.1,4.17-32.75-1.98c-11.06-6.38-14.73-13.99-15.79-16.96l-0.48-1.33l-18.23,4.97l0.23,0.8
				c1.65,5.74,8.21,12.8,16.85,18.25l-16.34,9.43l12.89,7.44l17.15-9.9c18.3,7.28,40.06,6.61,54.57-1.77
				C234.5,110.92,235.94,101.09,225.12,86.24z"/>
		</g>
	</g>
</g>
</svg>
