<?xml version="1.0" encoding="utf-8"?>
<!-- Generator: Adobe Illustrator 23.0.1, SVG Export Plug-In . SVG Version: 6.00 Build 0)  -->
<svg version="1.1" id="Camada_1" xmlns="http://www.w3.org/2000/svg" xmlns:xlink="http://www.w3.org/1999/xlink" x="0px" y="0px"
	 viewBox="0 0 400 400" style="enable-background:new 0 0 400 400;" xml:space="preserve">
<style type="text/css">
	.st0{fill:#CD350C;}
	.st1{fill:#FFFFFF;}
	.st2{fill:#D7D7D7;}
	.st3{fill:#6E2108;}
	.st4{fill:#3E1605;}
	.st5{enable-background:new    ;}
	.st6{fill:#E1781C;}
	.st7{fill:#E4BB31;}
	.st8{fill:#5A969B;}
	.st9{fill:#9AD6D8;}
	.st10{fill:#E2AF0E;}
	.st11{fill:url(#XMLID_18_);}
	.st12{fill:#F2C724;}
	.st13{fill:#E0AD0B;}
	.st14{opacity:0.5;fill:url(#XMLID_19_);}
	.st15{fill:url(#XMLID_20_);}
	.st16{opacity:0.5;fill:url(#XMLID_21_);}
	.st17{fill:url(#XMLID_22_);}
	.st18{opacity:0.5;fill:url(#XMLID_23_);}
	.st19{fill:url(#XMLID_24_);}
</style>
<g>
	
		<ellipse transform="matrix(0.8722 -0.4892 0.4892 0.8722 -81.8472 113.4618)" class="st0" cx="176.19" cy="213.35" rx="116.73" ry="201.53"/>
	
		<ellipse transform="matrix(0.8722 -0.4892 0.4892 0.8722 -81.847 113.4612)" class="st1" cx="176.19" cy="213.35" rx="92.67" ry="159.99"/>
	<path class="st2" d="M75.8,158.56c1.3-72.02,52.73-100.29,114.85-63.14c11.32,6.77,22.21,15.26,32.46,25.04
		c-13.59-15.1-28.64-27.99-44.55-37.5c-62.12-37.14-113.54-8.87-114.85,63.14c-1.07,58.89,31.72,128.78,77.67,172.62
		C101.88,274.83,74.82,212.14,75.8,158.56z"/>
	<path class="st3" d="M365.5,264.91c-0.01-0.41-0.03-0.82-0.04-1.23c-0.02-0.87-0.05-1.73-0.08-2.6c-0.03-1.03-0.05-2.05-0.1-3.08
		c-0.04-0.79-0.11-1.59-0.15-2.38c-0.05-0.92-0.11-1.83-0.18-2.75c-0.04-0.61-0.07-1.22-0.12-1.83c-0.11-1.32-0.25-2.65-0.38-3.98
		c-0.07-0.76-0.14-1.51-0.22-2.27c-0.03-0.26-0.04-0.51-0.07-0.77c-0.27-2.39-0.57-4.79-0.91-7.2c-0.01-0.05-0.02-0.11-0.03-0.17
		c-0.05-0.33-0.11-0.67-0.16-1.01c-0.3-2.02-0.61-4.04-0.95-6.07c-0.06-0.36-0.14-0.72-0.2-1.08c-0.17-0.96-0.36-1.92-0.54-2.88
		c-0.22-1.17-0.42-2.34-0.66-3.51c-0.13-0.65-0.29-1.31-0.43-1.96c-0.22-1.04-0.45-2.09-0.68-3.13c-0.18-0.81-0.34-1.61-0.52-2.42
		c-0.22-0.97-0.48-1.94-0.72-2.9c-0.26-1.05-0.51-2.11-0.78-3.17c-0.13-0.52-0.25-1.03-0.38-1.55c-0.36-1.38-0.76-2.76-1.14-4.14
		c-0.25-0.9-0.48-1.8-0.74-2.69c-0.07-0.25-0.13-0.5-0.21-0.75c-0.72-2.48-1.47-4.95-2.26-7.43c-0.01-0.03-0.02-0.06-0.03-0.1
		c-0.07-0.21-0.14-0.42-0.21-0.63c-0.71-2.2-1.43-4.4-2.19-6.6c-0.12-0.35-0.25-0.69-0.37-1.04c-0.29-0.83-0.59-1.65-0.89-2.48
		c-0.42-1.17-0.83-2.35-1.26-3.52c-0.28-0.75-0.58-1.49-0.86-2.24c-0.35-0.92-0.7-1.83-1.06-2.75c-0.26-0.66-0.5-1.33-0.77-1.99
		c-0.53-1.33-1.08-2.65-1.63-3.97c-0.3-0.71-0.58-1.43-0.88-2.14c-0.1-0.25-0.2-0.5-0.31-0.75c-0.98-2.32-2-4.64-3.04-6.95
		c-0.04-0.1-0.09-0.19-0.13-0.29c-0.31-0.68-0.63-1.35-0.94-2.02c-0.81-1.77-1.62-3.53-2.46-5.29c-0.13-0.28-0.28-0.55-0.41-0.83
		c-0.7-1.45-1.43-2.89-2.15-4.33c-0.58-1.16-1.14-2.33-1.74-3.49c-0.11-0.21-0.23-0.42-0.34-0.63c-1.93-3.74-3.94-7.44-6.01-11.1
		c-0.18-0.31-0.33-0.63-0.51-0.94c-0.53-0.93-1.09-1.85-1.63-2.78c-0.87-1.5-1.74-2.99-2.63-4.48c-0.8-1.33-1.62-2.65-2.43-3.97
		c-0.91-1.47-1.81-2.93-2.74-4.38c-0.31-0.48-0.6-0.97-0.91-1.45c-0.29-0.46-0.62-0.89-0.91-1.35c-2.58-3.95-5.21-7.86-7.94-11.68
		c0,0,0,0,0,0c-0.03-0.05-0.07-0.09-0.1-0.13c-1.92-2.69-3.88-5.33-5.86-7.95c-0.09-0.12-0.17-0.24-0.26-0.36
		c-1.47-1.93-2.97-3.83-4.48-5.72c-0.29-0.37-0.58-0.75-0.87-1.11c-0.02-0.02-0.04-0.05-0.06-0.07c-1.78-2.21-3.59-4.4-5.43-6.55
		c-0.09-0.11-0.18-0.21-0.27-0.31c-0.56-0.65-1.13-1.29-1.69-1.94c-1.16-1.34-2.32-2.68-3.5-4c-0.22-0.25-0.45-0.48-0.67-0.73
		c-0.8-0.88-1.61-1.74-2.41-2.61c-0.89-0.96-1.77-1.94-2.67-2.89c-0.33-0.35-0.67-0.68-1.01-1.03c-0.88-0.91-1.76-1.8-2.65-2.7
		c-0.76-0.77-1.51-1.56-2.28-2.32c-0.43-0.43-0.88-0.84-1.31-1.26c-0.95-0.93-1.91-1.85-2.88-2.76c-0.67-0.63-1.33-1.29-2-1.92
		c-0.53-0.49-1.07-0.95-1.59-1.43c-0.96-0.88-1.93-1.75-2.91-2.62c-0.59-0.52-1.17-1.07-1.77-1.59c-0.64-0.56-1.29-1.08-1.94-1.63
		c-0.95-0.81-1.9-1.62-2.86-2.41c-0.5-0.41-0.98-0.84-1.48-1.25c-0.81-0.66-1.63-1.28-2.45-1.93c-0.89-0.7-1.77-1.41-2.67-2.1
		c-0.36-0.28-0.72-0.58-1.09-0.86c-1.1-0.83-2.21-1.62-3.31-2.43c-0.75-0.55-1.5-1.12-2.25-1.65c-0.2-0.14-0.39-0.29-0.58-0.43
		c-1.99-1.41-3.99-2.78-6.01-4.11c-0.02-0.01-0.04-0.02-0.05-0.03c-0.14-0.09-0.29-0.18-0.43-0.27c-1.83-1.2-3.66-2.37-5.51-3.49
		c-0.46-0.28-0.93-0.56-1.39-0.84c-1.51-0.9-3.01-1.77-4.51-2.61c-0.57-0.32-1.13-0.6-1.7-0.92c-0.77-0.42-1.54-0.84-2.31-1.24
		c-0.6-0.32-1.2-0.66-1.79-0.96c-0.96-0.49-1.9-0.93-2.86-1.4c-0.68-0.34-1.37-0.68-2.05-1c-0.28-0.13-0.56-0.28-0.84-0.41
		c-1.9-0.89-3.8-1.72-5.68-2.51c-0.01,0-0.02-0.01-0.03-0.01c-1.92-0.8-3.82-1.55-5.71-2.25c-0.25-0.09-0.49-0.16-0.74-0.25
		c-0.69-0.25-1.37-0.47-2.06-0.71c-0.97-0.33-1.94-0.69-2.9-1c-0.48-0.15-0.95-0.27-1.43-0.42c-0.84-0.26-1.68-0.5-2.51-0.73
		c-0.64-0.18-1.3-0.4-1.93-0.57c-0.67-0.18-1.34-0.31-2.01-0.48c-0.84-0.21-1.68-0.41-2.51-0.6c-0.44-0.1-0.89-0.22-1.33-0.32
		c-0.79-0.17-1.55-0.27-2.33-0.42c-0.97-0.18-1.93-0.37-2.89-0.52c-0.34-0.05-0.68-0.13-1.02-0.18c-0.79-0.12-1.57-0.18-2.36-0.28
		c-1.03-0.13-2.07-0.27-3.09-0.36c-0.3-0.03-0.6-0.08-0.9-0.11c-0.69-0.06-1.37-0.06-2.05-0.1c-1.22-0.08-2.44-0.15-3.64-0.18
		c-0.34-0.01-0.68-0.05-1.02-0.05c-0.53-0.01-1.03,0.05-1.55,0.05c-1.52,0.01-3.02,0.05-4.5,0.14c-0.45,0.03-0.91,0.01-1.36,0.04
		c-0.62,0.05-1.24,0.13-1.85,0.19c-0.46,0.05-0.93,0.09-1.39,0.14c-1.69,0.2-3.37,0.43-5.01,0.74c-0.05,0.01-0.1,0.02-0.15,0.03
		c-0.45,0.08-0.89,0.2-1.34,0.3c-1.37,0.28-2.72,0.58-4.06,0.93c-0.65,0.17-1.29,0.38-1.93,0.57c-0.85,0.25-1.72,0.48-2.56,0.76
		c-0.21,0.07-0.41,0.17-0.62,0.24c-1.29,0.45-2.56,0.96-3.81,1.49c-0.61,0.25-1.23,0.48-1.83,0.75c-1.84,0.83-3.64,1.72-5.39,2.7
		L77.61,37.59c1.75-0.98,3.55-1.87,5.39-2.7c0.6-0.27,1.22-0.49,1.83-0.75c1.26-0.52,2.52-1.03,3.81-1.48
		c1.05-0.36,2.11-0.69,3.18-1.01c0.64-0.19,1.28-0.4,1.93-0.57c1.33-0.35,2.69-0.65,4.06-0.93c0.45-0.09,0.88-0.21,1.33-0.3
		c1.7-0.32,3.42-0.57,5.16-0.77c0.46-0.05,0.93-0.1,1.39-0.14c1.06-0.11,2.14-0.17,3.21-0.23c1.49-0.09,2.99-0.13,4.5-0.14
		c0.85-0.01,1.71-0.02,2.57,0c1.2,0.03,2.42,0.1,3.64,0.18c0.98,0.06,1.96,0.11,2.95,0.21c1.02,0.1,2.06,0.23,3.09,0.36
		c1.12,0.14,2.24,0.28,3.37,0.46c0.96,0.15,1.93,0.34,2.89,0.52c1.21,0.23,2.43,0.46,3.66,0.74c0.83,0.19,1.67,0.39,2.5,0.6
		c1.31,0.32,2.62,0.67,3.95,1.05c0.83,0.24,1.67,0.48,2.51,0.73c1.44,0.44,2.89,0.92,4.34,1.42c0.69,0.24,1.37,0.46,2.05,0.71
		c2.14,0.77,4.28,1.6,6.45,2.5c0.01,0,0.02,0.01,0.02,0.01c0,0,0,0,0,0c2.16,0.9,4.33,1.89,6.52,2.92c0.68,0.32,1.37,0.67,2.05,1.01
		c1.54,0.76,3.09,1.54,4.65,2.36c0.77,0.41,1.54,0.82,2.31,1.24c2.06,1.13,4.13,2.28,6.21,3.53c2.32,1.38,4.61,2.83,6.9,4.33
		c0.14,0.09,0.29,0.18,0.43,0.27c2.23,1.47,4.44,3,6.64,4.57c0.76,0.54,1.51,1.11,2.27,1.66c1.47,1.07,2.93,2.16,4.38,3.27
		c0.9,0.69,1.78,1.4,2.67,2.1c1.31,1.04,2.62,2.1,3.92,3.17c0.96,0.79,1.91,1.6,2.86,2.41c1.24,1.06,2.48,2.13,3.7,3.22
		c0.97,0.86,1.95,1.74,2.91,2.62c1.2,1.1,2.4,2.22,3.59,3.34c0.96,0.91,1.93,1.83,2.88,2.76c1.21,1.18,2.41,2.38,3.6,3.59
		c0.88,0.89,1.77,1.78,2.64,2.69c1.24,1.29,2.46,2.6,3.69,3.92c0.8,0.87,1.61,1.72,2.41,2.6c1.41,1.55,2.79,3.14,4.17,4.73
		c0.56,0.65,1.13,1.28,1.69,1.93c1.94,2.28,3.86,4.58,5.75,6.93c0.31,0.39,0.61,0.79,0.92,1.18c1.58,1.98,3.15,3.98,4.7,6.01
		c1.99,2.61,3.94,5.26,5.86,7.95c0.03,0.05,0.07,0.09,0.1,0.14c2.73,3.82,5.36,7.73,7.94,11.68c0.61,0.93,1.22,1.86,1.83,2.8
		c0.93,1.45,1.84,2.92,2.74,4.38c0.82,1.32,1.63,2.64,2.43,3.97c0.89,1.48,1.76,2.98,2.62,4.47c0.72,1.24,1.44,2.47,2.14,3.72
		c2.07,3.67,4.08,7.37,6.01,11.1c0.71,1.36,1.38,2.74,2.07,4.11c0.72,1.44,1.45,2.88,2.15,4.33c0.99,2.04,1.95,4.1,2.89,6.16
		c0.3,0.66,0.62,1.32,0.92,1.98c1.2,2.65,2.36,5.32,3.48,8c0.3,0.71,0.58,1.42,0.87,2.12c0.82,1.99,1.62,3.98,2.4,5.98
		c0.36,0.91,0.71,1.83,1.05,2.74c0.73,1.92,1.44,3.85,2.13,5.78c0.29,0.82,0.6,1.65,0.89,2.47c0.88,2.52,1.73,5.05,2.54,7.58
		c0.07,0.23,0.16,0.46,0.23,0.69c0.88,2.76,1.7,5.52,2.5,8.28c0.25,0.89,0.49,1.77,0.73,2.66c0.53,1.91,1.04,3.81,1.53,5.72
		c0.27,1.05,0.52,2.1,0.78,3.15c0.43,1.77,0.85,3.55,1.24,5.32c0.23,1.05,0.46,2.1,0.68,3.15c0.38,1.83,0.74,3.65,1.08,5.47
		c0.18,0.96,0.37,1.92,0.54,2.87c0.42,2.38,0.8,4.76,1.15,7.13c0.05,0.35,0.11,0.7,0.16,1.05c0.39,2.71,0.72,5.42,1.01,8.11
		c0.08,0.77,0.15,1.53,0.22,2.29c0.19,1.93,0.36,3.86,0.5,5.78c0.07,0.92,0.12,1.84,0.18,2.76c0.11,1.82,0.19,3.64,0.25,5.45
		c0.03,0.87,0.06,1.75,0.08,2.62c0.05,2.57,0.07,5.13,0.03,7.67c-0.05,2.67-0.16,5.28-0.32,7.85c-0.04,0.73-0.11,1.45-0.17,2.17
		c-0.13,1.76-0.27,3.51-0.45,5.22c-0.1,1-0.23,1.97-0.35,2.96c-0.18,1.45-0.37,2.9-0.59,4.32c-0.16,1.05-0.33,2.08-0.51,3.11
		c-0.23,1.31-0.47,2.6-0.73,3.88c-0.23,1.15-0.48,2.29-0.74,3.41c-0.26,1.15-0.54,2.28-0.83,3.4c-0.34,1.32-0.7,2.62-1.08,3.9
		c-0.29,1-0.6,2-0.91,2.98c-0.5,1.54-1.03,3.04-1.58,4.51c-0.3,0.8-0.58,1.61-0.89,2.39c-0.99,2.49-2.04,4.9-3.17,7.21
		c-0.88,1.79-1.8,3.55-2.76,5.23c-0.01,0.01-0.02,0.02-0.02,0.04c-0.98,1.71-2,3.35-3.07,4.95c-0.22,0.32-0.44,0.63-0.66,0.95
		c-0.81,1.19-1.65,2.35-2.51,3.47c-0.35,0.45-0.7,0.89-1.05,1.34c-0.82,1.02-1.66,2.01-2.51,2.98c-0.32,0.37-0.64,0.74-0.97,1.1
		c-1.17,1.27-2.38,2.51-3.62,3.68c-0.18,0.17-0.36,0.32-0.54,0.48c-1.08,1-2.19,1.96-3.33,2.88c-0.41,0.33-0.83,0.66-1.25,0.98
		c-0.97,0.75-1.96,1.48-2.96,2.18c-0.42,0.29-0.83,0.58-1.25,0.86c-1.4,0.93-2.82,1.82-4.28,2.64l47.61-26.71
		c1.46-0.82,2.88-1.71,4.28-2.64c0.42-0.28,0.83-0.58,1.25-0.86c1-0.7,1.99-1.42,2.96-2.17c0.42-0.33,0.84-0.65,1.25-0.99
		c1.13-0.92,2.24-1.88,3.32-2.88c0.18-0.16,0.36-0.31,0.54-0.48c1.24-1.17,2.45-2.4,3.62-3.68c0.33-0.36,0.65-0.73,0.97-1.1
		c0.86-0.96,1.69-1.95,2.51-2.97c0.35-0.44,0.71-0.89,1.05-1.34c0.86-1.12,1.69-2.27,2.5-3.46c0.22-0.32,0.45-0.63,0.67-0.96
		c0.06-0.1,0.13-0.18,0.2-0.28c2-3.03,3.85-6.27,5.54-9.69c0.04-0.08,0.07-0.17,0.11-0.24c1.13-2.31,2.18-4.72,3.17-7.2
		c0.09-0.22,0.19-0.41,0.27-0.63c0.22-0.57,0.41-1.2,0.62-1.78c0.55-1.48,1.08-2.97,1.57-4.5c0.13-0.41,0.29-0.79,0.42-1.2
		c0.18-0.58,0.32-1.19,0.49-1.78c0.38-1.28,0.74-2.58,1.08-3.9c0.14-0.54,0.31-1.05,0.44-1.6c0.14-0.59,0.26-1.22,0.39-1.81
		c0.26-1.12,0.5-2.26,0.74-3.41c0.12-0.59,0.27-1.16,0.38-1.75c0.13-0.69,0.23-1.42,0.35-2.12c0.18-1.03,0.35-2.06,0.51-3.11
		c0.08-0.53,0.19-1.05,0.26-1.58c0.13-0.9,0.21-1.83,0.33-2.74c0.12-0.98,0.25-1.95,0.35-2.95c0.04-0.4,0.1-0.78,0.14-1.19
		c0.13-1.33,0.21-2.7,0.31-4.06c0.05-0.72,0.12-1.42,0.17-2.15c0.01-0.18,0.03-0.35,0.04-0.53c0.13-2.27,0.22-4.57,0.27-6.91
		c0-0.14,0.01-0.27,0.01-0.41C365.53,269.22,365.54,267.07,365.5,264.91z"/>
	<g>
		<path class="st4" d="M183.12,100.03c4.7,2.81,8.43,9.49,8.33,14.95c-0.1,5.43-3.98,7.56-8.68,4.75c-4.7-2.81-8.43-9.49-8.33-14.92
			C174.54,99.35,178.42,97.21,183.12,100.03z"/>
	</g>
	<g>
		<path class="st4" d="M179.44,303.07c4.7,2.81,8.43,9.49,8.33,14.95c-0.1,5.43-3.98,7.56-8.68,4.75c-4.7-2.81-8.43-9.49-8.33-14.92
			C170.86,302.39,174.74,300.26,179.44,303.07z"/>
	</g>
	<g>
		<path class="st4" d="M93.72,149.18c4.68,2.8,8.41,9.5,8.31,14.93c-0.1,5.45-3.98,7.59-8.67,4.79c-4.7-2.81-8.43-9.49-8.33-14.95
			C85.13,148.53,89.01,146.37,93.72,149.18z"/>
	</g>
	<g>
		<path class="st4" d="M268.85,253.89c4.7,2.81,8.43,9.52,8.33,14.95c-0.1,5.45-3.98,7.59-8.68,4.77c-4.68-2.8-8.41-9.48-8.31-14.93
			C260.28,253.25,264.16,251.09,268.85,253.89z"/>
	</g>
	<g>
		<path class="st3" d="M182.64,137.76c2.92,1.74,5.24,5.96,5.18,9.3l-1.28,69.56c-0.03,1.62-0.56,2.9-1.63,3.49l-31.97,18.1
			c-1.05,0.58-2.42,0.36-3.78-0.46c-1.36-0.81-2.71-2.22-3.72-4.03c-2.01-3.61-1.94-7.5,0.16-8.69L176,207.84l1.24-67.11
			C177.3,137.38,179.73,136.01,182.64,137.76z"/>
	</g>
	<g>
		<path class="st0" d="M181.65,197.23c6.78,4.06,12.16,13.7,12.01,21.56c-0.14,7.83-5.74,10.91-12.53,6.86
			c-6.78-4.06-12.16-13.7-12.01-21.53C169.26,196.25,174.86,193.17,181.65,197.23z"/>
	</g>
	<g>
		<path class="st1" d="M181.46,207.5c1.88,1.12,3.36,3.79,3.32,5.97c-0.04,2.17-1.59,3.02-3.47,1.9c-1.88-1.12-3.36-3.79-3.32-5.96
			C178.03,207.23,179.58,206.38,181.46,207.5z"/>
	</g>
</g>
</svg>
