<?xml version="1.0" encoding="utf-8"?>
<!-- Generator: Adobe Illustrator 23.0.1, SVG Export Plug-In . SVG Version: 6.00 Build 0)  -->
<svg version="1.1" id="Camada_1" xmlns="http://www.w3.org/2000/svg" xmlns:xlink="http://www.w3.org/1999/xlink" x="0px" y="0px"
	 viewBox="0 0 400 400" style="enable-background:new 0 0 400 400;" xml:space="preserve">
<style type="text/css">
	.st0{fill:#CD350C;}
	.st1{fill:#FFFFFF;}
	.st2{fill:#D7D7D7;}
	.st3{fill:#6E2108;}
	.st4{fill:#3E1605;}
	.st5{enable-background:new    ;}
	.st6{fill:#E1781C;}
	.st7{fill:#E4BB31;}
	.st8{fill:#5A969B;}
	.st9{fill:#9AD6D8;}
	.st10{fill:#E2AF0E;}
	.st11{fill:url(#XMLID_18_);}
	.st12{fill:#F2C724;}
	.st13{fill:#E0AD0B;}
	.st14{opacity:0.5;fill:url(#XMLID_19_);}
	.st15{fill:url(#XMLID_20_);}
	.st16{opacity:0.5;fill:url(#XMLID_21_);}
	.st17{fill:url(#XMLID_22_);}
	.st18{opacity:0.5;fill:url(#XMLID_23_);}
	.st19{fill:url(#XMLID_24_);}
</style>
<g>
	<g>
		<g class="st5">
			<path class="st6" d="M347.21,183.66c-0.09-1.22-0.24-2.44-0.36-3.67c-0.17-1.72-0.28-3.44-0.51-5.17
				c-0.17-1.29-0.39-2.59-0.59-3.88c-0.09-0.6-0.17-1.19-0.27-1.79c-0.47-2.9-1-5.81-1.62-8.73c-0.13-0.62-0.32-1.24-0.45-1.85
				c-0.39-1.77-0.86-3.54-1.3-5.32c-0.4-1.58-0.72-3.16-1.16-4.75c-0.25-0.89-0.55-1.77-0.81-2.66c-0.42-1.43-0.86-2.86-1.31-4.29
				c-0.38-1.21-0.71-2.43-1.11-3.64c-0.52-1.57-1.12-3.12-1.68-4.68c-0.41-1.14-0.8-2.28-1.22-3.41c-0.21-0.57-0.4-1.14-0.61-1.71
				c-1.2-3.12-2.47-6.23-3.81-9.32c-0.05-0.13-0.12-0.25-0.17-0.38c-0.19-0.44-0.4-0.87-0.6-1.3c-1.09-2.46-2.19-4.91-3.36-7.34
				c-0.44-0.92-0.93-1.82-1.39-2.73c-0.52-1.04-1.04-2.08-1.58-3.11c-0.51-0.99-0.99-2-1.52-2.99c-1.14-2.14-2.34-4.25-3.54-6.36
				c-0.34-0.6-0.66-1.21-1.01-1.81c-0.11-0.19-0.21-0.39-0.33-0.58c-1.73-2.97-3.52-5.9-5.37-8.79c-0.27-0.43-0.57-0.84-0.85-1.26
				c-0.66-1.02-1.35-2.01-2.02-3.01c-1.05-1.57-2.07-3.17-3.16-4.71c-0.64-0.92-1.34-1.79-1.99-2.7c-0.95-1.32-1.91-2.62-2.89-3.91
				c-0.69-0.91-1.34-1.86-2.04-2.76c-0.86-1.11-1.78-2.14-2.65-3.23c-1.33-1.66-2.67-3.3-4.04-4.92c-0.59-0.7-1.15-1.44-1.75-2.13
				c-1.85-2.12-3.73-4.2-5.63-6.23c-0.04-0.04-0.07-0.07-0.11-0.11c-1.85-1.96-3.72-3.88-5.61-5.76c-0.72-0.71-1.47-1.36-2.2-2.05
				c-1.16-1.11-2.33-2.19-3.51-3.27c-1.94-1.77-3.9-3.47-5.88-5.14c-1.18-0.99-2.35-1.98-3.55-2.94c-2.15-1.72-4.34-3.34-6.54-4.92
				c-1.05-0.76-2.08-1.56-3.14-2.28c-3.26-2.24-6.56-4.37-9.91-6.3c-2.21-1.28-4.4-2.43-6.58-3.54c-0.63-0.32-1.26-0.62-1.88-0.92
				c-1.66-0.8-3.31-1.56-4.94-2.26c-0.38-0.16-0.76-0.36-1.13-0.52c-0.21-0.09-0.41-0.15-0.61-0.23c-1.53-0.63-3.05-1.2-4.56-1.74
				c-0.39-0.14-0.79-0.3-1.17-0.43c-1.89-0.65-3.75-1.22-5.6-1.73c-0.09-0.03-0.19-0.06-0.29-0.09c-0.99-0.27-1.96-0.48-2.93-0.71
				c-0.51-0.12-1.03-0.26-1.53-0.37c-1.57-0.34-3.13-0.63-4.67-0.87c-0.01,0-0.01,0-0.02,0c-2.36-0.36-4.66-0.57-6.94-0.7
				c-0.26-0.01-0.53-0.07-0.79-0.08c-0.2-0.01-0.39,0.01-0.59,0c-2.04-0.07-4.05-0.07-6.02,0.05c-0.09,0-0.18,0-0.27,0
				c-0.26,0.02-0.5,0.07-0.75,0.09c-1.59,0.12-3.16,0.31-4.7,0.55c-0.27,0.04-0.56,0.05-0.83,0.1c-0.21,0.04-0.4,0.1-0.61,0.14
				c-1.76,0.33-3.5,0.71-5.19,1.2c-0.01,0-0.03,0.01-0.04,0.01c-0.07,0.02-0.13,0.05-0.19,0.07c-1.6,0.47-3.15,1.03-4.68,1.65
				c-0.2,0.08-0.42,0.13-0.62,0.22c-0.25,0.1-0.47,0.24-0.72,0.35c-1.31,0.57-2.58,1.19-3.83,1.87c-0.22,0.12-0.45,0.21-0.67,0.33
				c-0.19,0.11-0.38,0.22-0.57,0.33L82.64,59.33c0.4-0.23,0.83-0.43,1.24-0.65c1.25-0.68,2.53-1.3,3.83-1.87
				c0.44-0.19,0.88-0.39,1.33-0.57c1.53-0.62,3.08-1.18,4.68-1.65c0.08-0.02,0.15-0.05,0.22-0.08c1.69-0.49,3.43-0.87,5.19-1.2
				c0.48-0.09,0.96-0.16,1.44-0.24c1.54-0.24,3.1-0.43,4.7-0.55c0.34-0.03,0.68-0.07,1.02-0.09c1.97-0.12,3.98-0.12,6.02-0.05
				c0.46,0.02,0.92,0.05,1.38,0.07c2.28,0.13,4.58,0.33,6.94,0.7c1.55,0.24,3.11,0.53,4.69,0.87c0.51,0.11,1.02,0.25,1.53,0.37
				c1.07,0.25,2.14,0.5,3.22,0.8c1.85,0.51,3.71,1.08,5.6,1.73c0.39,0.13,0.78,0.3,1.17,0.43c1.51,0.54,3.03,1.11,4.56,1.74
				c0.58,0.24,1.16,0.5,1.75,0.75c1.64,0.7,3.28,1.45,4.94,2.26c0.63,0.3,1.25,0.6,1.88,0.92c2.18,1.1,4.37,2.26,6.58,3.53
				c3.35,1.93,6.65,4.06,9.91,6.3c1.06,0.73,2.1,1.53,3.15,2.29c2.2,1.59,4.38,3.2,6.53,4.92c1.2,0.95,2.38,1.95,3.56,2.94
				c1.98,1.66,3.94,3.37,5.87,5.13c1.18,1.08,2.35,2.16,3.52,3.28c2.64,2.53,5.26,5.09,7.8,7.79c0.04,0.04,0.08,0.08,0.12,0.13
				c2.52,2.69,4.96,5.51,7.37,8.35c1.37,1.62,2.71,3.27,4.05,4.93c1.58,1.97,3.15,3.95,4.68,5.98c0.98,1.3,1.94,2.6,2.89,3.92
				c1.76,2.43,3.47,4.91,5.15,7.41c0.67,1.01,1.36,2,2.02,3.01c2.26,3.49,4.45,7.03,6.54,10.64c0.35,0.6,0.67,1.21,1.01,1.81
				c1.75,3.08,3.44,6.2,5.06,9.34c0.53,1.04,1.06,2.08,1.58,3.12c1.65,3.32,3.24,6.67,4.73,10.05c0.2,0.44,0.41,0.88,0.61,1.33
				c1.65,3.78,3.16,7.59,4.6,11.41c0.43,1.14,0.82,2.28,1.23,3.42c0.99,2.76,1.91,5.53,2.79,8.31c0.45,1.43,0.89,2.87,1.31,4.3
				c0.72,2.47,1.35,4.93,1.97,7.4c0.45,1.77,0.91,3.55,1.3,5.32c0.79,3.54,1.5,7.07,2.07,10.58c0.1,0.6,0.18,1.2,0.27,1.8
				c0.46,3.04,0.8,6.05,1.09,9.05c0.12,1.22,0.27,2.45,0.36,3.67c0.29,3.87,0.47,7.71,0.46,11.49
				c-0.25,86.59-30.38,124.11-58.26,140.32l87.48-50.84c27.88-16.2,58.02-53.73,58.26-140.32
				C347.68,191.36,347.5,187.52,347.21,183.66z"/>
			<g>
				<path class="st7" d="M156.58,66.57C99.2,33.44,52.51,60.04,52.33,125.98c-0.4,139.55,98.13,265.82,103.31,272.47
					c5.2,0.23,104.1,4.68,104.55-152.46C260.37,180.05,213.99,99.71,156.58,66.57z"/>
			</g>
		</g>
	</g>
	<g class="st5">
		<g>
			<path class="st1" d="M153.66,123.52c32.41,18.71,58.58,64.07,58.47,101.32c-0.11,37.21-26.44,52.26-58.86,33.54
				C120.86,239.67,94.7,194.31,94.8,157.1C94.91,119.86,121.25,104.81,153.66,123.52z"/>
		</g>
	</g>
	<path class="st6" d="M118.39,180.69c0.11-37.25,26.44-52.3,58.86-33.58c2.7,1.56,5.33,3.36,7.93,5.27
		c-9.09-11.96-19.89-22.14-31.51-28.85c-32.41-18.72-58.75-3.67-58.86,33.58c-0.1,34.11,21.91,75.01,50.54,96.01
		C129.09,231.73,118.32,204.55,118.39,180.69z"/>
</g>
</svg>
