<?xml version="1.0" encoding="utf-8"?>
<!-- Generator: Adobe Illustrator 23.0.1, SVG Export Plug-In . SVG Version: 6.00 Build 0)  -->
<svg version="1.1" id="Camada_1" xmlns="http://www.w3.org/2000/svg" xmlns:xlink="http://www.w3.org/1999/xlink" x="0px" y="0px"
	 viewBox="0 0 400 400" style="enable-background:new 0 0 400 400;" xml:space="preserve">
<style type="text/css">
	.st0{fill:#CD350C;}
	.st1{fill:#FFFFFF;}
	.st2{fill:#D7D7D7;}
	.st3{fill:#6E2108;}
	.st4{fill:#3E1605;}
	.st5{enable-background:new    ;}
	.st6{fill:#E1781C;}
	.st7{fill:#E4BB31;}
	.st8{fill:#5A969B;}
	.st9{fill:#9AD6D8;}
	.st10{fill:#E2AF0E;}
	.st11{fill:url(#XMLID_18_);}
	.st12{fill:#F2C724;}
	.st13{fill:#E0AD0B;}
	.st14{opacity:0.5;fill:url(#XMLID_19_);}
	.st15{fill:url(#XMLID_20_);}
	.st16{opacity:0.5;fill:url(#XMLID_21_);}
	.st17{fill:url(#XMLID_22_);}
	.st18{opacity:0.5;fill:url(#XMLID_23_);}
	.st19{fill:url(#XMLID_24_);}
</style>
<g>
	<g>
		<g>
			<path class="st8" d="M105.61,246.62c-0.55,0.32-1.1,0.65-1.64,0.99c2.03,3.63,4.19,7.19,6.36,10.75c0.93,1.53,1.85,3.08,2.8,4.59
				c1.79,2.84,3.65,5.62,5.52,8.39c1,1.5,1.98,3.02,3.01,4.5c1.72,2.47,3.53,4.87,5.32,7.29c1.34,1.82,2.65,3.68,4.03,5.47
				c1,1.3,2.06,2.52,3.08,3.8c2.48,3.11,4.97,6.2,7.54,9.19c0.93,1.08,1.91,2.11,2.85,3.17c3.52,3.97,7.12,7.81,10.79,11.53
				c1.36,1.38,2.72,2.75,4.11,4.09c2.87,2.78,5.79,5.45,8.75,8.06c1.35,1.19,2.68,2.43,4.05,3.59c2.53,2.15,5.14,4.11,7.73,6.12
				c-2.65-4.58-5.23-9.18-7.7-13.81c-0.63-1.19-1.2-2.41-1.83-3.6c-0.77-1.49-1.51-2.97-2.26-4.46c-1.18-2.33-2.41-4.65-3.55-7
				c-2.29-4.74-4.45-9.52-6.55-14.29c-0.1-0.23-0.21-0.46-0.31-0.68c-0.05-0.12-0.11-0.24-0.17-0.36
				c-2.29-5.28-4.45-10.58-6.49-15.87c-0.71-1.83-1.3-3.66-1.97-5.5c-0.7-1.9-1.38-3.79-2.04-5.69c-0.66-1.85-1.38-3.71-2-5.57
				c-1.81-5.42-3.48-10.84-5.02-16.24l12.42-7.22c2.07,7.27,4.48,14.57,7.04,21.88c0.66,1.87,1.33,3.74,2.01,5.6
				c2.67,7.25,5.49,14.5,8.63,21.72c0.12,0.28,0.26,0.55,0.37,0.82c3.11,7.12,6.51,14.19,10.07,21.23c0.73,1.45,1.45,2.9,2.2,4.34
				c3.9,7.5,7.98,14.95,12.36,22.3l-10.54,6.12c0.26,0.19,0.51,0.41,0.77,0.6l-12.42,7.22c-4.46-3.26-8.84-6.78-13.16-10.43
				c-1.39-1.18-2.73-2.43-4.1-3.64c-2.94-2.59-5.84-5.24-8.69-8.01c-0.67-0.65-1.37-1.22-2.04-1.88c-0.73-0.72-1.4-1.53-2.12-2.26
				c-3.64-3.68-7.21-7.49-10.7-11.43c-0.68-0.77-1.41-1.45-2.09-2.23c-0.29-0.33-0.56-0.7-0.85-1.03c-2.56-2.97-5.04-6.05-7.5-9.15
				c-0.89-1.13-1.85-2.19-2.73-3.33c-0.12-0.15-0.24-0.33-0.36-0.48c-1.34-1.74-2.61-3.54-3.92-5.31c-1.64-2.22-3.33-4.4-4.92-6.68
				c-0.19-0.26-0.36-0.55-0.55-0.82c-0.97-1.39-1.88-2.82-2.82-4.22c-1.56-2.3-3.15-4.59-4.65-6.94c-0.36-0.57-0.69-1.15-1.05-1.72
				c-0.97-1.52-1.88-3.07-2.82-4.61c-1.1-1.8-2.24-3.58-3.3-5.41c-1.02-1.75-2.04-3.52-3.02-5.29c0.54-0.33,1.09-0.67,1.64-0.98
				C96.91,251.67,101.88,248.78,105.61,246.62z"/>
			<path class="st8" d="M55.5,150.28c-0.09-0.65-0.09-1.29-0.17-1.93c-0.67-5.56-1.21-11.09-1.43-16.54l12.42-7.22
				c0.22,5.43,0.75,10.93,1.42,16.46c0.18,1.48,0.39,2.98,0.6,4.47c0.72,5.11,1.59,10.24,2.66,15.4c0.15,0.72,0.25,1.43,0.41,2.15
				c1.05,4.86,2.25,9.75,3.6,14.64c0.47,1.73,1.03,3.45,1.54,5.18c0.84,2.83,1.67,5.66,2.6,8.49c0.71,2.17,1.51,4.33,2.28,6.49
				c0.78,2.19,1.53,4.4,2.36,6.58c0.97,2.54,2.02,5.07,3.06,7.6c0.69,1.69,1.34,3.38,2.07,5.06c1.79,4.14,3.66,8.27,5.63,12.36
				l1.02-0.59c0.28-0.16,0.56-0.32,0.84-0.48c2.48-1.39,5.03-2.64,7.64-3.74c0.08-0.03,0.17-0.05,0.26-0.09
				c0.52-0.21,1.06-0.35,1.57-0.55c2.02-0.78,4.05-1.56,6.15-2.17c0.36-0.1,0.74-0.16,1.1-0.25c1.07-0.29,2.17-0.51,3.26-0.75
				c1.36-0.31,2.68-0.7,4.06-0.94c0.64-0.11,1.31-0.13,1.96-0.23c1.3-0.19,2.63-0.33,3.96-0.47c1.05-0.1,2.06-0.3,3.12-0.37
				c1.4-0.09,2.83-0.13,4.26-0.15c-0.04-0.18-0.07-0.37-0.11-0.55c-0.41-2.08-0.84-4.17-1.2-6.24c-0.4-2.25-0.74-4.48-1.08-6.72
				c-0.33-2.1-0.67-4.2-0.96-6.29c-0.06-0.47-0.15-0.96-0.22-1.43c-0.29-2.23-0.49-4.42-0.72-6.62c-0.15-1.37-0.33-2.75-0.45-4.12
				c-0.37-4.04-0.66-8.07-0.84-12.04l12.42-7.22c0.18,3.97,0.47,7.99,0.83,12.03c0.13,1.37,0.31,2.75,0.45,4.13
				c0.28,2.67,0.58,5.34,0.94,8.04c0.28,2.08,0.63,4.19,0.96,6.29c0.35,2.24,0.68,4.48,1.08,6.73c0.37,2.05,0.79,4.11,1.2,6.17
				c0.55,2.82,1.09,5.64,1.72,8.48c1.09,0.13,2.18,0.28,3.28,0.45c1.05,0.16,2.14,0.49,3.2,0.68c2.66,0.48,5.33,1.03,8.04,1.71
				c0.78,0.2,1.54,0.28,2.32,0.5c1.5,0.4,3.03,0.92,4.54,1.39c0.95,0.29,1.89,0.55,2.84,0.87c3.42,1.13,6.87,2.37,10.36,3.81
				c0.13,0.05,0.26,0.12,0.39,0.18c4.19,1.74,8.41,3.69,12.66,5.88L183,242.02c-4.26-2.19-8.49-4.14-12.69-5.89
				c-3.6-1.49-7.16-2.8-10.69-3.97c-0.98-0.33-1.95-0.6-2.93-0.9c-2.28-0.7-4.54-1.3-6.79-1.86c-2.72-0.68-5.41-1.23-8.08-1.71
				c-2.16-0.39-4.34-0.87-6.46-1.13c-0.24-1.07-0.47-2.13-0.7-3.2c-0.31-1.44-0.55-2.87-0.84-4.32l-11.76,6.83
				c-2.77,0.02-5.46,0.28-8.14,0.55c-1.31,0.13-2.62,0.26-3.91,0.46c-2.06,0.31-4.07,0.72-6.06,1.17c-1.09,0.25-2.2,0.46-3.26,0.75
				c-2.41,0.67-4.76,1.48-7.08,2.37c-0.58,0.22-1.19,0.38-1.76,0.62c-2.96,1.23-5.84,2.64-8.62,4.25l-1.11,0.65
				c-1.87-3.88-3.65-7.78-5.35-11.71c-0.09-0.2-0.16-0.41-0.25-0.61c-0.74-1.72-1.41-3.46-2.12-5.2c-0.9-2.19-1.84-4.36-2.69-6.56
				c-0.12-0.33-0.23-0.66-0.35-0.99c-0.8-2.11-1.53-4.24-2.29-6.36c-0.67-1.89-1.4-3.77-2.03-5.65c-0.12-0.35-0.2-0.7-0.32-1.06
				c-0.92-2.8-1.74-5.59-2.57-8.39c-0.46-1.54-0.98-3.07-1.41-4.6c-0.06-0.21-0.1-0.42-0.15-0.64c-1.36-4.91-2.56-9.82-3.62-14.72
				c-0.03-0.15-0.08-0.3-0.11-0.46c-0.1-0.46-0.14-0.92-0.24-1.38c-1.1-5.28-1.98-10.53-2.71-15.75
				C55.8,151.85,55.6,151.06,55.5,150.28z"/>
			<path class="st8" d="M209.89,259.73l-0.26,90.2c1.31-0.67,2.61-1.38,3.88-2.12l-12.43,7.22c-0.32,0.19-0.65,0.37-0.97,0.55
				c-0.96,0.54-1.93,1.06-2.91,1.56l0.26-90.2L209.89,259.73z"/>
			<path class="st8" d="M89.51,37.73c1.5-1.04,3.03-2.02,4.6-2.94l12.42-7.22c-1.57,0.91-3.11,1.89-4.6,2.94
				c2.22,4.14,4.55,8.19,6.93,12.2c0.95,1.59,1.92,3.15,2.89,4.73c1.59,2.58,3.2,5.14,4.84,7.66c1.17,1.8,2.37,3.57,3.57,5.33
				c1.54,2.25,3.09,4.48,4.68,6.67c1.49,2.08,3.01,4.13,4.54,6.16c2.29,3.03,4.58,6.06,6.95,8.97l-12.42,7.22
				c-1.58-1.94-3.14-3.91-4.69-5.9c-0.78-1.01-1.52-2.08-2.29-3.11c-1.53-2.02-3.04-4.07-4.53-6.14c-0.73-1.02-1.5-1.99-2.23-3.01
				c-0.83-1.19-1.61-2.43-2.43-3.63c-1.2-1.76-2.39-3.52-3.56-5.31c-0.62-0.94-1.27-1.84-1.87-2.79c-1.02-1.59-1.98-3.25-2.97-4.86
				c-0.99-1.62-1.99-3.22-2.96-4.85c-0.36-0.61-0.75-1.21-1.11-1.83c-1.49-2.55-2.92-5.15-4.35-7.75
				c-14.21,15.3-23.06,38.16-24.55,67.64l59.65,34.44l-12.42,7.22l-59.64-34.43c1.55-30.71,11.03-54.32,26.29-69.6l10.28-5.98
				C90.19,38.93,89.84,38.34,89.51,37.73z"/>
			<path class="st8" d="M195.57,182.49l-12.42,7.22l-55.04-31.78c0.38-14.16,2-27.41,4.9-39.46l11.19-6.5
				c-2.41-2.4-4.8-4.84-7.15-7.36c8.59-24.89,23.07-43.8,42.6-55.15l12.42-7.22c-19.53,11.35-34.01,30.27-42.6,55.15
				c3.23,3.46,6.53,6.78,9.87,10.03c1.18,1.15,2.37,2.25,3.57,3.37c2.33,2.18,4.67,4.32,7.04,6.38c1.28,1.13,2.57,2.24,3.87,3.32
				c2.44,2.05,4.92,4.02,7.4,5.94c1.17,0.9,2.32,1.83,3.49,2.71c3.64,2.7,7.29,5.3,10.99,7.69l-12.42,7.22
				c-3.69-2.4-7.35-5-10.99-7.7c-1.17-0.87-2.32-1.8-3.48-2.7c-2.49-1.92-4.96-3.89-7.41-5.95c-1.3-1.09-2.59-2.19-3.87-3.32
				c-2.36-2.06-4.69-4.18-7-6.36c-1.21-1.14-2.42-2.26-3.62-3.42c-0.52-0.51-1.06-0.98-1.58-1.49c-0.06-0.06-0.12-0.13-0.19-0.19
				c-2.67,11.62-4.24,24.25-4.6,37.77L195.57,182.49z"/>
			<path class="st8" d="M212.56,372.1c19.19-11.52,33.68-29.97,42.99-53.74l10.54-6.12c-2-2.44-3.94-4.95-5.99-7.31
				c4.27-14.96,6.63-31.79,7.08-49.99l12.42-7.22c-0.44,18.2-2.81,35.04-7.08,49.99c3.91,4.51,7.72,9.18,11.45,13.97
				c0.13,0.16,0.27,0.31,0.4,0.48c2.44,3.15,4.78,6.41,7.13,9.67c0.9,1.25,1.84,2.44,2.73,3.7c0.04,0.06,0.09,0.12,0.13,0.18
				c2.97,4.23,5.87,8.55,8.68,12.96c0.19,0.29,0.36,0.6,0.55,0.9c0.77,1.22,1.5,2.47,2.26,3.7c1.67,2.69,3.35,5.37,4.96,8.12
				c0.86,1.46,1.7,2.93,2.53,4.41l-12.42,7.22c-2.45-4.33-5.03-8.56-7.63-12.75c-0.71-1.14-1.39-2.31-2.1-3.44
				c-3.05-4.8-6.19-9.52-9.42-14.12c-0.68-0.96-1.4-1.87-2.08-2.82c-2.68-3.74-5.38-7.44-8.17-11.02c-1.46-1.88-3.01-3.65-4.5-5.49
				c-9.34,22.67-23.45,40.37-42.03,51.52c3.33,1.32,6.61,2.44,9.85,3.45c0.77,0.24,1.55,0.48,2.31,0.7c1.77,0.52,3.5,0.9,5.24,1.32
				c2.39,0.58,4.78,1.1,7.11,1.51c1.62,0.28,3.23,0.52,4.82,0.72c1.75,0.22,3.49,0.4,5.22,0.52c1.71,0.11,3.41,0.19,5.08,0.21
				c1.44,0.02,2.87,0.01,4.28-0.04c1.78-0.07,3.53-0.21,5.27-0.39c1.22-0.13,2.44-0.25,3.63-0.43c1.87-0.29,3.69-0.67,5.49-1.09
				c0.97-0.23,1.95-0.41,2.9-0.67c2.33-0.64,4.6-1.43,6.81-2.3c0.37-0.15,0.77-0.25,1.14-0.4c2.7-1.12,5.31-2.41,7.83-3.87
				l-12.43,7.22c-0.25,0.14-0.5,0.29-0.75,0.43c-2.23,1.25-4.54,2.38-6.91,3.38c-0.05,0.02-0.11,0.03-0.16,0.06
				c-0.36,0.15-0.74,0.24-1.1,0.39c-1.96,0.78-3.95,1.52-6,2.11c-0.27,0.07-0.55,0.11-0.82,0.19c-0.96,0.27-1.95,0.45-2.94,0.68
				c-1.32,0.31-2.61,0.68-3.96,0.92c-0.5,0.09-1.04,0.1-1.55,0.18c-1.17,0.19-2.37,0.29-3.56,0.42c-1.07,0.12-2.11,0.31-3.2,0.38
				c-0.7,0.04-1.44-0.01-2.14,0.02c-1.39,0.05-2.8,0.05-4.22,0.04c-0.92-0.01-1.81,0.07-2.75,0.02c-0.78-0.03-1.59-0.18-2.38-0.23
				c-1.71-0.12-3.44-0.3-5.18-0.51c-0.91-0.11-1.78-0.13-2.7-0.27c-0.7-0.11-1.45-0.33-2.16-0.45c-2.33-0.41-4.7-0.93-7.09-1.51
				c-1-0.24-1.95-0.36-2.96-0.63c-0.75-0.2-1.52-0.48-2.28-0.7c-0.78-0.22-1.55-0.46-2.34-0.7
				C219.15,374.54,215.88,373.43,212.56,372.1z"/>
			<path class="st8" d="M238.22,282.12c-1.59-1.5-3.16-3.02-4.76-4.47c-2.35-2.13-4.75-4.15-7.14-6.18c-1.54-1.3-3.05-2.63-4.6-3.88
				c-2.67-2.15-5.37-4.17-8.07-6.18c-1.31-0.98-2.61-2.02-3.93-2.96c-4.04-2.88-8.11-5.62-12.21-8.18l0.1-35.5l12.42-7.22
				l-0.1,35.49c4.1,2.56,8.17,5.3,12.21,8.18c1.32,0.94,2.6,1.98,3.91,2.95c2.71,2.01,5.41,4.03,8.08,6.19
				c1.55,1.25,3.05,2.58,4.59,3.87c2.4,2.02,4.79,4.05,7.16,6.19c1.59,1.45,3.16,2.96,4.74,4.45c1.56,1.47,3.14,2.87,4.68,4.39
				c1.27,1.26,2.53,2.53,3.79,3.81l-12.42,7.22C243.89,287.47,241.05,284.81,238.22,282.12z"/>
			<polygon class="st8" points="197.66,198.09 197.75,169.26 210.17,162.04 210.09,190.88 265.01,222.58 252.59,229.8 			"/>
			<path class="st8" d="M329.67,274.31l-62.62-36.16c-0.16-4.24-0.44-8.52-0.8-12.84c-0.1-1.12-0.25-2.26-0.36-3.38
				c-0.3-3.19-0.62-6.38-1.03-9.61c-0.34-2.65-0.77-5.34-1.19-8.01c-0.24-1.53-0.43-3.05-0.68-4.58c-0.71-4.24-1.51-8.5-2.4-12.78
				l12.42-7.22c0.89,4.28,1.68,8.54,2.4,12.79c0.24,1.45,0.42,2.88,0.64,4.33c0.41,2.61,0.84,5.23,1.17,7.82
				c0.02,0.15,0.03,0.29,0.05,0.44c0.39,3.05,0.68,6.06,0.98,9.08c0.13,1.31,0.3,2.63,0.41,3.93c0.36,4.3,0.63,8.58,0.79,12.8
				l62.63,36.16L329.67,274.31z"/>
			<path class="st8" d="M207.32,53.87c0.34,0.57,0.65,1.15,0.99,1.71l-10.25,5.96l-0.26,91.04c4.33,2.3,8.61,4.29,12.87,6.08
				c0.32,0.14,0.65,0.33,0.97,0.46c2.95,1.22,5.87,2.29,8.77,3.26c0.66,0.22,1.31,0.4,1.97,0.6c1.79,0.57,3.58,1.16,5.35,1.64
				c0.65,0.18,1.28,0.24,1.93,0.41c2.4,0.61,4.76,1.08,7.12,1.51c1.07,0.2,2.18,0.53,3.24,0.69c0.98,0.15,1.96,0.28,2.93,0.4
				l11.22-6.52c0.67,2.39,1.4,4.78,2.03,7.16c1.06-0.03,2.11-0.07,3.16-0.14c1.18-0.07,2.3-0.28,3.46-0.4
				c1.18-0.13,2.38-0.23,3.54-0.41c0.39-0.07,0.8-0.07,1.19-0.14c1.44-0.25,2.82-0.65,4.24-0.98c0.94-0.22,1.9-0.4,2.83-0.66
				c0.19-0.06,0.4-0.08,0.59-0.14c2.24-0.65,4.42-1.44,6.57-2.31c0.22-0.09,0.46-0.15,0.68-0.24c0.01,0,0.02,0,0.03-0.01
				c2.39-1,4.72-2.14,6.98-3.41c0.26-0.14,0.52-0.29,0.77-0.44l12.42-7.22c-2.51,1.46-5.11,2.75-7.79,3.86
				c-0.21,0.09-0.43,0.14-0.64,0.23c-2.35,0.96-4.76,1.78-7.22,2.47c-0.9,0.26-1.85,0.42-2.76,0.64c-1.79,0.43-3.6,0.83-5.45,1.12
				c-1.18,0.19-2.37,0.29-3.57,0.42c-2.18,0.24-4.35,0.49-6.6,0.54c-0.47-1.79-0.96-3.59-1.45-5.38c-0.28-1.01-0.64-2.02-0.93-3.03
				c-1.27-4.41-2.62-8.83-4.05-13.26c-0.34-1.07-0.62-2.13-0.98-3.2c-0.19-0.56-0.42-1.13-0.61-1.69
				c-1.74-5.14-3.58-10.28-5.54-15.42c-0.12-0.32-0.22-0.64-0.34-0.96c-0.02-0.04-0.04-0.08-0.05-0.13
				c-2.05-5.32-4.24-10.63-6.52-15.94c-0.16-0.37-0.3-0.74-0.45-1.12c-0.59-1.35-1.25-2.69-1.85-4.04c-1.56-3.5-3.14-7-4.8-10.49
				c-0.34-0.7-0.63-1.41-0.97-2.12c-0.61-1.28-1.3-2.54-1.93-3.82c-1.59-3.21-3.21-6.42-4.87-9.61c-0.52-0.98-0.98-1.97-1.5-2.95
				c-0.54-1.02-1.15-2.03-1.7-3.05c-1.73-3.2-3.51-6.37-5.32-9.55c-0.71-1.24-1.35-2.49-2.07-3.73c-0.97-1.65-1.95-3.3-2.93-4.95
				L207.32,53.87z M210.46,59.32c0.62,1.07,1.24,2.15,1.86,3.23c1.81,3.17,3.6,6.35,5.32,9.55c1.08,1.99,2.15,3.99,3.19,5.99
				c1.67,3.2,3.3,6.42,4.89,9.65c0.97,1.96,1.95,3.92,2.88,5.89c1.67,3.52,3.27,7.05,4.85,10.59c0.75,1.68,1.53,3.36,2.25,5.05
				c2.29,5.32,4.49,10.65,6.54,15.98c0.11,0.3,0.21,0.59,0.32,0.89c2,5.21,3.85,10.42,5.61,15.63c0.54,1.6,1.04,3.19,1.55,4.79
				c1.45,4.47,2.82,8.93,4.09,13.38c0.02,0.07,0.04,0.15,0.06,0.22c-1.56-0.21-3.14-0.55-4.72-0.84c-2.33-0.43-4.66-0.9-7.03-1.49
				c-2.47-0.62-4.96-1.3-7.48-2.1c-0.6-0.19-1.19-0.35-1.8-0.55c-3.22-1.09-6.49-2.36-9.78-3.74c-4.26-1.79-8.55-3.78-12.87-6.08
				L210.46,59.32z"/>
			<path class="st8" d="M344.56,291.26c0.02-5.56-0.25-11.21-0.68-16.89c-0.13-1.75-0.34-3.51-0.52-5.26
				c-0.36-3.68-0.81-7.37-1.34-11.09c-0.57-3.98-1.3-7.99-2.06-12c-0.54-2.82-1.03-5.64-1.66-8.46c-0.58-2.61-1.26-5.23-1.92-7.85
				c-0.91-3.6-1.83-7.19-2.88-10.79c-0.62-2.14-1.29-4.28-1.96-6.42c-1.28-4.06-2.64-8.12-4.09-12.17c-0.6-1.67-1.17-3.35-1.8-5.01
				c-2.11-5.62-4.34-11.22-6.77-16.78c-0.3-0.7-0.64-1.38-0.96-2.08c-1.15-2.6-2.42-5.16-3.64-7.73c-0.38,0.23-0.74,0.47-1.13,0.69
				l-12.42,7.22c1.08-0.63,2.13-1.28,3.18-1.96l10.34-6.01c-1.08-2.29-2.1-4.59-3.23-6.86c-0.77-1.55-1.56-3.1-2.36-4.65
				c-2.36-4.58-4.81-9.12-7.37-13.61c-0.52-0.92-1.02-1.87-1.55-2.78c-3.06-5.27-6.26-10.45-9.57-15.56
				c-1.01-1.56-2.07-3.08-3.09-4.62c-2.43-3.63-4.92-7.22-7.47-10.75c-1.41-1.95-2.83-3.88-4.27-5.79c-2.26-3-4.57-5.93-6.91-8.84
				c-1.95-2.43-3.92-4.85-5.93-7.21c-1.91-2.25-3.88-4.42-5.83-6.61c-3.34-3.73-6.75-7.36-10.22-10.89
				c-2.12-2.15-4.22-4.32-6.39-6.39c-1.73-1.66-3.48-3.28-5.24-4.88c-2.81-2.56-5.66-5.05-8.53-7.46c-1.76-1.48-3.52-2.97-5.29-4.38
				c-3.13-2.5-6.31-4.85-9.51-7.16c-1.56-1.13-3.1-2.32-4.68-3.4c-4.79-3.28-9.62-6.4-14.53-9.23c-3.24-1.87-6.45-3.57-9.65-5.18
				c-0.92-0.47-1.83-0.91-2.75-1.35c-2.41-1.17-4.81-2.26-7.19-3.29c-0.88-0.38-1.76-0.78-2.63-1.13c-2.22-0.9-4.41-1.73-6.6-2.51
				c-0.59-0.21-1.2-0.46-1.79-0.66c-2.76-0.95-5.49-1.79-8.2-2.53c-0.39-0.11-0.77-0.19-1.15-0.29c-4.25-1.12-8.43-2.04-12.52-2.67
				c-0.07-0.01-0.14-0.03-0.22-0.04c-3.47-0.53-6.86-0.84-10.21-1.03c-0.66-0.03-1.33-0.08-1.99-0.1c-3.02-0.11-5.99-0.1-8.9,0.07
				c-0.47,0.03-0.91,0.09-1.37,0.13c-2.39,0.18-4.73,0.45-7.04,0.82c-0.69,0.11-1.39,0.22-2.08,0.34c-2.62,0.49-5.2,1.05-7.7,1.78
				c-0.01,0-0.01,0-0.02,0c-2.46,0.71-4.84,1.59-7.18,2.53c-0.65,0.26-1.29,0.54-1.92,0.82c-1.95,0.86-3.86,1.78-5.73,2.8
				c-0.59,0.32-1.19,0.6-1.77,0.93L96.09,9.8c0.28-0.16,0.55-0.32,0.84-0.48c0.33-0.19,0.7-0.32,1.03-0.5
				c1.82-0.99,3.68-1.9,5.59-2.73c0.36-0.16,0.7-0.37,1.07-0.52c0.3-0.13,0.61-0.2,0.91-0.32c2.27-0.92,4.59-1.76,6.97-2.46
				c0.07-0.02,0.14-0.05,0.21-0.07c0.01,0,0.03,0,0.04-0.01c2.5-0.72,5.06-1.29,7.67-1.77c0.3-0.06,0.58-0.15,0.88-0.2
				c0.39-0.07,0.8-0.08,1.19-0.14c2.28-0.36,4.6-0.64,6.95-0.82c0.37-0.03,0.73-0.11,1.1-0.13c0.12-0.01,0.26,0,0.38,0
				c2.89-0.17,5.84-0.18,8.84-0.07c0.3,0.01,0.59-0.02,0.9-0.01c0.38,0.02,0.79,0.1,1.17,0.12c3.33,0.19,6.7,0.49,10.15,1.01
				c0.03,0,0.05,0,0.07,0.01c0.07,0.01,0.15,0.04,0.22,0.05c4.1,0.64,8.29,1.55,12.55,2.68c0.22,0.06,0.43,0.08,0.66,0.14
				c0.12,0.04,0.25,0.08,0.37,0.11c2.72,0.75,5.47,1.59,8.25,2.54c0.57,0.2,1.15,0.43,1.72,0.64c2.23,0.79,4.48,1.64,6.74,2.56
				c0.29,0.12,0.57,0.21,0.86,0.33c0.52,0.21,1.05,0.49,1.57,0.72c2.46,1.05,4.92,2.18,7.42,3.38c0.87,0.42,1.74,0.84,2.61,1.28
				c3.21,1.62,6.44,3.33,9.7,5.21c4.9,2.83,9.74,5.95,14.52,9.23c1.59,1.08,3.13,2.27,4.7,3.41c3.2,2.31,6.38,4.66,9.51,7.16
				c1.77,1.41,3.51,2.88,5.26,4.35c2.91,2.44,5.77,4.94,8.61,7.53c1.73,1.57,3.44,3.16,5.14,4.78c1.06,1.02,2.15,1.95,3.2,2.99
				c1.12,1.11,2.16,2.36,3.28,3.49c3.47,3.53,6.87,7.16,10.22,10.89c1.04,1.17,2.16,2.22,3.2,3.41c0.88,1.01,1.7,2.1,2.57,3.12
				c2.02,2.38,3.99,4.81,5.96,7.26c1.28,1.59,2.63,3.11,3.89,4.74c1.05,1.35,2.03,2.78,3.05,4.15c1.41,1.87,2.8,3.76,4.18,5.66
				c0.97,1.35,2,2.65,2.96,4.01c1.6,2.29,3.11,4.65,4.67,6.98c0.98,1.47,1.98,2.91,2.94,4.39c0.41,0.63,0.84,1.23,1.25,1.86
				c2.72,4.26,5.36,8.58,7.91,12.95c0.17,0.29,0.32,0.59,0.49,0.87c0.48,0.83,0.92,1.68,1.4,2.51c1.8,3.15,3.6,6.31,5.3,9.51
				c0.77,1.45,1.47,2.93,2.23,4.39c0.78,1.51,1.54,3.01,2.3,4.53c0.68,1.37,1.41,2.72,2.08,4.1c1.72,3.56,3.33,7.15,4.92,10.74
				c0.28,0.63,0.59,1.26,0.86,1.89c0.09,0.22,0.2,0.43,0.3,0.65c1.97,4.55,3.84,9.13,5.61,13.73c0.31,0.8,0.56,1.61,0.87,2.42
				c0.63,1.68,1.21,3.37,1.81,5.05c0.83,2.32,1.72,4.63,2.49,6.95c0.59,1.76,1.06,3.52,1.61,5.27c0.66,2.11,1.31,4.21,1.93,6.32
				c0.39,1.32,0.85,2.65,1.21,3.97c0.64,2.31,1.11,4.61,1.7,6.92c0.65,2.59,1.33,5.18,1.91,7.77c0.21,0.93,0.49,1.87,0.69,2.81
				c0.4,1.89,0.61,3.75,0.97,5.63c0.78,4.05,1.5,8.1,2.07,12.12c0.16,1.12,0.44,2.26,0.58,3.37c0.33,2.51,0.49,4.98,0.74,7.48
				c0.18,1.82,0.4,3.65,0.54,5.46c0.42,5.67,0.69,11.3,0.67,16.84c-0.14,48.09-17.17,81.96-44.61,97.91l-12.42,7.22
				C327.39,373.22,344.43,339.35,344.56,291.26z"/>
		</g>
		<g>
			<path class="st9" d="M344.56,291.26c-0.28,96.79-69.03,135.98-153.27,87.35C107.11,330,38.79,211.68,39.07,114.89
				s69.04-135.92,153.22-87.32C276.53,76.2,344.84,194.46,344.56,291.26z M207.32,53.87c22.21,37.05,38.84,76.18,48.88,114.42
				c14.32-0.34,27.35-4.41,38.48-12.11C272.64,115.15,241.91,78.24,207.32,53.87L207.32,53.87z M172.94,349.69
				c-20.36-34.04-35.98-69.87-46.09-105.17c-13.02,0.38-24.92,3.87-35.31,10.31C112.69,292.62,141.11,326.45,172.94,349.69
				L172.94,349.69z M89.51,37.73c10.04,18.68,21.65,36.07,34.4,51.73c9.15-25.22,24.03-44.61,43.79-56.78
				C136.96,21.34,109.67,23.65,89.51,37.73L89.51,37.73z M291.42,370.22c-10.54-18.78-22.67-36.27-35.87-51.86
				c-9.31,23.77-23.8,42.22-42.99,53.74C243.35,384.38,270.81,383.13,291.42,370.22L291.42,370.22z M300.9,363.01
				c16.73-15.15,27.17-39.69,28.72-72.01l-62.45-36.06c-0.45,18.2-2.8,35.04-7.08,49.99C275.15,322.3,288.96,341.86,300.9,363.01
				L300.9,363.01z M82.12,236.69c11.75-7.08,25.23-10.69,39.94-10.82c-4.73-20.35-7.61-40.34-8.34-59.54L53.9,131.8
				C55.33,165.85,65.59,202.34,82.12,236.69L82.12,236.69z M303.92,174.66c-12.59,8.21-27.26,12.24-43.32,12.29
				c3.61,17.44,5.82,34.64,6.45,51.2l62.62,36.16C328.36,241.94,319.04,207.49,303.92,174.66L303.92,174.66z M80.24,45.52
				C64.98,60.8,55.5,84.41,53.95,115.12l59.64,34.43c0.44-16.65,2.46-32.13,6.1-46.09C105.09,85.98,91.74,66.47,80.24,45.52
				L80.24,45.52z M183.55,47.34c-21.5,11.03-37.34,30.77-46.49,57.28c14.5,15.56,30.13,28.99,46.22,39.45L183.55,47.34L183.55,47.34
				z M197.8,152.58c15.64,8.32,30.9,13.31,45.16,15.06c-9.14-35.46-24.43-71.81-44.9-106.1L197.8,152.58L197.8,152.58z
				 M197.21,357.15c20.44-10.48,35.82-28.87,45.13-53.41c-14.16-14.59-29.29-27.08-44.87-36.79L197.21,357.15L197.21,357.15z
				 M182.72,342.95l0.24-84.25c-14.85-7.47-29.33-12.08-42.91-13.63C149.36,277.91,163.81,311.25,182.72,342.95L182.72,342.95z
				 M183.1,206.4l-54.93-31.71c0.75,16.75,3.23,34.18,7.18,51.88c15.1,1.85,31.15,6.98,47.64,15.46L183.1,206.4L183.1,206.4z
				 M197.51,250.28c17.05,10.62,33.64,24.14,49.15,40.03c3.59-13.21,5.6-27.86,5.99-43.76l-55.03-31.78L197.51,250.28L197.51,250.28
				z M183.23,160.75c-17.44-11.17-34.42-25.58-50.22-42.27c-2.9,12.05-4.52,25.3-4.9,39.46l55.04,31.78L183.23,160.75L183.23,160.75
				z M197.66,198.09l54.92,31.71c-0.64-14.22-2.51-28.84-5.46-43.76c-15.61-2.01-32.27-7.69-49.38-16.79L197.66,198.09
				L197.66,198.09z"/>
		</g>
	</g>
</g>
</svg>
