<?xml version="1.0" encoding="utf-8"?>
<!-- Generator: Adobe Illustrator 23.0.1, SVG Export Plug-In . SVG Version: 6.00 Build 0)  -->
<svg version="1.1" id="Layer_1" xmlns="http://www.w3.org/2000/svg" xmlns:xlink="http://www.w3.org/1999/xlink" x="0px" y="0px"
	 viewBox="0 0 1899.5 349.3" style="enable-background:new 0 0 1899.5 349.3;" xml:space="preserve">
<style type="text/css">
	.st0{fill:none;}
	.st1{fill:#EB4736;}
	.st2{fill:#5B69B0;}
	.st3{fill:#7A5EA7;}
	.st4{fill:#E5B14E;}
	.st5{fill:#D4CC56;}
	.st6{fill:#554F9F;}
	.st7{fill:#DE5CA1;}
	.st8{fill:#66A2D7;}
	.st9{fill:#67B765;}
</style>
<g>
	<g>
		<path d="M524.9,126.7c6.1,0,11.3,5,11.3,11.1c0,6.3-5.2,11.3-11.3,11.3h-55.8v33.6h44.7c6.1,0,11.1,5,11.1,11.1
			c0,6.1-5,11.1-11.1,11.1h-44.7v44.9c0,6.1-5.2,11.1-11.3,11.1c-6.1,0-11.1-5-11.1-11.1v-112c0-6.1,5-11.1,11.1-11.1H524.9z"/>
		<path d="M570.9,133.8c1.7-4.2,5.9-7.1,10.4-7.1c4.6,0,8.8,2.9,10.5,7.1l44.7,111.8c0.6,1.3,0.8,2.7,0.8,4.2
			c0,5.6-4.6,11.1-11.1,11.1c-4.4,0-8.6-2.7-10.4-7.1l-8.4-20.9h-52l-8.4,20.9c-1.7,4.4-5.9,7.1-10.4,7.1c-6.7,0-11.1-5.4-11.1-11.1
			c0-1.3,0.2-2.9,0.8-4.2L570.9,133.8z M560.2,115.8c-0.8-1.5-1.1-3.3-1.1-5c0-4,2.1-7.9,6.1-10l22.4-11.3c1.5-0.8,3.1-1.2,4.8-1.2
			c4.2,0,8.2,2.3,10.2,6.1c0.8,1.5,1.2,3.3,1.2,5c0,4.2-2.3,8.2-6.1,10.2l-22.4,11.1c-1.5,0.8-3.3,1.2-5,1.2
			C566.1,121.9,562.1,119.6,560.2,115.8z M564.4,210.7h33.9l-17.1-42.8L564.4,210.7z"/>
		<path d="M742.2,219c0,25.9-21.3,42-39.3,42h-39.1c-6.1,0-11.1-5-11.1-11.1v-112c0-6.1,5-11.1,11.1-11.1h30.9c1,0,9.2,0.4,17.5,4.4
			c12.3,6.1,18.8,17.3,18.8,32c0,8.1-2.1,15.3-5.9,21.1C736,191.5,742.2,203.8,742.2,219z M675.1,177.1h16.7c2.9,0,16.9-0.6,16.9-14
			c0-12.9-8.8-14-12.5-14c-1,0-1.5,0-1.5,0h-19.6L675.1,177.1L675.1,177.1z M719.7,219c0-7.1-4.4-19.6-18.2-19.6h-26.5v39.1h26.5
			c0.2,0,5.4-0.2,10-2.7C719,231.6,719.7,224.1,719.7,219z"/>
		<path d="M842.5,243.9c1.2,1.9,1.7,3.8,1.7,5.9c0,3.6-1.9,7.3-5.4,9.4c-1.7,1.2-3.8,1.7-5.8,1.7c-3.8,0-7.5-1.9-9.6-5.2l-24.7-39.5
			H780v33.6c0,6.1-5.2,11.1-11.3,11.1c-6.1,0-11.1-5-11.1-11.1v-112c0-6.1,5-11.1,11.1-11.1h30.5c1.1,0,11.3,0.2,21.9,5.4
			c15,7.5,23.2,21.3,23.2,39.3c0,1.1-0.2,11.5-5.4,21.9c-4,7.9-9.8,13.8-16.9,17.6L842.5,243.9z M780,193.8h19.2
			c9.6,0,15.7-3.3,19.4-10.2c3.1-5.8,3.3-11.9,3.3-12.3c0-9.6-3.5-15.7-10.7-19.4c-5.8-2.9-11.9-2.9-11.9-2.9H780L780,193.8
			L780,193.8z"/>
		<path d="M859.6,249.8v-112c0-6.1,5-11.1,11.1-11.1c6.1,0,11.1,5,11.1,11.1v112c0,6.1-5,11.1-11.1,11.1
			C864.5,261,859.6,256,859.6,249.8z"/>
		<path d="M1000.9,237.8c2.9,5.4,0.8,12.1-4.6,15.2c-9.8,5.2-20.7,8.1-32,8.1c-37,0-67.1-30.1-67.1-67.1c0-37,30.1-67.1,67.1-67.1
			c11.3,0,22.3,2.9,32,8.1c5.4,3.1,7.5,9.8,4.6,15.2c-3.1,5.6-9.8,7.5-15.3,4.6c-6.3-3.6-13.8-5.4-21.3-5.4
			c-24.5,0-44.7,19.9-44.7,44.7c0,24.7,20.1,44.7,44.7,44.7c7.5,0,15-1.7,21.3-5.4C991.1,230.3,997.8,232.2,1000.9,237.8z"/>
		<path d="M1128.7,245.6c0.6,1.3,0.8,2.9,0.8,4.2c0,5.8-4.4,11.1-11.1,11.1c-4.4,0-8.6-2.7-10.4-7.1l-8.4-20.9h-52l-8.4,20.9
			c-1.7,4.4-5.9,7.1-10.4,7.1c-6.5,0-11.1-5.6-11.1-11.1c0-1.5,0.2-2.9,0.8-4.2l44.7-111.8c1.7-4.2,5.9-7.1,10.6-7.1
			c4.4,0,8.6,2.9,10.4,7.1L1128.7,245.6z M1090.5,210.7l-16.9-42.8l-17.1,42.8H1090.5z"/>
	</g>
	<g>
		<path d="M1172.5,261c-2.1,0-3.8-0.8-5.4-2.3c-1.5-1.5-2.3-3.3-2.3-5.4V134.4c0-2,0.8-3.8,2.3-5.4c1.5-1.5,3.3-2.3,5.4-2.3h34.5
			c0.1,0,1.6,0.1,4.5,0.3c2.9,0.2,6.4,0.9,10.6,2.1c4.2,1.2,8.8,3.2,13.6,5.9c4.9,2.7,9.3,6.5,13.4,11.5c4.1,5,7.5,11.3,10.3,19
			c2.7,7.7,4.1,17.1,4.1,28.4c0,11.3-1.4,20.7-4.1,28.4c-2.8,7.7-6.2,14-10.3,19c-4.1,5-8.6,8.8-13.4,11.5
			c-4.9,2.7-9.4,4.6-13.6,5.8c-4.2,1.2-7.8,1.9-10.6,2.1c-2.9,0.2-4.4,0.3-4.5,0.3H1172.5z M1180.7,245.2h26.3c0.3,0,1-0.1,2.3-0.2
			c1.3-0.1,2.9-0.4,4.8-0.9c1.9-0.4,4.1-1.2,6.5-2.1c2.4-1,4.9-2.2,7.5-3.7c6.3-4.2,11.1-10.1,14.6-17.6c3.5-7.5,5.2-16.5,5.2-26.9
			c0-10.7-1.8-19.9-5.4-27.4c-3.6-7.5-8.7-13.4-15.3-17.6c-2.3-1.5-4.7-2.7-7.1-3.5c-2.4-0.8-4.6-1.4-6.5-1.8
			c-1.9-0.4-4.1-0.7-6.5-1h-26.3L1180.7,245.2L1180.7,245.2z"/>
		<path d="M1359.9,247.5c1.5,1.5,2.3,3.5,2.3,5.8c0,2-0.8,3.8-2.3,5.4c-1.5,1.5-3.4,2.3-5.6,2.3h-65.2c-2.2,0-4-0.8-5.6-2.3
			c-1.5-1.5-2.3-3.3-2.3-5.4V134.4c0-2,0.8-3.8,2.3-5.4c1.5-1.5,3.4-2.3,5.6-2.3h65.2c2.2,0,4,0.8,5.6,2.3c1.5,1.5,2.3,3.3,2.3,5.4
			c0,2.3-0.8,4.2-2.3,5.8s-3.4,2.3-5.6,2.3h-57.4v43.7h45.5c2.2,0,4,0.7,5.5,2.2c1.5,1.5,2.2,3.3,2.2,5.5c0,2.2-0.7,4-2.2,5.5
			c-1.5,1.5-3.3,2.2-5.5,2.2h-45.5v43.7h57.4C1356.5,245.2,1358.3,246,1359.9,247.5z"/>
	</g>
	<g>
		<path d="M1403.1,249.8v-112c0-6.1,5-11.1,11.1-11.1c6.1,0,11.1,5,11.1,11.1v112c0,6.1-5,11.1-11.1,11.1
			C1408.1,261,1403.1,256,1403.1,249.8z"/>
		<path d="M1451.9,261c-6.1,0-11.1-5-11.1-11.1v-112c0-6.1,5-11.1,11.1-11.1h32.6c0.8,0,57-0.2,57,67.1c0,67.3-56.2,67.1-57,67.1
			H1451.9z M1463.2,238.5h21.3c0.6,0,9.2-0.2,17.8-5.8c11.1-7.1,16.7-20.3,16.7-38.9c0-19-5.8-32.2-17.5-39.3
			c-8.4-5.2-16.9-5.4-17.1-5.4h-21.3V238.5z"/>
		<path d="M1640.8,249.8c0,6.1-5,11.1-11.3,11.1h-61.4c-6.3,0-11.3-5-11.3-11.1v-112c0-6.1,5-11.1,11.3-11.1h61.4
			c6.3,0,11.3,5,11.3,11.1c0,6.3-5,11.3-11.3,11.3h-50.3v33.6h39.1c6.1,0,11.1,5,11.1,11.1c0,6.1-5,11.1-11.1,11.1h-39.1v33.6h50.3
			C1635.8,238.5,1640.8,243.5,1640.8,249.8z"/>
		<path d="M1656.1,249.8v-112c0-6.1,5-11.1,11.1-11.1s11.1,5,11.1,11.1v112c0,6.1-5,11.1-11.1,11.1S1656.1,256,1656.1,249.8z"/>
		<path d="M1804.8,245.6c0.6,1.3,0.8,2.9,0.8,4.2c0,5.8-4.4,11.1-11.1,11.1c-4.4,0-8.6-2.7-10.4-7.1l-8.4-20.9h-52l-8.4,20.9
			c-1.7,4.4-5.9,7.1-10.4,7.1c-6.5,0-11.1-5.6-11.1-11.1c0-1.5,0.2-2.9,0.8-4.2l44.7-111.8c1.7-4.2,5.9-7.1,10.6-7.1
			c4.4,0,8.6,2.9,10.4,7.1L1804.8,245.6z M1766.6,210.7l-16.9-42.8l-17.1,42.8H1766.6z"/>
		<path d="M1899.5,216.3v1.9c0,11.1-4.4,21.7-12.1,29.3c-8.4,8.4-19.9,13-32.6,13h-1.5c-16.3-0.6-30.5-9.8-37.2-24.2
			c-0.8-1.5-1-3.3-1-4.8c0-4.2,2.3-8.2,6.5-10.2c1.5-0.8,3.1-1,4.6-1c4.2,0,8.4,2.3,10.4,6.5c3.1,6.7,9.6,10.9,17.5,11.1h1
			c6.7,0,12.3-2.1,16.3-6.1c3.8-3.8,5.9-8.6,5.9-13.8v-0.8c-0.6-8.8-17.3-16.7-24.6-18.8l-0.8-0.4c-19.8-7.1-29.7-19.6-29.7-36.8
			v-1.5c0.4-9.8,4.8-18.6,13-24.7c6.9-5.4,16.3-8.6,26.3-8.6h1.7c8.1,0.2,16.3,3.5,23,8.4c2.9,2.3,4.4,5.6,4.4,8.8
			c0,2.3-0.8,4.8-2.3,6.7c-2.3,2.9-5.6,4.4-9,4.4c-2.3,0-4.6-0.6-6.7-2.1c-2.9-2.3-6.7-3.6-10.2-3.8h-1.2c-9.4,0-16.7,4.8-16.9,11.7
			v0.8c0,9.4,7.3,12.9,14.8,15.9C1865,179.1,1898.4,189.8,1899.5,216.3z"/>
	</g>
</g>
<g>
	<g>
		<path class="st0" d="M175.3,251.1c0-0.1,0-0.1,0-0.2c0-24.8,0-49.5,0-74.3c0,24.8,0,49.6,0,74.3C175.3,251,175.3,251,175.3,251.1z
			"/>
		<path class="st1" d="M349.6,272.3c0,1-0.1,2-0.1,3c-0.1,0.1-0.3,0.2-0.5,0.3c-27.3,23.1-54.5,46.1-81.8,69.3
			c-1.7,1.4-3.7,2.6-4.9,4.5h-0.5c0-1.3-0.1-2.5-0.1-3.8c0-54.7,0-109.4,0-164.1c0-1.1,0-2.2-0.1-3.2c0.1-0.2,0.2-0.5,0.3-0.7
			c9.4-7.5,18.7-15,28.1-22.5c8.6-6.9,17.1-13.9,25.7-20.7c4.5-3.6,9.3-5.3,14.3-5.3c3.4,0,7,0.8,10.6,2.5c5.9,2.7,9,7.3,9,14.1
			C349.6,187.9,349.6,230.1,349.6,272.3z"/>
		<path class="st2" d="M175.9,251.9c-0.1,0-0.7-50.6-0.7-75.3C175.1,176.2,0.8,321.9,0.5,322.7c0,4,0,7.9,0.1,11.9
			c1.6,7.5,6.6,12.6,13.8,14.5c1.2,0.3,31.4,0.1,45.3,0.1C62.5,345.6,175.9,251.9,175.9,251.9z"/>
		<path class="st3" d="M261.8,181.4c0-1.1,0-2.2-0.1-3.2c-9.2,7.8-18.5,15.5-27.7,23.3c-12.4,10.5-24.9,21-37.3,31.5
			c-6.5,5.5-12.9,10.9-19.3,16.4c-0.7,0.6-1.3,1.3-2.2,1.5c0,0.1,0,0.1,0,0.2c0,0.1,0,0.2,0,0.3c0,32.6,0,65.3,0,97.9
			c28.9,0,57.8,0,86.6,0c0-1.3-0.1-2.5-0.1-3.8C261.8,290.8,261.8,236.1,261.8,181.4z"/>
		<path class="st4" d="M88,177.7c0,0.2-87.5,73.3-87.6,73.4c0-5.4,0.4-136.7,0.4-145.9v-0.4c1.6-8.1,8.4-13.7,17.9-13.9
			c7.8-0.1,15.7-0.2,23.5-0.2c9.3,0,18.6,0.1,27.9,0.2c4.6,0,8.8,1.7,12.4,4.7c3.8,3.2,5.5,7.2,5.5,12.1c0,3.6-0.2,7.2-0.2,10.8
			C87.7,137.6,87.9,177.1,88,177.7z"/>
		<path class="st4" d="M1,249.7c1.1-0.8,2.3-1.6,3.4-2.5c-1.2,1-2.4,1.9-3.6,2.7c-0.1,0.1-0.3,0.2-0.4,0.3c0.1-0.1,0.3-0.2,0.4-0.3
			C0.8,249.8,0.9,249.8,1,249.7z"/>
		<path class="st5" d="M87.9,248.9c-11.5,9.8-86.6,73.3-87,74.2H0.8c0,0,0,0,0,0c0,0,0,0,0,0c0,0-0.1,0-0.1,0H0.6c0,0-0.1,0-0.1,0
			c0,0,0,0,0,0c0,0,0,0,0,0v-72.6c0.1-0.1,86.2-72.8,87.3-73.1C87.8,195.9,87.8,244.2,87.9,248.9z"/>
		<path class="st6" d="M59.9,349.3c38.4,0,76.9,0,115.3,0c0-32.6,0-65.3,0-97.9C170.4,255.4,62.8,345.7,59.9,349.3z"/>
		<path class="st7" d="M349.7,332.7c0,9.8-10.6,16.6-20.7,16.6h-66.5c1.2-2,3.2-3.1,4.9-4.5c27.2-23.1,54.5-46.2,81.8-69.3
			c0.1-0.1,0.3-0.2,0.5-0.3C349.6,288,349.7,313.7,349.7,332.7z"/>
		<path class="st8" d="M177.5,249.4c6.4-5.5,12.9-11,19.3-16.4c12.4-10.5,24.9-21,37.3-31.5c9.2-7.8,18.4-15.5,27.7-23.3
			c0.1-0.2,0.2-0.4,0.3-0.7c0-1-0.1-2-0.1-3c0-9.8,0-19.6,0.1-29.5c0-4-1.3-7.5-4.3-10.1c-4.2-3.8-9.7-5.7-15.3-5.7
			c-5,0-10,1.6-14.1,4.8c-8.5,6.8-17,13.7-25.5,20.5c-9.2,7.4-18.4,14.7-27.6,22.1c0,24.8,0,49.6,0,74.3
			C176.2,250.7,176.8,250,177.5,249.4z"/>
		<path class="st9" d="M175.3,176.6c-9.4,7.9-86.9,71.9-87.4,72.3c0-4.7,0.1-71.9,0.1-72c10.9-8.7,21.8-17.4,32.7-26.2
			c6.9-5.5,13.8-11.1,20.7-16.6c4-3.2,9.1-4.8,14.1-4.8c4.7,0,9.5,1.4,13.4,4.2c3.2,2.3,5.7,5.4,5.7,9.4
			C174.6,154.2,175,165.7,175.3,176.6z"/>
	</g>
	<g>
		<path class="st4" d="M70.8,0H17.2C7.7,0,0,7.7,0,17.2v39.3C0,66,7.7,73.7,17.2,73.7h53.6C80.3,73.7,88,66,88,56.5V17.2
			C88,7.7,80.3,0,70.8,0z"/>
	</g>
</g>
</svg>
