<?xml version="1.0" encoding="utf-8"?>
<!-- Generator: Adobe Illustrator 23.0.1, SVG Export Plug-In . SVG Version: 6.00 Build 0)  -->
<svg version="1.1" xmlns="http://www.w3.org/2000/svg" xmlns:xlink="http://www.w3.org/1999/xlink" x="0px" y="0px"
	 viewBox="0 0 500 500" style="enable-background:new 0 0 500 500;" xml:space="preserve">
<style type="text/css">
	.st0{fill:#FFFFFF;}
	.st1{fill:#D1E7F4;}
	.st2{enable-background:new    ;}
	.st3{fill:#FAC947;}
	.st4{fill:#FFDF55;}
	.st5{fill:#F4A242;}
	.st6{fill:#DDBE90;}
	.st7{fill:#F4E9B8;}
	.st8{fill:#C7A37E;}
	.st9{fill:#1F94E3;}
	.st10{fill:#64C2FF;}
	.st11{fill:#006CB5;}
	.st12{fill:#D02C5F;}
	.st13{fill:#EE4A7C;}
	.st14{fill:#B01D47;}
	.st15{fill:#EDDAA4;}
	.st16{fill:#ED497C;}
	.st17{fill:#7F6BAF;}
	.st18{fill:#463A64;}
	.st19{fill:#685890;}
	.st20{fill:#937FD7;}
	.st21{fill:#E0BD98;}
	.st22{fill:#FEFAEF;}
	.st23{fill:#9B9074;}
	.st24{fill:#C8BB99;}
	.st25{fill:#AEA898;}
	.st26{fill:#C5B794;}
	.st27{fill:#DBD4C4;}
	.st28{fill:#F68D70;}
	.st29{fill:#DEDFE0;}
	.st30{fill:#464546;}
	.st31{fill:#7C4640;}
	.st32{fill:#FBB382;}
	.st33{fill:#2A2C2D;}
	.st34{fill:#FFF3DC;}
	.st35{fill:#DEBC90;}
	.st36{fill:#142038;}
	.st37{fill:#27354C;}
	.st38{fill:#31415B;}
	.st39{fill:#AEA17F;}
	.st40{fill:#D8D0B9;}
	.st41{fill:#C8C4B9;}
	.st42{fill:#C9C19D;}
	.st43{fill:#AA9F81;}
	.st44{fill:#DBCF97;}
	.st45{fill:#C4A373;}
	.st46{fill:#AE8963;}
	.st47{fill:#A87E62;}
	.st48{fill:#C1987D;}
	.st49{fill:#1B1B1D;}
	.st50{fill:#1C1C20;}
	.st51{fill:#2C2C32;}
	.st52{fill:#FFE64C;}
	.st53{fill:#B52D24;}
	.st54{fill:#E14637;}
	.st55{fill:#B1CEDC;}
	.st56{fill:#9F4A41;}
	.st57{fill:#1C99AD;}
	.st58{fill:#282A2A;}
</style>
<g id="objects">
	<polygon class="st1" points="394.84,366.21 251.12,450 142.26,387.47 285.98,303.67 	"/>
	<g class="st2">
		<g>
			<g>
				<g>
					<polygon class="st3" points="402.38,272.71 410.05,268.22 410.49,106.17 402.81,110.67 					"/>
				</g>
			</g>
		</g>
		<g>
			<g>
				<polygon class="st4" points="402.81,110.67 410.49,106.17 313.12,50 305.45,54.49 				"/>
			</g>
		</g>
		<g>
			<g>
				<g>
					<polygon class="st5" points="305.45,54.49 305.01,216.54 402.38,272.71 402.81,110.67 					"/>
				</g>
			</g>
		</g>
	</g>
	<g class="st2">
		<g>
			<polygon class="st6" points="375.26,288.41 398.78,274.8 399.21,115.77 375.7,129.38 			"/>
		</g>
		<g>
			<polygon class="st7" points="375.7,129.38 399.21,115.77 309.39,63.91 285.88,77.52 			"/>
		</g>
		<g>
			<polygon class="st8" points="285.88,77.52 285.44,236.55 375.26,288.41 375.7,129.38 			"/>
		</g>
	</g>
	<g class="st2">
		<g>
			<g>
				<g>
					<polygon class="st3" points="367.59,292.9 375.26,288.41 375.7,126.36 368.03,130.86 					"/>
				</g>
			</g>
		</g>
		<g>
			<g>
				<polygon class="st4" points="368.03,130.86 375.7,126.36 278.33,70.19 270.66,74.69 				"/>
			</g>
		</g>
		<g>
			<g>
				<g>
					<polygon class="st5" points="270.66,74.69 270.22,236.73 367.59,292.9 368.03,130.86 					"/>
				</g>
			</g>
		</g>
	</g>
	<g class="st2">
		<polygon class="st3" points="381.32,293.97 412.41,275.78 412.84,113.75 381.76,131.94 		"/>
		<polygon class="st4" points="406.39,164.54 406.79,129.52 387.78,140.69 387.38,175.71 		"/>
		<polygon class="st4" points="381.76,131.94 412.84,113.75 405.17,109.12 374.08,127.31 		"/>
		<g>
			<g>
				<polygon class="st5" points="374.08,127.31 373.65,289.34 381.32,293.97 381.76,131.94 				"/>
			</g>
		</g>
	</g>
	<g class="st2">
		<polygon class="st9" points="231.45,266.04 262.61,247.47 263.04,85.44 231.88,104.01 		"/>
		<polygon class="st10" points="231.88,104.01 263.04,85.44 255.37,80.81 224.21,99.38 		"/>
		<g>
			<g>
				<polygon class="st11" points="224.21,99.38 223.77,261.41 231.45,266.04 231.88,104.01 				"/>
			</g>
		</g>
	</g>
	<g class="st2">
		<g>
			<g>
				<g>
					<polygon class="st9" points="354.42,306.91 362.1,302.41 362.53,140.37 354.86,144.86 					"/>
				</g>
			</g>
		</g>
		<g>
			<g>
				<polygon class="st10" points="354.86,144.86 362.53,140.37 265.17,84.2 257.5,88.69 				"/>
			</g>
		</g>
		<g>
			<g>
				<g>
					<polygon class="st11" points="257.5,88.69 257.06,250.73 354.42,306.91 354.86,144.86 					"/>
				</g>
			</g>
		</g>
	</g>
	<g class="st2">
		<g>
			<polygon class="st6" points="319.56,318.22 346.91,302.37 347.35,147.08 320,162.93 			"/>
		</g>
		<g>
			<polygon class="st7" points="320,162.93 347.35,147.08 257.53,95.22 230.18,111.07 			"/>
		</g>
		<g>
			<polygon class="st8" points="230.18,111.07 229.74,266.36 319.56,318.22 320,162.93 			"/>
		</g>
	</g>
	<g class="st2">
		<g>
			<g>
				<g>
					<polygon class="st9" points="326.12,323.72 333.79,319.22 334.23,157.18 326.56,161.67 					"/>
				</g>
			</g>
		</g>
		<g>
			<g>
				<polygon class="st10" points="326.56,161.67 334.23,157.18 236.86,101.01 229.19,105.5 				"/>
			</g>
		</g>
		<g>
			<g>
				<g>
					<polygon class="st11" points="229.19,105.5 228.75,267.55 326.12,323.72 326.56,161.67 					"/>
				</g>
			</g>
		</g>
	</g>
	<g class="st2">
		<g>
			<polygon class="st12" points="302.74,328.9 310.41,324.4 310.85,162.36 303.18,166.85 			"/>
		</g>
		<g>
			<polygon class="st13" points="303.18,166.85 310.85,162.36 213.48,106.19 205.81,110.68 			"/>
		</g>
		<g>
			<g>
				<g>
					<polygon class="st14" points="205.81,110.68 205.37,272.73 302.74,328.9 303.18,166.85 					"/>
				</g>
			</g>
		</g>
	</g>
	<g class="st2">
		<g>
			<polygon class="st6" points="268.29,348.92 302.82,328.85 303.26,169.83 268.73,189.89 			"/>
		</g>
		<g>
			<polygon class="st7" points="268.73,189.89 303.26,169.83 213.44,117.97 178.91,138.03 			"/>
		</g>
		<g>
			<polygon class="st8" points="178.91,138.03 178.48,297.06 268.29,348.92 268.73,189.89 			"/>
		</g>
		<g>
			<g>
				<polygon class="st15" points="299.06,172.26 301.84,170.63 212.02,118.77 209.24,120.41 				"/>
			</g>
			<g>
				<polygon class="st15" points="293.33,175.57 296.12,173.94 206.3,122.08 203.51,123.72 				"/>
			</g>
			<g>
				<polygon class="st15" points="287.61,178.88 290.39,177.25 200.57,125.39 197.79,127.03 				"/>
			</g>
			<g>
				<polygon class="st15" points="281.88,182.19 284.67,180.56 194.85,128.7 192.06,130.34 				"/>
			</g>
			<g>
				<polygon class="st15" points="276.16,185.5 278.94,183.87 189.12,132.01 186.34,133.65 				"/>
			</g>
			<g>
				<polygon class="st15" points="270.43,188.82 273.22,187.18 183.4,135.32 180.61,136.96 				"/>
			</g>
		</g>
	</g>
	<g class="st2">
		<g>
			<polygon class="st12" points="260.62,353.41 268.29,348.92 268.73,186.87 261.06,191.37 			"/>
		</g>
		<g>
			<polygon class="st13" points="261.06,191.37 268.73,186.87 171.37,130.7 163.69,135.2 			"/>
		</g>
		<g>
			<g>
				<g>
					<polygon class="st14" points="163.69,135.2 163.26,297.24 260.62,353.41 261.06,191.37 					"/>
				</g>
			</g>
		</g>
	</g>
	<g class="st2">
		<polygon class="st12" points="274.35,354.48 313.12,331.95 313.56,169.92 274.79,192.45 		"/>
		<polygon class="st16" points="307.1,220.71 307.5,185.69 280.81,201.2 280.41,236.22 		"/>
		<polygon class="st13" points="274.79,192.45 313.56,169.92 305.88,165.29 267.12,187.82 		"/>
		<g>
			<g>
				<polygon class="st14" points="267.12,187.82 266.68,349.85 274.35,354.48 274.79,192.45 				"/>
			</g>
		</g>
	</g>
	<polygon class="st1" points="263.87,358.36 156.02,421.04 47.16,358.51 155.01,295.83 	"/>
	<polygon class="st17" points="82.15,313.87 82.15,316.94 190.01,379.58 190,376.55 	"/>
	<polygon class="st17" points="190.07,397.7 82.15,335.03 82.15,338.09 190.08,400.77 	"/>
	<polygon class="st18" points="82.15,335.03 190.07,397.7 190.01,379.6 97.76,326.03 	"/>
	<polygon class="st19" points="190,376.55 190.07,400.77 270.81,354.16 270.74,329.94 	"/>
	<polygon class="st18" points="268.16,352.63 268.1,334.52 190.01,379.59 190.06,397.7 	"/>
	<polygon class="st7" points="190.01,379.58 190.05,393.01 265.18,349.65 265.14,336.22 	"/>
	<g>
		<polygon class="st20" points="82.15,313.87 190,376.55 270.74,329.94 162.89,267.26 		"/>
	</g>
	<polygon class="st21" points="86.78,319.64 86.82,333.03 190.05,393 190.01,379.58 	"/>
	<g>
		<polygon class="st19" points="149.84,274.8 257.69,337.47 261.77,335.18 153.86,272.47 		"/>
	</g>
	<polygon class="st17" points="452.84,311.45 452.84,314.13 358.48,368.93 358.49,366.28 	"/>
	<polygon class="st17" points="358.43,384.78 452.84,329.96 452.84,332.63 358.42,387.47 	"/>
	<polygon class="st18" points="452.84,329.96 358.43,384.78 358.48,368.94 439.18,322.08 	"/>
	<polygon class="st19" points="358.49,366.28 358.43,387.47 287.8,346.69 287.86,325.5 	"/>
	<polygon class="st18" points="290.12,345.36 290.16,329.51 358.48,368.93 358.43,384.78 	"/>
	<polygon class="st7" points="358.48,368.93 358.44,380.68 292.72,342.75 292.75,331 	"/>
	<g>
		<polygon class="st20" points="287.86,325.5 295.44,329.87 348.06,360.26 358.48,366.28 452.84,311.44 382.21,270.67 		"/>
	</g>
	<polygon class="st21" points="448.79,316.49 448.76,328.2 358.44,380.67 358.48,368.93 	"/>
	<g>
		<polygon class="st19" points="393.62,277.26 299.27,332.09 295.7,330.09 390.1,275.23 		"/>
	</g>
	<polygon class="st17" points="295.44,329.87 348.06,360.26 373.02,345.7 320.69,315.15 	"/>
	<g>
		<path class="st22" d="M144.35,294.66l39.96,23.22l27.63-15.95l-39.96-23.22L144.35,294.66z"/>
		<g>
			<g>
				<g>
					<polygon class="st23" points="144.35,294.66 144.35,297.2 184.32,320.42 184.31,317.89 					"/>
				</g>
			</g>
		</g>
		<g>
			<g>
				<g>
					<polygon class="st24" points="184.31,317.89 184.32,320.42 211.95,304.47 211.94,301.94 					"/>
				</g>
			</g>
		</g>
		<g>
			<g>
				<polygon class="st25" points="152.1,294.98 153.82,295.97 174.21,284.2 172.49,283.21 				"/>
			</g>
		</g>
		<g>
			<g>
				<polygon class="st25" points="155.85,297.15 157.56,298.15 177.95,286.38 176.24,285.38 				"/>
			</g>
		</g>
		<g>
			<g>
				<polygon class="st25" points="159.6,299.33 161.31,300.33 181.7,288.56 179.99,287.56 				"/>
			</g>
		</g>
		<g>
			<g>
				<polygon class="st25" points="163.35,301.51 165.06,302.5 185.44,290.73 183.73,289.74 				"/>
			</g>
		</g>
		<g>
			<g>
				<polygon class="st25" points="170.84,305.86 172.55,306.86 192.94,295.09 191.23,294.09 				"/>
			</g>
		</g>
		<g>
			<g>
				<polygon class="st25" points="178.34,310.22 180.05,311.22 200.43,299.44 198.72,298.45 				"/>
			</g>
		</g>
		<g>
			<g>
				<polygon class="st25" points="167.09,303.69 168.81,304.68 189.19,292.91 187.48,291.92 				"/>
			</g>
		</g>
		<g>
			<g>
				<polygon class="st25" points="174.59,308.04 176.3,309.04 196.69,297.27 194.98,296.27 				"/>
			</g>
		</g>
		<g>
			<g>
				<polygon class="st25" points="182.08,312.4 183.79,313.39 204.18,301.62 202.47,300.63 				"/>
			</g>
		</g>
	</g>
	<g>
		<path class="st22" d="M144.35,292.13l39.96,23.22l27.63-15.95l-39.96-23.22L144.35,292.13z"/>
		<g>
			<g>
				<polygon class="st26" points="144.35,292.13 144.35,294.66 184.32,317.89 184.31,315.35 				"/>
			</g>
		</g>
		<g>
			<g>
				<polygon class="st27" points="184.31,315.35 184.32,317.89 211.95,301.93 211.94,299.4 				"/>
			</g>
		</g>
		<g>
			<g>
				<polygon class="st25" points="152.1,292.44 153.82,293.44 174.21,281.67 172.49,280.67 				"/>
			</g>
		</g>
		<g>
			<g>
				<polygon class="st25" points="155.85,294.62 157.56,295.62 177.95,283.84 176.24,282.85 				"/>
			</g>
		</g>
		<g>
			<g>
				<polygon class="st25" points="159.6,296.8 161.31,297.79 181.7,286.02 179.99,285.03 				"/>
			</g>
		</g>
		<g>
			<g>
				<polygon class="st25" points="163.35,298.98 165.06,299.97 185.44,288.2 183.73,287.21 				"/>
			</g>
		</g>
		<g>
			<g>
				<polygon class="st25" points="170.84,303.33 172.55,304.33 192.94,292.56 191.23,291.56 				"/>
			</g>
		</g>
		<g>
			<g>
				<polygon class="st25" points="178.34,307.69 180.05,308.68 200.43,296.91 198.72,295.92 				"/>
			</g>
		</g>
		<g>
			<g>
				<polygon class="st25" points="167.09,301.15 168.81,302.15 189.19,290.38 187.48,289.38 				"/>
			</g>
		</g>
		<g>
			<g>
				<polygon class="st25" points="174.59,305.51 176.3,306.5 196.69,294.73 194.98,293.74 				"/>
			</g>
		</g>
		<g>
			<g>
				<polygon class="st25" points="182.08,309.86 183.79,310.86 204.18,299.09 202.47,298.09 				"/>
			</g>
		</g>
	</g>
	<g>
		<path class="st22" d="M144.35,289.6l39.96,23.22l27.63-15.95l-39.96-23.22L144.35,289.6z"/>
		<g>
			<g>
				<g>
					<polygon class="st23" points="144.35,289.6 144.35,292.13 184.32,315.35 184.31,312.82 					"/>
				</g>
			</g>
		</g>
		<g>
			<g>
				<g>
					<polygon class="st24" points="184.31,312.82 184.32,315.35 211.95,299.4 211.94,296.87 					"/>
				</g>
			</g>
		</g>
		<g>
			<g>
				<polygon class="st25" points="152.1,289.91 153.82,290.91 174.21,279.14 172.49,278.14 				"/>
			</g>
		</g>
		<g>
			<g>
				<polygon class="st25" points="155.85,292.09 157.56,293.08 177.95,281.31 176.24,280.32 				"/>
			</g>
		</g>
		<g>
			<g>
				<polygon class="st25" points="159.6,294.27 161.31,295.26 181.7,283.49 179.99,282.5 				"/>
			</g>
		</g>
		<g>
			<g>
				<polygon class="st25" points="163.35,296.44 165.06,297.44 185.44,285.67 183.73,284.67 				"/>
			</g>
		</g>
		<g>
			<g>
				<polygon class="st25" points="170.84,300.8 172.55,301.79 192.94,290.02 191.23,289.03 				"/>
			</g>
		</g>
		<g>
			<g>
				<polygon class="st25" points="178.34,305.15 180.05,306.15 200.43,294.38 198.72,293.38 				"/>
			</g>
		</g>
		<g>
			<g>
				<polygon class="st25" points="167.09,298.62 168.81,299.62 189.19,287.85 187.48,286.85 				"/>
			</g>
		</g>
		<g>
			<g>
				<polygon class="st25" points="174.59,302.98 176.3,303.97 196.69,292.2 194.98,291.21 				"/>
			</g>
		</g>
		<g>
			<g>
				<polygon class="st25" points="182.08,307.33 183.79,308.33 204.18,296.56 202.47,295.56 				"/>
			</g>
		</g>
	</g>
	<g>
		<path class="st22" d="M144.35,287.06l39.96,23.22l27.63-15.95l-39.96-23.22L144.35,287.06z"/>
		<g>
			<g>
				<polygon class="st26" points="144.35,287.06 144.35,289.6 184.32,312.82 184.31,310.29 				"/>
			</g>
		</g>
		<g>
			<g>
				<polygon class="st27" points="184.31,310.29 184.32,312.82 211.95,296.87 211.94,294.34 				"/>
			</g>
		</g>
		<g>
			<g>
				<polygon class="st25" points="152.1,287.38 153.82,288.37 174.21,276.6 172.49,275.61 				"/>
			</g>
		</g>
		<g>
			<g>
				<polygon class="st25" points="155.85,289.55 157.56,290.55 177.95,278.78 176.24,277.78 				"/>
			</g>
		</g>
		<g>
			<g>
				<polygon class="st25" points="159.6,291.73 161.31,292.73 181.7,280.96 179.99,279.96 				"/>
			</g>
		</g>
		<g>
			<g>
				<polygon class="st25" points="163.35,293.91 165.06,294.9 185.44,283.13 183.73,282.14 				"/>
			</g>
		</g>
		<g>
			<g>
				<polygon class="st25" points="170.84,298.26 172.55,299.26 192.94,287.49 191.23,286.49 				"/>
			</g>
		</g>
		<g>
			<g>
				<polygon class="st25" points="178.34,302.62 180.05,303.62 200.43,291.84 198.72,290.85 				"/>
			</g>
		</g>
		<g>
			<g>
				<polygon class="st25" points="167.09,296.09 168.81,297.08 189.19,285.31 187.48,284.32 				"/>
			</g>
		</g>
		<g>
			<g>
				<polygon class="st25" points="174.59,300.44 176.3,301.44 196.69,289.67 194.98,288.67 				"/>
			</g>
		</g>
		<g>
			<g>
				<polygon class="st25" points="182.08,304.8 183.79,305.79 204.18,294.02 202.47,293.03 				"/>
			</g>
		</g>
	</g>
	<g>
		<path class="st22" d="M144.35,284.53l39.96,23.22l27.63-15.95l-39.96-23.22L144.35,284.53z"/>
		<g>
			<g>
				<g>
					<polygon class="st23" points="144.35,284.53 144.35,287.06 184.32,310.29 184.31,307.75 					"/>
				</g>
			</g>
		</g>
		<g>
			<g>
				<g>
					<polygon class="st24" points="184.31,307.75 184.32,310.29 211.95,294.34 211.94,291.8 					"/>
				</g>
			</g>
		</g>
		<g>
			<g>
				<polygon class="st25" points="152.1,284.84 153.82,285.84 174.21,274.07 172.49,273.07 				"/>
			</g>
		</g>
		<g>
			<g>
				<polygon class="st25" points="155.85,287.02 157.56,288.02 177.95,276.25 176.24,275.25 				"/>
			</g>
		</g>
		<g>
			<g>
				<polygon class="st25" points="159.6,289.2 161.31,290.19 181.7,278.42 179.99,277.43 				"/>
			</g>
		</g>
		<g>
			<g>
				<polygon class="st25" points="163.35,291.38 165.06,292.37 185.44,280.6 183.73,279.61 				"/>
			</g>
		</g>
		<g>
			<g>
				<polygon class="st25" points="170.84,295.73 172.55,296.73 192.94,284.96 191.23,283.96 				"/>
			</g>
		</g>
		<g>
			<g>
				<polygon class="st25" points="178.34,300.09 180.05,301.08 200.43,289.31 198.72,288.32 				"/>
			</g>
		</g>
		<g>
			<g>
				<polygon class="st25" points="167.09,293.55 168.81,294.55 189.19,282.78 187.48,281.78 				"/>
			</g>
		</g>
		<g>
			<g>
				<polygon class="st25" points="174.59,297.91 176.3,298.9 196.69,287.13 194.98,286.14 				"/>
			</g>
		</g>
		<g>
			<g>
				<polygon class="st25" points="182.08,302.27 183.79,303.26 204.18,291.49 202.47,290.5 				"/>
			</g>
		</g>
	</g>
	<g>
		<path class="st22" d="M144.35,282l39.96,23.22l27.63-15.95l-39.96-23.22L144.35,282z"/>
		<g>
			<g>
				<polygon class="st26" points="144.35,282 144.35,284.53 184.32,307.75 184.31,305.22 				"/>
			</g>
		</g>
		<g>
			<g>
				<polygon class="st27" points="184.31,305.22 184.32,307.75 211.95,291.8 211.94,289.27 				"/>
			</g>
		</g>
		<g>
			<g>
				<polygon class="st25" points="152.1,282.31 153.82,283.31 174.21,271.54 172.49,270.54 				"/>
			</g>
		</g>
		<g>
			<g>
				<polygon class="st25" points="155.85,284.49 157.56,285.48 177.95,273.71 176.24,272.72 				"/>
			</g>
		</g>
		<g>
			<g>
				<polygon class="st25" points="159.6,286.67 161.31,287.66 181.7,275.89 179.99,274.9 				"/>
			</g>
		</g>
		<g>
			<g>
				<polygon class="st25" points="163.35,288.84 165.06,289.84 185.44,278.07 183.73,277.07 				"/>
			</g>
		</g>
		<g>
			<g>
				<polygon class="st25" points="170.84,293.2 172.55,294.19 192.94,282.42 191.23,281.43 				"/>
			</g>
		</g>
		<g>
			<g>
				<polygon class="st25" points="178.34,297.55 180.05,298.55 200.43,286.78 198.72,285.78 				"/>
			</g>
		</g>
		<g>
			<g>
				<polygon class="st25" points="167.09,291.02 168.81,292.02 189.19,280.25 187.48,279.25 				"/>
			</g>
		</g>
		<g>
			<g>
				<polygon class="st25" points="174.59,295.38 176.3,296.37 196.69,284.6 194.98,283.61 				"/>
			</g>
		</g>
		<g>
			<g>
				<polygon class="st25" points="182.08,299.73 183.79,300.73 204.18,288.96 202.47,287.96 				"/>
			</g>
		</g>
	</g>
	<path class="st28" d="M219.46,331.19c-1.04,0.01-2.07,0.22-3.11,0.31c-2.49,0.23-5.01,0.22-7.5-0.03
		c-1.44-0.15-2.97-0.41-4.03-1.41c-1.23-1.15-1.15-2.64-1.43-4.21c-0.36-2.03-0.6-4.09-0.51-6.15c0.04-0.87,0.15-1.8,0.69-2.49
		c0.14-0.18,0.31-0.34,0.53-0.4c0.41-0.12,0.85,0.16,1.06,0.53c0.21,0.37,0.24,0.81,0.28,1.24c0.15,1.86,0.38,3.72,0.84,5.53
		c0.41,1.64,0.94,3.22,2.65,3.89c0.78,0.31,1.64,0.39,2.48,0.44c2.31,0.12,4.62-0.01,6.93-0.18c1.15-0.08,2.31-0.17,3.46-0.24
		c0.9-0.05,1.45-0.25,2.14-0.76c0.5-0.38,1.41-0.7,1.82,0.02c0.63,1.13-0.23,3.06-1.17,3.75c-0.49,0.36-1.1,0.56-1.71,0.57
		c-1.07,0.01-2.1-0.4-3.18-0.41C219.61,331.19,219.53,331.19,219.46,331.19z"/>
	<path class="st29" d="M207.28,316.09c0.75,1.62,0.78,3.46,0.81,5.24c0.02,1.88,0.04,3.75,0.07,5.63c-1.77,0.35-3.53,0.69-5.3,1.04
		c0.08-3.66,0.15-7.33,0.23-10.99c0.02-1.07-0.19-3.06,1.26-3.34C205.61,313.43,206.83,315.13,207.28,316.09z"/>
	<path class="st30" d="M228.67,390.38c0.61,0.98,1.61,1.66,2.59,2.28c1.65,1.06,3.31,2.14,5.15,2.82c1.82,0.69,3.88,0.96,5.76,0.36
		c0.34-0.11,0.77-0.33,0.84-0.71c0.03-0.24-0.1-0.48-0.24-0.71c-1.43-2.22-3.86-3.6-5.95-5.24c-1.54-1.2-2.94-2.59-4.17-4.11
		c-0.87-1.06-1.57-2.26-2.2-3.52c-0.06-0.14-0.16-0.29-0.23-0.46c-0.84-0.46-1.83-0.72-3.04-0.6c-0.63,0.04-1.27,0.21-1.7,0.65
		c-0.09,0.1-0.15,0.19-0.21,0.28c0.35,0.67,0.69,1.33,0.99,2.05c0.65,1.38,1.15,2.79,1.53,4.32
		C228.02,388.67,228.21,389.6,228.67,390.38z"/>
	<path class="st30" d="M211.18,396.25c0.23,1.13,0.93,2.11,1.64,3.04c1.18,1.56,2.36,3.15,3.85,4.43c1.46,1.28,3.3,2.24,5.28,2.33
		c0.36,0.01,0.84-0.04,1.03-0.38c0.11-0.21,0.07-0.48,0.03-0.75c-0.57-2.58-2.37-4.71-3.76-6.98c-1.03-1.66-1.86-3.45-2.49-5.3
		c-0.45-1.3-0.69-2.66-0.84-4.06c-0.01-0.15-0.05-0.33-0.05-0.51c-0.63-0.72-1.47-1.31-2.65-1.61c-0.61-0.18-1.27-0.24-1.82,0.02
		c-0.12,0.07-0.2,0.13-0.29,0.19c0.09,0.74,0.19,1.49,0.22,2.26c0.13,1.52,0.11,3.02-0.06,4.58
		C211.15,394.43,211.02,395.36,211.18,396.25z"/>
	<path class="st31" d="M202.06,313.38c0.35-0.12,0.69-0.28,1.06-0.33c1.08-0.16,2.12,0.59,3.21,0.57c1.16-0.03,2.11-0.91,2.81-1.83
		c1.21-1.6,1.83-3.5,2.66-5.28c0.92-1.97,1.23-4.28,1.4-6.42c0.29-3.49-1.54-5.93-4.67-7.31c-2.49-1.1-5.47-1.26-8.09-0.57
		c-3.17,0.82-4.84,3.45-5.99,6.4c-2.17,5.59,0.72,10.91,5.26,14.27c0.47,0.34,0.99,0.68,1.56,0.68
		C201.55,313.54,201.81,313.47,202.06,313.38z"/>
	<path class="st32" d="M188.89,351.43v0.03c0,0.93,0.12,1.82,0.51,2.66c0.54,1.14,1.49,2.03,2.51,2.78c0.9,0.63,1.94,1.2,3.05,1.08
		c1.2-0.09,2.15-0.96,3.05-1.76c0.39-0.33,0.78-0.69,1.17-1.05c0.69-0.63,1.37-1.29,2.09-1.94c0.3-0.24,0.6-0.51,0.9-0.78
		c0.09-0.09,0.18-0.15,0.27-0.24c1.17-1.05,2.9-1.32,3.86-2.66c0.81-1.2,0.33-3.14,0.03-4.42c-0.03-0.15-0.06-0.27-0.09-0.42
		c-0.09-0.39-0.15-0.78-0.21-1.17c-1.08-5.53-1.14-11.21-0.9-16.86c0.15-2.99,0.81-6.19,0.66-9.15c-0.09-1.58-0.48-4.19-2.48-4.21
		c-3.44-0.12-7.03-0.3-10.31,0.9c-0.81,0.3-1.64,0.72-2.18,1.44c-0.45,0.57-0.66,1.29-0.81,2c-0.48,2.33,0,5.02,0.06,7.41
		c0.18,6.52,0.51,12.91-0.24,19.34c-0.12,1.11-0.27,2.18-0.48,3.29C189.13,348.92,188.89,350.2,188.89,351.43z"/>
	<path class="st33" d="M231.05,385.84c-1.57,0.46-3.4,0.39-5.06,0.26c-0.76-0.06-3.19-11.24-3.52-12.4
		c-1.03-3.57-2.08-7.18-4.01-10.36c-1.28-2.1-2.99-4.01-5.1-5.31c-1.7-1.05-5.82-3.74-7.81-3.13c0.1,2.11,4.3,4.53,5.66,6.03
		c2.06,2.27,3.11,5.2,3.55,8.16c0.81,5.38,1.79,10.74,2.52,16.13c0.22,1.62,1.49,5.86,0.48,7.26c-1.05,1.45-5.71,1.23-7.27,1.12
		c-0.01-3.81-0.94-7.1-1.41-10.88c-0.45-2.48-0.93-4.96-1.46-7.41c-0.42-2-0.9-4.01-1.82-5.8c-1.7-3.26-4.13-5.06-7.17-6.85
		c-1.74-1.02-3.56-1.88-5.23-3.05c-1.65-1.14-3.17-2.6-4.01-4.45c-0.54-1.14-0.75-2.48-0.51-3.71c0-1.26,0.24-2.54,0.45-3.77
		c0.21-1.11,0.36-2.18,0.48-3.29c0.03-0.03,0.06-0.03,0.09-0.06c0.54-0.3,1.17-0.3,1.79-0.33c0.48-0.03,0.96-0.1,1.43-0.18
		c1.74-0.32,3.43-0.95,5.15-1.4c1.85-0.45,4.72-1.02,6.43,0.15c0.45,0.3,0.87,0.63,1.28,0.96h0.03c0.88,0.7,1.75,1.4,2.72,1.99
		c0.15,0.09,0.3,0.17,0.45,0.25c0.15,0.06,0.3,0.15,0.45,0.21c0.03,0.03,0.06,0.03,0.09,0.06c0.66,0.33,1.32,0.66,2,0.96
		c0.03,0.03,0.09,0.03,0.12,0.06c1.7,0.87,3.35,1.88,4.93,2.96c1.94,1.28,3.91,2.18,5.68,3.8c4.49,4.09,5.78,11.58,7.11,17.24
		c0.6,2.56,1.11,5.15,1.82,7.69c0.55,1.94,1.22,3.85,2.02,5.7C232.76,385.14,231.94,385.58,231.05,385.84z"/>
	<path class="st0" d="M189.3,344.87c-0.05,0.86,0.15,1.68,0.81,2.4c0.85,0.91,2.12,1.28,3.35,1.51c1.14,0.21,2.3,0.34,3.46,0.28
		c3.59-0.2,6.78-2.23,9.79-4.19c0.21-0.14,0.45-0.31,0.48-0.57c0.02-0.2-0.09-0.38-0.2-0.55c-2.25-3.63-1.51-7.02-1.31-10.99
		c0.14-2.65,0.23-5.29,0.27-7.94c0.05-3.06,0.92-8.2-1.16-10.81c-0.36-0.42-0.84-0.69-1.49-0.69c-0.57,0-1.14-0.03-1.7-0.06
		c-1.29-0.03-2.6-0.06-3.89,0.03c-1.61,0.12-3.2,0.36-4.72,0.93c-0.81,0.3-1.64,0.72-2.18,1.44c-0.24,0.33-0.42,0.69-0.57,1.08
		c-0.09,0.3-0.18,0.6-0.24,0.93c-0.48,2.33,0,5.02,0.06,7.41c0,0.45,0.03,0.87,0.03,1.32c0.03,0.96,0.06,1.88,0.09,2.84v1.76
		c0.06,2.06,0.06,4.13-0.03,6.19c-0.03,0.63-0.03,1.29-0.09,1.91c-0.06,1.61-0.23,3.14-0.58,4.67
		C189.39,344.13,189.32,344.5,189.3,344.87z"/>
	<g>
		<path class="st34" d="M222.39,326.77c0-2.37,4.09-6.42,4.09-6.42l1.08,0.38l-4.85,7h-14.29l-0.3-1.61
			C214.54,324.48,222.39,326.77,222.39,326.77z"/>
		<polygon class="st35" points="208.12,326.12 201.58,339.78 201.81,340.74 208.73,327.73 		"/>
		<polygon class="st36" points="201.84,340.6 207.87,327.59 222.75,327.59 228.29,319.69 228.63,319.8 227.15,321.94 222.49,331.18
			215.77,340.83 202.24,340.61 202.04,341.03 		"/>
		<g>
			<polygon class="st37" points="222.95,328.02 208.07,328.02 202.04,341.03 216.11,340.94 			"/>
			<polygon class="st38" points="222.95,328.02 228.63,319.8 222.83,331.29 216.11,340.94 			"/>
		</g>
	</g>
	<path class="st32" d="M187.78,332.68c0.02,0.62,0.06,1.23,0.1,1.84c0.26,4.31,5.66,3.74,8.77,3.49c1.76-0.14,3.51-0.29,5.23-0.64
		c2.14-0.44,4.75-0.25,6.77,0.64c0.15,0.07,0.34,0.14,0.48,0.05c0.13-0.08,0.16-0.26,0.12-0.4c-0.05-0.14-0.15-0.25-0.26-0.36
		c-0.32-0.29-1.12-1.07-1.54-1.17c0.76,0.18,1.54,0.31,2.32,0.39c0.27,0.03,0.61,0,0.69-0.25c0.09-0.28-0.23-0.51-0.51-0.63
		c-0.7-0.31-1.41-0.61-2.11-0.92c0.82-0.01,1.63-0.02,2.45-0.03c0.2,0,0.45-0.03,0.53-0.22c0.11-0.27-0.23-0.49-0.5-0.58
		c-1.14-0.37-2.28-0.73-3.41-1.1c-0.43-0.14-0.9-0.18-1.16-0.53c-0.21-0.28-0.07-0.73-0.47-0.9c-0.23-0.09-0.46,0.11-0.62,0.3
		c-1.21,1.36-3.29,2.26-4.98,2.86c-2.07,0.74-4.36,1.01-6.49,0.45c-0.41-0.11-0.82-0.25-1.13-0.54c-1.08-1.03-0.4-2.63-0.1-3.82
		c0.37-1.5,0.71-3,0.77-4.55c0.01-0.28,0.01-0.57-0.14-0.8c-0.2-0.3-0.58-0.39-0.93-0.45c-0.74-0.13-1.56-0.18-2.2,0.21
		c-1.3,0.81-1.49,2.47-1.62,3.85C187.72,330.11,187.73,331.4,187.78,332.68z"/>
	<path class="st29" d="M186.7,329.22c0.54,0.15,1.11,0.33,1.64,0.48c0.21,0.06,0.42,0.12,0.6,0.15c0.42,0.12,0.84,0.24,1.23,0.36
		c0.03,0,0.03,0,0.03,0c0.69,0.21,1.38,0.39,2.03,0.57c0.21,0.06,0.42,0.12,0.63,0.18c0.15,0.03,0.27,0.06,0.42,0.06
		c0.48-0.06,0.6-0.66,0.66-1.14c0.18-2.21,0.51-4.42,1.02-6.58c0.12-0.42,0.21-0.87,0.33-1.29c0.3-1.14,0.63-2.27,0.54-3.44
		c-0.06-0.81-0.51-1.64-1.17-2.27c-0.99-0.96-2.39-1.38-3.59-0.51c-0.36,0.27-0.63,0.57-0.84,0.93c-0.42,0.6-0.69,1.32-0.93,2
		c-1.08,3.23-1.94,6.55-2.48,9.89C186.76,328.83,186.73,329.01,186.7,329.22z"/>
	<path class="st32" d="M202.53,315.27c0.35,0.89-0.01,2-0.85,2.53c-0.18,0.09-0.39,0.18-0.6,0.24c-0.09,0.03-0.21,0.06-0.3,0.09
		c-0.81,0.18-1.68,0.12-2.39-0.27c-0.69-0.39-1.23-1.14-1.2-1.91c0-0.24,0.06-0.48,0.12-0.72c0.15-0.57,0.27-1.16,0.36-1.73
		c0.05-0.23,0.09-0.46,0.14-0.68c0.25-1.24,0.5-2.47,0.91-3.65c0.03-0.11,0.06-0.21,0.12-0.3c0.02-0.03,0.04-0.06,0.06-0.09
		c0.02-0.02,0.04-0.04,0.05-0.06c0.04-0.04,0.06-0.07,0.1-0.09c0.18-0.12,0.36-0.12,0.57-0.15c0.8,0,2.06,0.12,2.72,0.64
		c0.01,0,0.02,0.01,0.03,0.02c0.26,0.21,0.36,0.42,0.36,0.66c0.01,0.46-0.35,0.95-0.54,1.47c-0.24,0.63-0.6,1.38-0.6,2.09
		c0,0.33,0.09,0.6,0.24,0.87c0.12,0.27,0.33,0.45,0.51,0.69C202.42,315.01,202.48,315.14,202.53,315.27z"/>
	<path class="st28" d="M202.34,314.9c0.08,0.12,0.14,0.24,0.19,0.37c-0.03,0.01-0.06,0.02-0.09,0.03c-0.45,0.12-0.93-0.01-1.37-0.17
		c-0.93-0.33-2.37-0.93-3.03-1.88c-0.1-0.14-0.18-0.28-0.23-0.43c0.25-1.24,0.5-2.47,0.91-3.65c0.03-0.11,0.06-0.21,0.12-0.3
		c0.02-0.03,0.04-0.06,0.06-0.09c0.02-0.02,0.04-0.04,0.05-0.06c0.04-0.04,0.06-0.07,0.1-0.09c0.18-0.12,0.36-0.12,0.57-0.15
		c0.72-0.1,2.13,0.08,2.68,0.59c0.02,0.02,0.04,0.03,0.05,0.05c0.2,0.2,0.32,0.43,0.39,0.67c0.01,0.46-0.35,0.95-0.54,1.47
		c-0.24,0.63-0.6,1.38-0.6,2.09c0,0.33,0.09,0.6,0.24,0.87C201.95,314.48,202.16,314.66,202.34,314.9z"/>
	<path class="st32" d="M198.94,310.43c0.29,0.52,0.59,1,0.9,1.4c1.24,1.59,2.64,3.03,4.77,3.26c1.94,0.21,3.8-0.91,4.72-2.6
		c1.25-2.28,0.96-4.9,1.67-7.31c0.34-1.18,0.7-2.37,0.86-3.59c0.06-0.48,0.11-0.98,0.07-1.47c-0.02-0.2-0.26-0.89-0.2-1.03
		c0,0-0.9,2.12-3.6,2.59c-2.7,0.47-7.58,2.09-8.05,4.17c0,0-0.17-4.02-2.54-2.63c-1.21,0.71-0.45,2.92-0.09,3.9
		C197.83,308.13,198.35,309.36,198.94,310.43z"/>
	<g>
		<path class="st22" d="M99.7,376.28l35.11,20.4l24.28-14.02l-35.11-20.4L99.7,376.28z"/>
		<g>
			<g>
				<polygon class="st39" points="99.7,376.28 99.71,378.51 134.82,398.91 134.81,396.69 				"/>
			</g>
		</g>
		<g>
			<g>
				<polygon class="st40" points="134.81,396.69 134.82,398.91 159.1,384.9 159.09,382.67 				"/>
			</g>
		</g>
		<g>
			<polygon class="st41" points="111.68,379.56 134.7,392.94 152.61,382.59 129.59,369.22 			"/>
		</g>
		<g>
			<polygon class="st41" points="106.18,376.36 109.21,378.12 127.12,367.78 124.09,366.02 			"/>
		</g>
	</g>
	<g>
		<path class="st22" d="M99.7,374.06l35.11,20.4l24.28-14.02l-35.11-20.4L99.7,374.06z"/>
		<g>
			<g>
				<polygon class="st42" points="99.7,374.06 99.71,376.28 134.82,396.69 134.81,394.46 				"/>
			</g>
		</g>
		<g>
			<g>
				<polygon class="st43" points="134.81,394.46 134.82,396.69 159.1,382.67 159.09,380.45 				"/>
			</g>
		</g>
		<g>
			<polygon class="st41" points="111.68,377.33 134.7,390.71 152.61,380.37 129.59,366.99 			"/>
		</g>
		<g>
			<polygon class="st41" points="106.18,374.14 109.21,375.9 127.12,365.55 124.09,363.8 			"/>
		</g>
	</g>
	<g>
		<path class="st22" d="M99.7,371.83l35.11,20.4l24.28-14.02l-35.11-20.4L99.7,371.83z"/>
		<g>
			<g>
				<polygon class="st39" points="99.7,371.83 99.71,374.06 134.82,394.46 134.81,392.24 				"/>
			</g>
		</g>
		<g>
			<g>
				<polygon class="st40" points="134.81,392.24 134.82,394.46 159.1,380.45 159.09,378.22 				"/>
			</g>
		</g>
		<g>
			<polygon class="st41" points="111.68,375.11 134.7,388.49 152.61,378.14 129.59,364.77 			"/>
		</g>
		<g>
			<polygon class="st41" points="106.18,371.91 109.21,373.67 127.12,363.33 124.09,361.57 			"/>
		</g>
	</g>
	<g>
		<path class="st22" d="M99.7,369.61l35.11,20.4L159.09,376l-35.11-20.4L99.7,369.61z"/>
		<g>
			<g>
				<polygon class="st42" points="99.7,369.61 99.71,371.83 134.82,392.24 134.81,390.01 				"/>
			</g>
		</g>
		<g>
			<g>
				<polygon class="st43" points="134.81,390.01 134.82,392.24 159.1,378.22 159.09,376 				"/>
			</g>
		</g>
		<g>
			<polygon class="st41" points="111.68,372.88 134.7,386.26 152.61,375.92 129.59,362.54 			"/>
		</g>
		<g>
			<polygon class="st41" points="106.18,369.69 109.21,371.45 127.12,361.1 124.09,359.35 			"/>
		</g>
	</g>
	<g>
		<path class="st22" d="M99.7,367.38l35.11,20.4l24.28-14.02l-35.11-20.4L99.7,367.38z"/>
		<g>
			<g>
				<polygon class="st39" points="99.7,367.38 99.71,369.61 134.82,390.01 134.81,387.79 				"/>
			</g>
		</g>
		<g>
			<g>
				<polygon class="st40" points="134.81,387.79 134.82,390.01 159.1,376 159.09,373.77 				"/>
			</g>
		</g>
		<g>
			<polygon class="st41" points="111.68,370.66 134.7,384.03 152.61,373.69 129.59,360.32 			"/>
		</g>
		<g>
			<polygon class="st41" points="106.18,367.46 109.21,369.22 127.12,358.88 124.09,357.12 			"/>
		</g>
	</g>
	<g>
		<path class="st22" d="M99.7,365.16l35.11,20.4l24.28-14.02l-35.11-20.4L99.7,365.16z"/>
		<g>
			<g>
				<polygon class="st42" points="99.7,365.16 99.71,367.38 134.82,387.79 134.81,385.56 				"/>
			</g>
		</g>
		<g>
			<g>
				<polygon class="st43" points="134.81,385.56 134.82,387.79 159.1,373.77 159.09,371.55 				"/>
			</g>
		</g>
		<g>
			<polygon class="st41" points="111.68,368.43 134.7,381.81 152.61,371.47 129.59,358.09 			"/>
		</g>
		<g>
			<polygon class="st41" points="106.18,365.24 109.21,366.99 127.12,356.65 124.09,354.9 			"/>
		</g>
	</g>
	<g>
		<path class="st22" d="M285.73,374.06l35.11,20.4l24.28-14.02L310,360.04L285.73,374.06z"/>
		<g>
			<g>
				<polygon class="st39" points="285.73,374.06 285.73,376.28 320.84,396.69 320.84,394.46 				"/>
			</g>
		</g>
		<g>
			<g>
				<polygon class="st40" points="320.84,394.46 320.84,396.69 345.12,382.67 345.11,380.45 				"/>
			</g>
		</g>
		<g>
			<polygon class="st41" points="297.7,377.33 320.72,390.71 338.63,380.37 315.61,366.99 			"/>
		</g>
		<g>
			<polygon class="st41" points="292.21,374.14 295.23,375.9 313.14,365.55 310.12,363.8 			"/>
		</g>
	</g>
	<g>
		<path class="st22" d="M285.73,371.83l35.11,20.4l24.28-14.02L310,357.82L285.73,371.83z"/>
		<g>
			<g>
				<polygon class="st42" points="285.73,371.83 285.73,374.06 320.84,394.46 320.84,392.24 				"/>
			</g>
		</g>
		<g>
			<g>
				<polygon class="st43" points="320.84,392.24 320.84,394.46 345.12,380.45 345.11,378.22 				"/>
			</g>
		</g>
		<g>
			<polygon class="st41" points="297.7,375.11 320.72,388.49 338.63,378.14 315.61,364.77 			"/>
		</g>
		<g>
			<polygon class="st41" points="292.21,371.91 295.23,373.67 313.14,363.33 310.12,361.57 			"/>
		</g>
	</g>
	<g>
		<path class="st22" d="M285.73,369.61l35.11,20.4L345.11,376L310,355.59L285.73,369.61z"/>
		<g>
			<g>
				<polygon class="st39" points="285.73,369.61 285.73,371.83 320.84,392.24 320.84,390.01 				"/>
			</g>
		</g>
		<g>
			<g>
				<polygon class="st40" points="320.84,390.01 320.84,392.24 345.12,378.22 345.11,376 				"/>
			</g>
		</g>
		<g>
			<polygon class="st41" points="297.7,372.88 320.72,386.26 338.63,375.92 315.61,362.54 			"/>
		</g>
		<g>
			<polygon class="st41" points="292.21,369.69 295.23,371.45 313.14,361.1 310.12,359.35 			"/>
		</g>
	</g>
	<g>
		<path class="st22" d="M285.73,367.38l35.11,20.4l24.28-14.02L310,353.37L285.73,367.38z"/>
		<g>
			<g>
				<polygon class="st42" points="285.73,367.38 285.73,369.61 320.84,390.01 320.84,387.79 				"/>
			</g>
		</g>
		<g>
			<g>
				<polygon class="st43" points="320.84,387.79 320.84,390.01 345.12,376 345.11,373.77 				"/>
			</g>
		</g>
		<g>
			<polygon class="st41" points="297.7,370.66 320.72,384.03 338.63,373.69 315.61,360.32 			"/>
		</g>
		<g>
			<polygon class="st41" points="292.21,367.46 295.23,369.22 313.14,358.88 310.12,357.12 			"/>
		</g>
	</g>
	<g>
		<path class="st22" d="M285.73,365.16l35.11,20.4l24.28-14.02L310,351.14L285.73,365.16z"/>
		<g>
			<g>
				<polygon class="st39" points="285.73,365.16 285.73,367.38 320.84,387.79 320.84,385.56 				"/>
			</g>
		</g>
		<g>
			<g>
				<polygon class="st40" points="320.84,385.56 320.84,387.79 345.12,373.77 345.11,371.55 				"/>
			</g>
		</g>
		<g>
			<polygon class="st41" points="297.7,368.43 320.72,381.81 338.63,371.47 315.61,358.09 			"/>
		</g>
		<g>
			<polygon class="st41" points="292.21,365.24 295.23,366.99 313.14,356.65 310.12,354.9 			"/>
		</g>
	</g>
	<g>
		<path class="st22" d="M285.73,362.93l35.11,20.4l24.28-14.02L310,348.92L285.73,362.93z"/>
		<g>
			<g>
				<polygon class="st42" points="285.73,362.93 285.73,365.16 320.84,385.56 320.84,383.34 				"/>
			</g>
		</g>
		<g>
			<g>
				<polygon class="st43" points="320.84,383.34 320.84,385.56 345.12,371.55 345.11,369.32 				"/>
			</g>
		</g>
		<g>
			<polygon class="st41" points="297.7,366.21 320.72,379.58 338.63,369.24 315.61,355.87 			"/>
		</g>
		<g>
			<polygon class="st41" points="292.21,363.01 295.23,364.77 313.14,354.43 310.12,352.67 			"/>
		</g>
	</g>
	<path class="st44" d="M300.52,322.24l53.76,31.04l79.96-46.47l-53.76-31.04L300.52,322.24z"/>
	<g>
		<polygon class="st45" points="434.25,306.8 434.24,310.48 354.27,356.95 354.28,353.27 		"/>
	</g>
	<g>
		<polygon class="st46" points="354.28,353.27 354.27,356.95 300.51,325.91 300.52,322.24 		"/>
	</g>
	<g>
		<g>
			<polygon class="st47" points="398.42,300.8 396.39,301.98 372.36,288.1 374.39,286.92 			"/>
		</g>
		<g>
			<polygon class="st47" points="361.36,302.75 359.32,303.93 352.2,299.82 354.23,298.64 			"/>
		</g>
		<g>
			<polygon class="st47" points="407.37,305.97 405.34,307.15 402.09,305.27 404.12,304.09 			"/>
		</g>
		<g>
			<polygon class="st47" points="419.34,307.85 417.31,309.03 404.24,301.49 406.27,300.3 			"/>
		</g>
		<g>
			<polygon class="st47" points="415.01,310.37 412.97,311.55 406.44,307.78 408.47,306.6 			"/>
		</g>
		<g>
			<polygon class="st47" points="345.01,312.24 342.98,313.43 335.86,309.31 337.89,308.13 			"/>
		</g>
		<g>
			<polygon class="st47" points="398.66,319.87 396.63,321.05 390.1,317.28 392.13,316.1 			"/>
		</g>
		<g>
			<polygon class="st47" points="388.61,309.04 386.58,310.22 382.2,307.69 384.23,306.51 			"/>
		</g>
		<g>
			<polygon class="st47" points="394.85,322.09 392.82,323.27 372.21,311.37 374.24,310.19 			"/>
		</g>
		<g>
			<polygon class="st47" points="386.66,326.84 384.63,328.03 371.56,320.48 373.59,319.3 			"/>
		</g>
		<g>
			<polygon class="st47" points="349.4,329.29 347.37,330.47 323.33,316.59 325.36,315.41 			"/>
		</g>
		<g>
			<polygon class="st47" points="372.27,318.54 370.24,319.72 365.86,317.19 367.89,316.01 			"/>
		</g>
		<g>
			<polygon class="st47" points="378.51,331.58 376.48,332.76 355.87,320.87 357.9,319.69 			"/>
		</g>
		<g>
			<polygon class="st47" points="374.41,333.96 372.38,335.14 354.13,324.6 356.16,323.42 			"/>
		</g>
		<g>
			<polygon class="st47" points="358.35,334.46 356.32,335.64 353.06,333.76 355.1,332.58 			"/>
		</g>
		<g>
			<polygon class="st47" points="365.98,338.86 363.95,340.04 357.41,336.27 359.45,335.09 			"/>
		</g>
		<g>
			<polygon class="st47" points="355.93,328.03 353.89,329.21 349.52,326.69 351.55,325.51 			"/>
		</g>
		<g>
			<polygon class="st47" points="362.17,341.08 360.13,342.26 339.53,330.36 341.56,329.18 			"/>
		</g>
		<g>
			<polygon class="st47" points="393.58,292.98 391.55,294.16 376.7,285.58 378.73,284.4 			"/>
		</g>
		<g>
			<polygon class="st47" points="377.7,293.25 375.67,294.43 368.54,290.32 370.58,289.14 			"/>
		</g>
		<g>
			<polygon class="st47" points="381.93,295.7 379.9,296.88 376.53,294.93 378.56,293.75 			"/>
		</g>
		<g>
			<polygon class="st47" points="399.25,296.25 397.22,297.43 392.85,294.91 394.88,293.72 			"/>
		</g>
		<g>
			<polygon class="st47" points="385.96,298.02 383.93,299.2 380.56,297.26 382.59,296.08 			"/>
		</g>
		<g>
			<polygon class="st47" points="404.95,299.54 402.92,300.72 398.55,298.2 400.58,297.02 			"/>
		</g>
		<g>
			<polygon class="st47" points="389.99,300.35 387.96,301.53 384.59,299.58 386.62,298.4 			"/>
		</g>
		<g>
			<polygon class="st47" points="377.24,302.47 375.21,303.65 360.35,295.08 362.39,293.9 			"/>
		</g>
		<g>
			<polygon class="st47" points="403.09,303.49 401.06,304.67 397.8,302.79 399.84,301.61 			"/>
		</g>
		<g>
			<polygon class="st47" points="388.07,303.98 386.04,305.16 364.45,292.7 366.48,291.52 			"/>
		</g>
		<g>
			<polygon class="st47" points="365.59,305.19 363.56,306.37 360.19,304.43 362.22,303.25 			"/>
		</g>
		<g>
			<polygon class="st47" points="382.91,305.75 380.88,306.93 376.5,304.4 378.53,303.22 			"/>
		</g>
		<g>
			<polygon class="st47" points="369.62,307.52 367.59,308.7 364.22,306.75 366.25,305.57 			"/>
		</g>
		<g>
			<polygon class="st47" points="373.65,309.84 371.62,311.03 368.25,309.08 370.28,307.9 			"/>
		</g>
		<g>
			<polygon class="st47" points="382.08,310.3 380.05,311.48 356.02,297.6 358.05,296.42 			"/>
		</g>
		<g>
			<polygon class="st47" points="360.9,311.97 358.87,313.15 344.01,304.58 346.04,303.39 			"/>
		</g>
		<g>
			<polygon class="st47" points="411.19,312.59 409.16,313.77 388.56,301.87 390.59,300.69 			"/>
		</g>
		<g>
			<polygon class="st47" points="386.75,312.99 384.71,314.17 381.46,312.29 383.49,311.11 			"/>
		</g>
		<g>
			<polygon class="st47" points="371.73,313.48 369.7,314.66 348.11,302.2 350.14,301.02 			"/>
		</g>
		<g>
			<polygon class="st47" points="349.25,314.69 347.22,315.87 343.85,313.92 345.88,312.74 			"/>
		</g>
		<g>
			<polygon class="st47" points="407.1,314.97 405.07,316.15 386.81,305.61 388.85,304.43 			"/>
		</g>
		<g>
			<polygon class="st47" points="366.57,315.24 364.54,316.43 360.16,313.9 362.19,312.72 			"/>
		</g>
		<g>
			<polygon class="st47" points="391.03,315.46 389,316.64 385.75,314.77 387.78,313.58 			"/>
		</g>
		<g>
			<polygon class="st47" points="353.28,317.02 351.25,318.2 347.88,316.25 349.91,315.07 			"/>
		</g>
		<g>
			<polygon class="st47" points="403,317.35 400.97,318.53 387.9,310.98 389.93,309.8 			"/>
		</g>
		<g>
			<polygon class="st47" points="357.31,319.34 355.28,320.52 351.91,318.58 353.94,317.4 			"/>
		</g>
		<g>
			<polygon class="st47" points="365.74,319.79 363.71,320.97 339.67,307.1 341.71,305.92 			"/>
		</g>
		<g>
			<polygon class="st47" points="344.55,321.47 342.52,322.65 327.67,314.07 329.7,312.89 			"/>
		</g>
		<g>
			<polygon class="st47" points="328.67,321.74 326.64,322.92 319.52,318.81 321.55,317.63 			"/>
		</g>
		<g>
			<polygon class="st47" points="370.4,322.48 368.37,323.67 365.12,321.79 367.15,320.61 			"/>
		</g>
		<g>
			<polygon class="st47" points="355.39,322.98 353.35,324.16 331.76,311.69 333.8,310.51 			"/>
		</g>
		<g>
			<polygon class="st47" points="332.91,324.19 330.87,325.37 327.5,323.42 329.54,322.24 			"/>
		</g>
		<g>
			<polygon class="st47" points="390.75,324.47 388.72,325.65 370.47,315.11 372.5,313.93 			"/>
		</g>
		<g>
			<polygon class="st47" points="350.23,324.74 348.19,325.92 343.82,323.4 345.85,322.22 			"/>
		</g>
		<g>
			<polygon class="st47" points="374.69,324.96 372.66,326.14 369.41,324.26 371.44,323.08 			"/>
		</g>
		<g>
			<polygon class="st47" points="336.94,326.51 334.9,327.69 331.53,325.75 333.57,324.57 			"/>
		</g>
		<g>
			<polygon class="st47" points="340.96,328.84 338.93,330.02 335.57,328.08 337.6,326.89 			"/>
		</g>
		<g>
			<polygon class="st47" points="382.32,329.37 380.29,330.55 373.76,326.77 375.79,325.59 			"/>
		</g>
		<g>
			<polygon class="st47" points="354.06,331.98 352.03,333.16 348.78,331.28 350.81,330.1 			"/>
		</g>
		<g>
			<polygon class="st47" points="339.04,332.48 337.01,333.65 315.42,321.19 317.45,320.01 			"/>
		</g>
		<g>
			<polygon class="st47" points="370.32,336.34 368.29,337.52 355.22,329.98 357.25,328.8 			"/>
		</g>
		<g>
			<polygon class="st47" points="358.07,343.46 356.04,344.64 337.79,334.1 339.82,332.92 			"/>
		</g>
	</g>
	<path class="st7" d="M300.52,318.6l53.76,31.04l79.96-46.47l-53.76-31.04L300.52,318.6z"/>
	<g>
		<polygon class="st6" points="434.25,303.16 434.24,306.84 354.27,353.31 354.28,349.63 		"/>
	</g>
	<g>
		<polygon class="st8" points="354.28,349.63 354.27,353.31 300.51,322.27 300.52,318.6 		"/>
	</g>
	<g>
		<g>
			<polygon class="st48" points="398.42,297.16 396.39,298.34 372.36,284.46 374.39,283.28 			"/>
		</g>
		<g>
			<polygon class="st48" points="361.36,299.11 359.32,300.29 352.2,296.18 354.23,295 			"/>
		</g>
		<g>
			<polygon class="st48" points="407.37,302.32 405.34,303.51 402.09,301.63 404.12,300.45 			"/>
		</g>
		<g>
			<polygon class="st48" points="419.34,304.21 417.31,305.39 404.24,297.85 406.27,296.66 			"/>
		</g>
		<g>
			<polygon class="st48" points="415.01,306.73 412.97,307.91 406.44,304.14 408.47,302.96 			"/>
		</g>
		<g>
			<polygon class="st48" points="345.01,308.6 342.98,309.79 335.86,305.67 337.89,304.49 			"/>
		</g>
		<g>
			<polygon class="st48" points="398.66,316.23 396.63,317.41 390.1,313.64 392.13,312.46 			"/>
		</g>
		<g>
			<polygon class="st48" points="388.61,305.4 386.58,306.58 382.2,304.05 384.23,302.87 			"/>
		</g>
		<g>
			<polygon class="st48" points="394.85,318.45 392.82,319.63 372.21,307.73 374.24,306.55 			"/>
		</g>
		<g>
			<polygon class="st48" points="386.66,323.2 384.63,324.39 371.56,316.84 373.59,315.66 			"/>
		</g>
		<g>
			<polygon class="st48" points="349.4,325.65 347.37,326.83 323.33,312.95 325.36,311.77 			"/>
		</g>
		<g>
			<polygon class="st48" points="372.27,314.89 370.24,316.08 365.86,313.55 367.89,312.37 			"/>
		</g>
		<g>
			<polygon class="st48" points="378.51,327.94 376.48,329.12 355.87,317.23 357.9,316.05 			"/>
		</g>
		<g>
			<polygon class="st48" points="374.41,330.32 372.38,331.5 354.13,320.96 356.16,319.78 			"/>
		</g>
		<g>
			<polygon class="st48" points="358.35,330.82 356.32,332 353.06,330.12 355.1,328.94 			"/>
		</g>
		<g>
			<polygon class="st48" points="365.98,335.22 363.95,336.4 357.41,332.63 359.45,331.45 			"/>
		</g>
		<g>
			<polygon class="st48" points="355.93,324.39 353.89,325.57 349.52,323.05 351.55,321.87 			"/>
		</g>
		<g>
			<polygon class="st48" points="362.17,337.44 360.13,338.62 339.53,326.72 341.56,325.54 			"/>
		</g>
		<g>
			<polygon class="st48" points="393.58,289.34 391.55,290.52 376.7,281.94 378.73,280.76 			"/>
		</g>
		<g>
			<polygon class="st48" points="377.7,289.61 375.67,290.79 368.54,286.68 370.58,285.5 			"/>
		</g>
		<g>
			<polygon class="st48" points="381.93,292.06 379.9,293.24 376.53,291.29 378.56,290.11 			"/>
		</g>
		<g>
			<polygon class="st48" points="399.25,292.61 397.22,293.79 392.85,291.27 394.88,290.08 			"/>
		</g>
		<g>
			<polygon class="st48" points="385.96,294.38 383.93,295.56 380.56,293.62 382.59,292.44 			"/>
		</g>
		<g>
			<polygon class="st48" points="404.95,295.9 402.92,297.08 398.55,294.56 400.58,293.38 			"/>
		</g>
		<g>
			<polygon class="st48" points="389.99,296.71 387.96,297.89 384.59,295.94 386.62,294.76 			"/>
		</g>
		<g>
			<polygon class="st48" points="377.24,298.83 375.21,300.01 360.35,291.44 362.39,290.26 			"/>
		</g>
		<g>
			<polygon class="st48" points="403.09,299.85 401.06,301.03 397.8,299.15 399.84,297.97 			"/>
		</g>
		<g>
			<polygon class="st48" points="388.07,300.34 386.04,301.52 364.45,289.06 366.48,287.88 			"/>
		</g>
		<g>
			<polygon class="st48" points="365.59,301.55 363.56,302.73 360.19,300.79 362.22,299.61 			"/>
		</g>
		<g>
			<polygon class="st48" points="382.91,302.11 380.88,303.29 376.5,300.76 378.53,299.58 			"/>
		</g>
		<g>
			<polygon class="st48" points="369.62,303.88 367.59,305.06 364.22,303.11 366.25,301.93 			"/>
		</g>
		<g>
			<polygon class="st48" points="373.65,306.2 371.62,307.39 368.25,305.44 370.28,304.26 			"/>
		</g>
		<g>
			<polygon class="st48" points="382.08,306.66 380.05,307.84 356.02,293.96 358.05,292.78 			"/>
		</g>
		<g>
			<polygon class="st48" points="360.9,308.33 358.87,309.51 344.01,300.94 346.04,299.75 			"/>
		</g>
		<g>
			<polygon class="st48" points="411.19,308.95 409.16,310.13 388.56,298.23 390.59,297.05 			"/>
		</g>
		<g>
			<polygon class="st48" points="386.75,309.35 384.71,310.53 381.46,308.65 383.49,307.47 			"/>
		</g>
		<g>
			<polygon class="st48" points="371.73,309.84 369.7,311.02 348.11,298.56 350.14,297.37 			"/>
		</g>
		<g>
			<polygon class="st48" points="349.25,311.05 347.22,312.23 343.85,310.28 345.88,309.1 			"/>
		</g>
		<g>
			<polygon class="st48" points="407.1,311.33 405.07,312.51 386.81,301.97 388.85,300.79 			"/>
		</g>
		<g>
			<polygon class="st48" points="366.57,311.6 364.54,312.78 360.16,310.26 362.19,309.08 			"/>
		</g>
		<g>
			<polygon class="st48" points="391.03,311.82 389,313 385.75,311.13 387.78,309.94 			"/>
		</g>
		<g>
			<polygon class="st48" points="353.28,313.38 351.25,314.56 347.88,312.61 349.91,311.43 			"/>
		</g>
		<g>
			<polygon class="st48" points="403,313.71 400.97,314.89 387.9,307.34 389.93,306.16 			"/>
		</g>
		<g>
			<polygon class="st48" points="357.31,315.7 355.28,316.88 351.91,314.94 353.94,313.76 			"/>
		</g>
		<g>
			<polygon class="st48" points="365.74,316.15 363.71,317.33 339.67,303.46 341.71,302.28 			"/>
		</g>
		<g>
			<polygon class="st48" points="344.55,317.83 342.52,319.01 327.67,310.43 329.7,309.25 			"/>
		</g>
		<g>
			<polygon class="st48" points="328.67,318.1 326.64,319.28 319.52,315.17 321.55,313.99 			"/>
		</g>
		<g>
			<polygon class="st48" points="370.4,318.84 368.37,320.02 365.12,318.15 367.15,316.97 			"/>
		</g>
		<g>
			<polygon class="st48" points="355.39,319.34 353.35,320.52 331.76,308.05 333.8,306.87 			"/>
		</g>
		<g>
			<polygon class="st48" points="332.91,320.55 330.87,321.73 327.5,319.78 329.54,318.6 			"/>
		</g>
		<g>
			<polygon class="st48" points="390.75,320.82 388.72,322.01 370.47,311.47 372.5,310.29 			"/>
		</g>
		<g>
			<polygon class="st48" points="350.23,321.1 348.19,322.28 343.82,319.76 345.85,318.58 			"/>
		</g>
		<g>
			<polygon class="st48" points="374.69,321.32 372.66,322.5 369.41,320.62 371.44,319.44 			"/>
		</g>
		<g>
			<polygon class="st48" points="336.94,322.87 334.9,324.05 331.53,322.11 333.57,320.93 			"/>
		</g>
		<g>
			<polygon class="st48" points="340.96,325.2 338.93,326.38 335.57,324.44 337.6,323.25 			"/>
		</g>
		<g>
			<polygon class="st48" points="382.32,325.73 380.29,326.91 373.76,323.13 375.79,321.95 			"/>
		</g>
		<g>
			<polygon class="st48" points="354.06,328.34 352.03,329.52 348.78,327.64 350.81,326.46 			"/>
		</g>
		<g>
			<polygon class="st48" points="339.04,328.84 337.01,330.01 315.42,317.55 317.45,316.37 			"/>
		</g>
		<g>
			<polygon class="st48" points="370.32,332.7 368.29,333.88 355.22,326.34 357.25,325.16 			"/>
		</g>
		<g>
			<polygon class="st48" points="358.07,339.82 356.04,341 337.79,330.46 339.82,329.28 			"/>
		</g>
	</g>
	<path class="st44" d="M300.52,315.17l53.76,31.04l79.96-46.47l-53.76-31.04L300.52,315.17z"/>
	<g>
		<polygon class="st45" points="434.25,299.74 434.24,303.41 354.27,349.88 354.28,346.21 		"/>
	</g>
	<g>
		<polygon class="st46" points="354.28,346.21 354.27,349.88 300.51,318.84 300.52,315.17 		"/>
	</g>
	<g>
		<g>
			<polygon class="st47" points="398.42,293.73 396.39,294.91 372.36,281.03 374.39,279.85 			"/>
		</g>
		<g>
			<polygon class="st47" points="361.36,295.68 359.32,296.86 352.2,292.75 354.23,291.57 			"/>
		</g>
		<g>
			<polygon class="st47" points="407.37,298.9 405.34,300.08 402.09,298.2 404.12,297.02 			"/>
		</g>
		<g>
			<polygon class="st47" points="419.34,300.78 417.31,301.96 404.24,294.42 406.27,293.24 			"/>
		</g>
		<g>
			<polygon class="st47" points="415.01,303.3 412.97,304.48 406.44,300.71 408.47,299.53 			"/>
		</g>
		<g>
			<polygon class="st47" points="345.01,305.18 342.98,306.36 335.86,302.24 337.89,301.06 			"/>
		</g>
		<g>
			<polygon class="st47" points="398.66,312.8 396.63,313.98 390.1,310.21 392.13,309.03 			"/>
		</g>
		<g>
			<polygon class="st47" points="388.61,301.97 386.58,303.15 382.2,300.62 384.23,299.44 			"/>
		</g>
		<g>
			<polygon class="st47" points="394.85,315.02 392.82,316.2 372.21,304.3 374.24,303.12 			"/>
		</g>
		<g>
			<polygon class="st47" points="386.66,319.78 384.63,320.96 371.56,313.41 373.59,312.23 			"/>
		</g>
		<g>
			<polygon class="st47" points="349.4,322.22 347.37,323.4 323.33,309.52 325.36,308.34 			"/>
		</g>
		<g>
			<polygon class="st47" points="372.27,311.47 370.24,312.65 365.86,310.12 367.89,308.94 			"/>
		</g>
		<g>
			<polygon class="st47" points="378.51,324.51 376.48,325.69 355.87,313.8 357.9,312.62 			"/>
		</g>
		<g>
			<polygon class="st47" points="374.41,326.89 372.38,328.07 354.13,317.54 356.16,316.36 			"/>
		</g>
		<g>
			<polygon class="st47" points="358.35,327.39 356.32,328.57 353.06,326.69 355.1,325.51 			"/>
		</g>
		<g>
			<polygon class="st47" points="365.98,331.79 363.95,332.97 357.41,329.2 359.45,328.02 			"/>
		</g>
		<g>
			<polygon class="st47" points="355.93,320.96 353.89,322.14 349.52,319.62 351.55,318.44 			"/>
		</g>
		<g>
			<polygon class="st47" points="362.17,334.01 360.13,335.19 339.53,323.29 341.56,322.11 			"/>
		</g>
		<g>
			<polygon class="st47" points="393.58,285.91 391.55,287.09 376.7,278.51 378.73,277.33 			"/>
		</g>
		<g>
			<polygon class="st47" points="377.7,286.18 375.67,287.36 368.54,283.25 370.58,282.07 			"/>
		</g>
		<g>
			<polygon class="st47" points="381.93,288.63 379.9,289.81 376.53,287.86 378.56,286.68 			"/>
		</g>
		<g>
			<polygon class="st47" points="399.25,289.18 397.22,290.36 392.85,287.84 394.88,286.66 			"/>
		</g>
		<g>
			<polygon class="st47" points="385.96,290.95 383.93,292.13 380.56,290.19 382.59,289.01 			"/>
		</g>
		<g>
			<polygon class="st47" points="404.95,292.47 402.92,293.65 398.55,291.13 400.58,289.95 			"/>
		</g>
		<g>
			<polygon class="st47" points="389.99,293.28 387.96,294.46 384.59,292.52 386.62,291.34 			"/>
		</g>
		<g>
			<polygon class="st47" points="377.24,295.4 375.21,296.59 360.35,288.01 362.39,286.83 			"/>
		</g>
		<g>
			<polygon class="st47" points="403.09,296.42 401.06,297.6 397.8,295.73 399.84,294.54 			"/>
		</g>
		<g>
			<polygon class="st47" points="388.07,296.91 386.04,298.1 364.45,285.63 366.48,284.45 			"/>
		</g>
		<g>
			<polygon class="st47" points="365.59,298.12 363.56,299.3 360.19,297.36 362.22,296.18 			"/>
		</g>
		<g>
			<polygon class="st47" points="382.91,298.68 380.88,299.86 376.5,297.33 378.53,296.15 			"/>
		</g>
		<g>
			<polygon class="st47" points="369.62,300.45 367.59,301.63 364.22,299.69 366.25,298.5 			"/>
		</g>
		<g>
			<polygon class="st47" points="373.65,302.78 371.62,303.96 368.25,302.01 370.28,300.83 			"/>
		</g>
		<g>
			<polygon class="st47" points="382.08,303.23 380.05,304.41 356.02,290.53 358.05,289.35 			"/>
		</g>
		<g>
			<polygon class="st47" points="360.9,304.9 358.87,306.08 344.01,297.51 346.04,296.33 			"/>
		</g>
		<g>
			<polygon class="st47" points="411.19,305.52 409.16,306.7 388.56,294.8 390.59,293.62 			"/>
		</g>
		<g>
			<polygon class="st47" points="386.75,305.92 384.71,307.1 381.46,305.22 383.49,304.04 			"/>
		</g>
		<g>
			<polygon class="st47" points="371.73,306.41 369.7,307.59 348.11,295.13 350.14,293.95 			"/>
		</g>
		<g>
			<polygon class="st47" points="349.25,307.62 347.22,308.8 343.85,306.86 345.88,305.67 			"/>
		</g>
		<g>
			<polygon class="st47" points="407.1,307.9 405.07,309.08 386.81,298.54 388.85,297.36 			"/>
		</g>
		<g>
			<polygon class="st47" points="366.57,308.18 364.54,309.36 360.16,306.83 362.19,305.65 			"/>
		</g>
		<g>
			<polygon class="st47" points="391.03,308.39 389,309.57 385.75,307.7 387.78,306.52 			"/>
		</g>
		<g>
			<polygon class="st47" points="353.28,309.95 351.25,311.13 347.88,309.18 349.91,308 			"/>
		</g>
		<g>
			<polygon class="st47" points="403,310.28 400.97,311.46 387.9,303.91 389.93,302.73 			"/>
		</g>
		<g>
			<polygon class="st47" points="357.31,312.27 355.28,313.45 351.91,311.51 353.94,310.33 			"/>
		</g>
		<g>
			<polygon class="st47" points="365.74,312.72 363.71,313.9 339.67,300.03 341.71,298.85 			"/>
		</g>
		<g>
			<polygon class="st47" points="344.55,314.4 342.52,315.58 327.67,307 329.7,305.82 			"/>
		</g>
		<g>
			<polygon class="st47" points="328.67,314.67 326.64,315.85 319.52,311.74 321.55,310.56 			"/>
		</g>
		<g>
			<polygon class="st47" points="370.4,315.42 368.37,316.6 365.12,314.72 367.15,313.54 			"/>
		</g>
		<g>
			<polygon class="st47" points="355.39,315.91 353.35,317.09 331.76,304.62 333.8,303.44 			"/>
		</g>
		<g>
			<polygon class="st47" points="332.91,317.12 330.87,318.3 327.5,316.35 329.54,315.17 			"/>
		</g>
		<g>
			<polygon class="st47" points="390.75,317.4 388.72,318.58 370.47,308.04 372.5,306.86 			"/>
		</g>
		<g>
			<polygon class="st47" points="350.23,317.67 348.19,318.85 343.82,316.33 345.85,315.15 			"/>
		</g>
		<g>
			<polygon class="st47" points="374.69,317.89 372.66,319.07 369.41,317.19 371.44,316.01 			"/>
		</g>
		<g>
			<polygon class="st47" points="336.94,319.44 334.9,320.62 331.53,318.68 333.57,317.5 			"/>
		</g>
		<g>
			<polygon class="st47" points="340.96,321.77 338.93,322.95 335.57,321.01 337.6,319.83 			"/>
		</g>
		<g>
			<polygon class="st47" points="382.32,322.3 380.29,323.48 373.76,319.7 375.79,318.52 			"/>
		</g>
		<g>
			<polygon class="st47" points="354.06,324.91 352.03,326.09 348.78,324.22 350.81,323.04 			"/>
		</g>
		<g>
			<polygon class="st47" points="339.04,325.41 337.01,326.59 315.42,314.12 317.45,312.94 			"/>
		</g>
		<g>
			<polygon class="st47" points="370.32,329.27 368.29,330.45 355.22,322.91 357.25,321.73 			"/>
		</g>
		<g>
			<polygon class="st47" points="358.07,336.39 356.04,337.57 337.79,327.03 339.82,325.85 			"/>
		</g>
	</g>
	<path class="st7" d="M300.52,311.53l53.76,31.04l79.96-46.47l-53.76-31.04L300.52,311.53z"/>
	<g>
		<polygon class="st6" points="434.25,296.1 434.24,299.77 354.27,346.24 354.28,342.57 		"/>
	</g>
	<g>
		<polygon class="st8" points="354.28,342.57 354.27,346.24 300.51,315.2 300.52,311.53 		"/>
	</g>
	<g>
		<g>
			<polygon class="st48" points="398.42,290.09 396.39,291.27 372.36,277.39 374.39,276.21 			"/>
		</g>
		<g>
			<polygon class="st48" points="361.36,292.04 359.32,293.22 352.2,289.11 354.23,287.93 			"/>
		</g>
		<g>
			<polygon class="st48" points="407.37,295.26 405.34,296.44 402.09,294.56 404.12,293.38 			"/>
		</g>
		<g>
			<polygon class="st48" points="419.34,297.14 417.31,298.32 404.24,290.78 406.27,289.6 			"/>
		</g>
		<g>
			<polygon class="st48" points="415.01,299.66 412.97,300.84 406.44,297.07 408.47,295.89 			"/>
		</g>
		<g>
			<polygon class="st48" points="345.01,301.54 342.98,302.72 335.86,298.6 337.89,297.42 			"/>
		</g>
		<g>
			<polygon class="st48" points="398.66,309.16 396.63,310.34 390.1,306.57 392.13,305.39 			"/>
		</g>
		<g>
			<polygon class="st48" points="388.61,298.33 386.58,299.51 382.2,296.98 384.23,295.8 			"/>
		</g>
		<g>
			<polygon class="st48" points="394.85,311.38 392.82,312.56 372.21,300.66 374.24,299.48 			"/>
		</g>
		<g>
			<polygon class="st48" points="386.66,316.14 384.63,317.32 371.56,309.77 373.59,308.59 			"/>
		</g>
		<g>
			<polygon class="st48" points="349.4,318.58 347.37,319.76 323.33,305.88 325.36,304.7 			"/>
		</g>
		<g>
			<polygon class="st48" points="372.27,307.83 370.24,309.01 365.86,306.48 367.89,305.3 			"/>
		</g>
		<g>
			<polygon class="st48" points="378.51,320.87 376.48,322.05 355.87,310.16 357.9,308.98 			"/>
		</g>
		<g>
			<polygon class="st48" points="374.41,323.25 372.38,324.43 354.13,313.9 356.16,312.72 			"/>
		</g>
		<g>
			<polygon class="st48" points="358.35,323.75 356.32,324.93 353.06,323.05 355.1,321.87 			"/>
		</g>
		<g>
			<polygon class="st48" points="365.98,328.15 363.95,329.33 357.41,325.56 359.45,324.38 			"/>
		</g>
		<g>
			<polygon class="st48" points="355.93,317.32 353.89,318.5 349.52,315.98 351.55,314.8 			"/>
		</g>
		<g>
			<polygon class="st48" points="362.17,330.37 360.13,331.55 339.53,319.65 341.56,318.47 			"/>
		</g>
		<g>
			<polygon class="st48" points="393.58,282.27 391.55,283.45 376.7,274.87 378.73,273.69 			"/>
		</g>
		<g>
			<polygon class="st48" points="377.7,282.54 375.67,283.72 368.54,279.61 370.58,278.43 			"/>
		</g>
		<g>
			<polygon class="st48" points="381.93,284.99 379.9,286.17 376.53,284.22 378.56,283.04 			"/>
		</g>
		<g>
			<polygon class="st48" points="399.25,285.54 397.22,286.72 392.85,284.2 394.88,283.02 			"/>
		</g>
		<g>
			<polygon class="st48" points="385.96,287.31 383.93,288.49 380.56,286.55 382.59,285.37 			"/>
		</g>
		<g>
			<polygon class="st48" points="404.95,288.83 402.92,290.01 398.55,287.49 400.58,286.31 			"/>
		</g>
		<g>
			<polygon class="st48" points="389.99,289.64 387.96,290.82 384.59,288.88 386.62,287.7 			"/>
		</g>
		<g>
			<polygon class="st48" points="377.24,291.76 375.21,292.95 360.35,284.37 362.39,283.19 			"/>
		</g>
		<g>
			<polygon class="st48" points="403.09,292.78 401.06,293.96 397.8,292.09 399.84,290.9 			"/>
		</g>
		<g>
			<polygon class="st48" points="388.07,293.27 386.04,294.45 364.45,281.99 366.48,280.81 			"/>
		</g>
		<g>
			<polygon class="st48" points="365.59,294.48 363.56,295.66 360.19,293.72 362.22,292.54 			"/>
		</g>
		<g>
			<polygon class="st48" points="382.91,295.04 380.88,296.22 376.5,293.69 378.53,292.51 			"/>
		</g>
		<g>
			<polygon class="st48" points="369.62,296.81 367.59,297.99 364.22,296.04 366.25,294.86 			"/>
		</g>
		<g>
			<polygon class="st48" points="373.65,299.14 371.62,300.32 368.25,298.37 370.28,297.19 			"/>
		</g>
		<g>
			<polygon class="st48" points="382.08,299.59 380.05,300.77 356.02,286.89 358.05,285.71 			"/>
		</g>
		<g>
			<polygon class="st48" points="360.9,301.26 358.87,302.44 344.01,293.87 346.04,292.69 			"/>
		</g>
		<g>
			<polygon class="st48" points="411.19,301.88 409.16,303.06 388.56,291.16 390.59,289.98 			"/>
		</g>
		<g>
			<polygon class="st48" points="386.75,302.28 384.71,303.46 381.46,301.58 383.49,300.4 			"/>
		</g>
		<g>
			<polygon class="st48" points="371.73,302.77 369.7,303.95 348.11,291.49 350.14,290.31 			"/>
		</g>
		<g>
			<polygon class="st48" points="349.25,303.98 347.22,305.16 343.85,303.22 345.88,302.03 			"/>
		</g>
		<g>
			<polygon class="st48" points="407.1,304.26 405.07,305.44 386.81,294.9 388.85,293.72 			"/>
		</g>
		<g>
			<polygon class="st48" points="366.57,304.54 364.54,305.72 360.16,303.19 362.19,302.01 			"/>
		</g>
		<g>
			<polygon class="st48" points="391.03,304.75 389,305.93 385.75,304.06 387.78,302.88 			"/>
		</g>
		<g>
			<polygon class="st48" points="353.28,306.31 351.25,307.49 347.88,305.54 349.91,304.36 			"/>
		</g>
		<g>
			<polygon class="st48" points="403,306.64 400.97,307.82 387.9,300.27 389.93,299.09 			"/>
		</g>
		<g>
			<polygon class="st48" points="357.31,308.63 355.28,309.81 351.91,307.87 353.94,306.69 			"/>
		</g>
		<g>
			<polygon class="st48" points="365.74,309.08 363.71,310.26 339.67,296.39 341.71,295.21 			"/>
		</g>
		<g>
			<polygon class="st48" points="344.55,310.76 342.52,311.94 327.67,303.36 329.7,302.18 			"/>
		</g>
		<g>
			<polygon class="st48" points="328.67,311.03 326.64,312.21 319.52,308.1 321.55,306.92 			"/>
		</g>
		<g>
			<polygon class="st48" points="370.4,311.78 368.37,312.96 365.12,311.08 367.15,309.9 			"/>
		</g>
		<g>
			<polygon class="st48" points="355.39,312.27 353.35,313.45 331.76,300.98 333.8,299.8 			"/>
		</g>
		<g>
			<polygon class="st48" points="332.91,313.48 330.87,314.66 327.5,312.71 329.54,311.53 			"/>
		</g>
		<g>
			<polygon class="st48" points="390.75,313.76 388.72,314.94 370.47,304.4 372.5,303.22 			"/>
		</g>
		<g>
			<polygon class="st48" points="350.23,314.03 348.19,315.21 343.82,312.69 345.85,311.51 			"/>
		</g>
		<g>
			<polygon class="st48" points="374.69,314.25 372.66,315.43 369.41,313.55 371.44,312.37 			"/>
		</g>
		<g>
			<polygon class="st48" points="336.94,315.8 334.9,316.98 331.53,315.04 333.57,313.86 			"/>
		</g>
		<g>
			<polygon class="st48" points="340.96,318.13 338.93,319.31 335.57,317.37 337.6,316.19 			"/>
		</g>
		<g>
			<polygon class="st48" points="382.32,318.66 380.29,319.84 373.76,316.06 375.79,314.88 			"/>
		</g>
		<g>
			<polygon class="st48" points="354.06,321.27 352.03,322.45 348.78,320.58 350.81,319.4 			"/>
		</g>
		<g>
			<polygon class="st48" points="339.04,321.77 337.01,322.95 315.42,310.48 317.45,309.3 			"/>
		</g>
		<g>
			<polygon class="st48" points="370.32,325.63 368.29,326.81 355.22,319.27 357.25,318.09 			"/>
		</g>
		<g>
			<polygon class="st48" points="358.07,332.75 356.04,333.93 337.79,323.39 339.82,322.21 			"/>
		</g>
	</g>
	<path class="st44" d="M300.52,308.1l53.76,31.04l79.96-46.47l-53.76-31.04L300.52,308.1z"/>
	<g>
		<polygon class="st45" points="434.25,292.67 434.24,296.34 354.27,342.81 354.28,339.14 		"/>
	</g>
	<g>
		<polygon class="st46" points="354.28,339.14 354.27,342.81 300.51,311.78 300.52,308.1 		"/>
	</g>
	<g>
		<g>
			<polygon class="st47" points="398.42,286.66 396.39,287.84 372.36,273.97 374.39,272.78 			"/>
		</g>
		<g>
			<polygon class="st47" points="361.36,288.61 359.32,289.79 352.2,285.68 354.23,284.5 			"/>
		</g>
		<g>
			<polygon class="st47" points="407.37,291.83 405.34,293.01 402.09,291.13 404.12,289.95 			"/>
		</g>
		<g>
			<polygon class="st47" points="419.34,293.71 417.31,294.89 404.24,287.35 406.27,286.17 			"/>
		</g>
		<g>
			<polygon class="st47" points="415.01,296.23 412.97,297.42 406.44,293.64 408.47,292.46 			"/>
		</g>
		<g>
			<polygon class="st47" points="345.01,298.11 342.98,299.29 335.86,295.18 337.89,294 			"/>
		</g>
		<g>
			<polygon class="st47" points="398.66,305.73 396.63,306.91 390.1,303.14 392.13,301.96 			"/>
		</g>
		<g>
			<polygon class="st47" points="388.61,294.9 386.58,296.08 382.2,293.56 384.23,292.38 			"/>
		</g>
		<g>
			<polygon class="st47" points="394.85,307.95 392.82,309.13 372.21,297.23 374.24,296.05 			"/>
		</g>
		<g>
			<polygon class="st47" points="386.66,312.71 384.63,313.89 371.56,306.34 373.59,305.16 			"/>
		</g>
		<g>
			<polygon class="st47" points="349.4,315.15 347.37,316.33 323.33,302.46 325.36,301.28 			"/>
		</g>
		<g>
			<polygon class="st47" points="372.27,304.4 370.24,305.58 365.86,303.05 367.89,301.87 			"/>
		</g>
		<g>
			<polygon class="st47" points="378.51,317.45 376.48,318.63 355.87,306.73 357.9,305.55 			"/>
		</g>
		<g>
			<polygon class="st47" points="374.41,319.82 372.38,321.01 354.13,310.47 356.16,309.29 			"/>
		</g>
		<g>
			<polygon class="st47" points="358.35,320.32 356.32,321.5 353.06,319.62 355.1,318.44 			"/>
		</g>
		<g>
			<polygon class="st47" points="365.98,324.73 363.95,325.91 357.41,322.13 359.45,320.95 			"/>
		</g>
		<g>
			<polygon class="st47" points="355.93,313.89 353.89,315.08 349.52,312.55 351.55,311.37 			"/>
		</g>
		<g>
			<polygon class="st47" points="362.17,326.94 360.13,328.12 339.53,316.23 341.56,315.05 			"/>
		</g>
		<g>
			<polygon class="st47" points="393.58,278.84 391.55,280.02 376.7,271.44 378.73,270.26 			"/>
		</g>
		<g>
			<polygon class="st47" points="377.7,279.11 375.67,280.29 368.54,276.18 370.58,275 			"/>
		</g>
		<g>
			<polygon class="st47" points="381.93,281.56 379.9,282.74 376.53,280.79 378.56,279.61 			"/>
		</g>
		<g>
			<polygon class="st47" points="399.25,282.11 397.22,283.29 392.85,280.77 394.88,279.59 			"/>
		</g>
		<g>
			<polygon class="st47" points="385.96,283.88 383.93,285.07 380.56,283.12 382.59,281.94 			"/>
		</g>
		<g>
			<polygon class="st47" points="404.95,285.4 402.92,286.58 398.55,284.06 400.58,282.88 			"/>
		</g>
		<g>
			<polygon class="st47" points="389.99,286.21 387.96,287.39 384.59,285.45 386.62,284.27 			"/>
		</g>
		<g>
			<polygon class="st47" points="377.24,288.34 375.21,289.52 360.35,280.94 362.39,279.76 			"/>
		</g>
		<g>
			<polygon class="st47" points="403.09,289.35 401.06,290.53 397.8,288.66 399.84,287.48 			"/>
		</g>
		<g>
			<polygon class="st47" points="388.07,289.85 386.04,291.03 364.45,278.56 366.48,277.38 			"/>
		</g>
		<g>
			<polygon class="st47" points="365.59,291.05 363.56,292.24 360.19,290.29 362.22,289.11 			"/>
		</g>
		<g>
			<polygon class="st47" points="382.91,291.61 380.88,292.79 376.5,290.27 378.53,289.08 			"/>
		</g>
		<g>
			<polygon class="st47" points="369.62,293.38 367.59,294.56 364.22,292.62 366.25,291.44 			"/>
		</g>
		<g>
			<polygon class="st47" points="373.65,295.71 371.62,296.89 368.25,294.94 370.28,293.76 			"/>
		</g>
		<g>
			<polygon class="st47" points="382.08,296.16 380.05,297.34 356.02,283.46 358.05,282.28 			"/>
		</g>
		<g>
			<polygon class="st47" points="360.9,297.83 358.87,299.01 344.01,290.44 346.04,289.26 			"/>
		</g>
		<g>
			<polygon class="st47" points="411.19,298.45 409.16,299.63 388.56,287.74 390.59,286.56 			"/>
		</g>
		<g>
			<polygon class="st47" points="386.75,298.85 384.71,300.03 381.46,298.15 383.49,296.97 			"/>
		</g>
		<g>
			<polygon class="st47" points="371.73,299.34 369.7,300.52 348.11,288.06 350.14,286.88 			"/>
		</g>
		<g>
			<polygon class="st47" points="349.25,300.55 347.22,301.73 343.85,299.79 345.88,298.61 			"/>
		</g>
		<g>
			<polygon class="st47" points="407.1,300.83 405.07,302.01 386.81,291.47 388.85,290.29 			"/>
		</g>
		<g>
			<polygon class="st47" points="366.57,301.11 364.54,302.29 360.16,299.76 362.19,298.58 			"/>
		</g>
		<g>
			<polygon class="st47" points="391.03,301.32 389,302.51 385.75,300.63 387.78,299.45 			"/>
		</g>
		<g>
			<polygon class="st47" points="353.28,302.88 351.25,304.06 347.88,302.11 349.91,300.93 			"/>
		</g>
		<g>
			<polygon class="st47" points="403,303.21 400.97,304.39 387.9,296.85 389.93,295.66 			"/>
		</g>
		<g>
			<polygon class="st47" points="357.31,305.2 355.28,306.39 351.91,304.44 353.94,303.26 			"/>
		</g>
		<g>
			<polygon class="st47" points="365.74,305.66 363.71,306.84 339.67,292.96 341.71,291.78 			"/>
		</g>
		<g>
			<polygon class="st47" points="344.55,307.33 342.52,308.51 327.67,299.93 329.7,298.75 			"/>
		</g>
		<g>
			<polygon class="st47" points="328.67,307.6 326.64,308.78 319.52,304.67 321.55,303.49 			"/>
		</g>
		<g>
			<polygon class="st47" points="370.4,308.35 368.37,309.53 365.12,307.65 367.15,306.47 			"/>
		</g>
		<g>
			<polygon class="st47" points="355.39,308.84 353.35,310.02 331.76,297.56 333.8,296.37 			"/>
		</g>
		<g>
			<polygon class="st47" points="332.91,310.05 330.87,311.23 327.5,309.28 329.54,308.1 			"/>
		</g>
		<g>
			<polygon class="st47" points="390.75,310.33 388.72,311.51 370.47,300.97 372.5,299.79 			"/>
		</g>
		<g>
			<polygon class="st47" points="350.23,310.6 348.19,311.78 343.82,309.26 345.85,308.08 			"/>
		</g>
		<g>
			<polygon class="st47" points="374.69,310.82 372.66,312 369.41,310.13 371.44,308.94 			"/>
		</g>
		<g>
			<polygon class="st47" points="336.94,312.38 334.9,313.56 331.53,311.61 333.57,310.43 			"/>
		</g>
		<g>
			<polygon class="st47" points="340.96,314.7 338.93,315.88 335.57,313.94 337.6,312.76 			"/>
		</g>
		<g>
			<polygon class="st47" points="382.32,315.23 380.29,316.41 373.76,312.64 375.79,311.46 			"/>
		</g>
		<g>
			<polygon class="st47" points="354.06,317.84 352.03,319.02 348.78,317.15 350.81,315.97 			"/>
		</g>
		<g>
			<polygon class="st47" points="339.04,318.34 337.01,319.52 315.42,307.05 317.45,305.87 			"/>
		</g>
		<g>
			<polygon class="st47" points="370.32,322.2 368.29,323.38 355.22,315.84 357.25,314.66 			"/>
		</g>
		<g>
			<polygon class="st47" points="358.07,329.32 356.04,330.5 337.79,319.96 339.82,318.79 			"/>
		</g>
	</g>
	<path class="st7" d="M300.52,304.46l53.76,31.04l79.96-46.47l-53.76-31.04L300.52,304.46z"/>
	<g>
		<polygon class="st6" points="434.25,289.03 434.24,292.7 354.27,339.17 354.28,335.5 		"/>
	</g>
	<g>
		<polygon class="st8" points="354.28,335.5 354.27,339.17 300.51,308.14 300.52,304.46 		"/>
	</g>
	<g>
		<g>
			<polygon class="st48" points="398.42,283.02 396.39,284.2 372.36,270.32 374.39,269.14 			"/>
		</g>
		<g>
			<polygon class="st48" points="361.36,284.97 359.32,286.15 352.2,282.04 354.23,280.86 			"/>
		</g>
		<g>
			<polygon class="st48" points="407.37,288.19 405.34,289.37 402.09,287.49 404.12,286.31 			"/>
		</g>
		<g>
			<polygon class="st48" points="419.34,290.07 417.31,291.25 404.24,283.71 406.27,282.53 			"/>
		</g>
		<g>
			<polygon class="st48" points="415.01,292.59 412.97,293.77 406.44,290 408.47,288.82 			"/>
		</g>
		<g>
			<polygon class="st48" points="345.01,294.47 342.98,295.65 335.86,291.54 337.89,290.35 			"/>
		</g>
		<g>
			<polygon class="st48" points="398.66,302.09 396.63,303.27 390.1,299.5 392.13,298.32 			"/>
		</g>
		<g>
			<polygon class="st48" points="388.61,291.26 386.58,292.44 382.2,289.92 384.23,288.73 			"/>
		</g>
		<g>
			<polygon class="st48" points="394.85,304.31 392.82,305.49 372.21,293.59 374.24,292.41 			"/>
		</g>
		<g>
			<polygon class="st48" points="386.66,309.07 384.63,310.25 371.56,302.7 373.59,301.52 			"/>
		</g>
		<g>
			<polygon class="st48" points="349.4,311.51 347.37,312.69 323.33,298.82 325.36,297.63 			"/>
		</g>
		<g>
			<polygon class="st48" points="372.27,300.76 370.24,301.94 365.86,299.41 367.89,298.23 			"/>
		</g>
		<g>
			<polygon class="st48" points="378.51,313.8 376.48,314.99 355.87,303.09 357.9,301.91 			"/>
		</g>
		<g>
			<polygon class="st48" points="374.41,316.18 372.38,317.37 354.13,306.83 356.16,305.65 			"/>
		</g>
		<g>
			<polygon class="st48" points="358.35,316.68 356.32,317.86 353.06,315.98 355.1,314.8 			"/>
		</g>
		<g>
			<polygon class="st48" points="365.98,321.08 363.95,322.27 357.41,318.49 359.45,317.31 			"/>
		</g>
		<g>
			<polygon class="st48" points="355.93,310.25 353.89,311.44 349.52,308.91 351.55,307.73 			"/>
		</g>
		<g>
			<polygon class="st48" points="362.17,323.3 360.13,324.48 339.53,312.59 341.56,311.41 			"/>
		</g>
		<g>
			<polygon class="st48" points="393.58,275.2 391.55,276.38 376.7,267.8 378.73,266.62 			"/>
		</g>
		<g>
			<polygon class="st48" points="377.7,275.47 375.67,276.65 368.54,272.54 370.58,271.36 			"/>
		</g>
		<g>
			<polygon class="st48" points="381.93,277.92 379.9,279.1 376.53,277.15 378.56,275.97 			"/>
		</g>
		<g>
			<polygon class="st48" points="399.25,278.47 397.22,279.65 392.85,277.13 394.88,275.95 			"/>
		</g>
		<g>
			<polygon class="st48" points="385.96,280.24 383.93,281.42 380.56,279.48 382.59,278.3 			"/>
		</g>
		<g>
			<polygon class="st48" points="404.95,281.76 402.92,282.94 398.55,280.42 400.58,279.24 			"/>
		</g>
		<g>
			<polygon class="st48" points="389.99,282.57 387.96,283.75 384.59,281.81 386.62,280.63 			"/>
		</g>
		<g>
			<polygon class="st48" points="377.24,284.7 375.21,285.88 360.35,277.3 362.39,276.12 			"/>
		</g>
		<g>
			<polygon class="st48" points="403.09,285.71 401.06,286.89 397.8,285.02 399.84,283.84 			"/>
		</g>
		<g>
			<polygon class="st48" points="388.07,286.21 386.04,287.39 364.45,274.92 366.48,273.74 			"/>
		</g>
		<g>
			<polygon class="st48" points="365.59,287.41 363.56,288.6 360.19,286.65 362.22,285.47 			"/>
		</g>
		<g>
			<polygon class="st48" points="382.91,287.97 380.88,289.15 376.5,286.62 378.53,285.44 			"/>
		</g>
		<g>
			<polygon class="st48" points="369.62,289.74 367.59,290.92 364.22,288.98 366.25,287.8 			"/>
		</g>
		<g>
			<polygon class="st48" points="373.65,292.07 371.62,293.25 368.25,291.3 370.28,290.12 			"/>
		</g>
		<g>
			<polygon class="st48" points="382.08,292.52 380.05,293.7 356.02,279.82 358.05,278.64 			"/>
		</g>
		<g>
			<polygon class="st48" points="360.9,294.19 358.87,295.37 344.01,286.8 346.04,285.62 			"/>
		</g>
		<g>
			<polygon class="st48" points="411.19,294.81 409.16,295.99 388.56,284.1 390.59,282.91 			"/>
		</g>
		<g>
			<polygon class="st48" points="386.75,295.21 384.71,296.39 381.46,294.51 383.49,293.33 			"/>
		</g>
		<g>
			<polygon class="st48" points="371.73,295.7 369.7,296.88 348.11,284.42 350.14,283.24 			"/>
		</g>
		<g>
			<polygon class="st48" points="349.25,296.91 347.22,298.09 343.85,296.15 345.88,294.97 			"/>
		</g>
		<g>
			<polygon class="st48" points="407.1,297.19 405.07,298.37 386.81,287.83 388.85,286.65 			"/>
		</g>
		<g>
			<polygon class="st48" points="366.57,297.47 364.54,298.65 360.16,296.12 362.19,294.94 			"/>
		</g>
		<g>
			<polygon class="st48" points="391.03,297.68 389,298.87 385.75,296.99 387.78,295.81 			"/>
		</g>
		<g>
			<polygon class="st48" points="353.28,299.24 351.25,300.42 347.88,298.47 349.91,297.29 			"/>
		</g>
		<g>
			<polygon class="st48" points="403,299.57 400.97,300.75 387.9,293.2 389.93,292.02 			"/>
		</g>
		<g>
			<polygon class="st48" points="357.31,301.56 355.28,302.74 351.91,300.8 353.94,299.62 			"/>
		</g>
		<g>
			<polygon class="st48" points="365.74,302.01 363.71,303.2 339.67,289.32 341.71,288.14 			"/>
		</g>
		<g>
			<polygon class="st48" points="344.55,303.69 342.52,304.87 327.67,296.29 329.7,295.11 			"/>
		</g>
		<g>
			<polygon class="st48" points="328.67,303.96 326.64,305.14 319.52,301.03 321.55,299.85 			"/>
		</g>
		<g>
			<polygon class="st48" points="370.4,304.71 368.37,305.89 365.12,304.01 367.15,302.83 			"/>
		</g>
		<g>
			<polygon class="st48" points="355.39,305.2 353.35,306.38 331.76,293.92 333.8,292.73 			"/>
		</g>
		<g>
			<polygon class="st48" points="332.91,306.41 330.87,307.59 327.5,305.64 329.54,304.46 			"/>
		</g>
		<g>
			<polygon class="st48" points="390.75,306.69 388.72,307.87 370.47,297.33 372.5,296.15 			"/>
		</g>
		<g>
			<polygon class="st48" points="350.23,306.96 348.19,308.14 343.82,305.62 345.85,304.44 			"/>
		</g>
		<g>
			<polygon class="st48" points="374.69,307.18 372.66,308.36 369.41,306.48 371.44,305.3 			"/>
		</g>
		<g>
			<polygon class="st48" points="336.94,308.73 334.9,309.92 331.53,307.97 333.57,306.79 			"/>
		</g>
		<g>
			<polygon class="st48" points="340.96,311.06 338.93,312.24 335.57,310.3 337.6,309.12 			"/>
		</g>
		<g>
			<polygon class="st48" points="382.32,311.59 380.29,312.77 373.76,309 375.79,307.82 			"/>
		</g>
		<g>
			<polygon class="st48" points="354.06,314.2 352.03,315.38 348.78,313.51 350.81,312.33 			"/>
		</g>
		<g>
			<polygon class="st48" points="339.04,314.7 337.01,315.88 315.42,303.41 317.45,302.23 			"/>
		</g>
		<g>
			<polygon class="st48" points="370.32,318.56 368.29,319.74 355.22,312.2 357.25,311.02 			"/>
		</g>
		<g>
			<polygon class="st48" points="358.07,325.68 356.04,326.86 337.79,316.32 339.82,315.15 			"/>
		</g>
	</g>
	<g>
		<g>
			<path class="st49" d="M120.52,311.01c0.01,0.01,0.01,0.01,0.02,0.02c0.16,0.13,0.33,0.25,0.5,0.37c0.02,0.01,0.04,0.03,0.06,0.04
				c0.17,0.12,0.35,0.24,0.53,0.36c0.02,0.01,0.05,0.03,0.07,0.04c0.2,0.13,0.4,0.25,0.6,0.37c0.19,0.11,0.39,0.22,0.6,0.33
				c0.05,0.03,0.11,0.06,0.16,0.08c0.18,0.09,0.36,0.19,0.55,0.27c0.02,0.01,0.05,0.02,0.07,0.04c0.21,0.1,0.42,0.19,0.63,0.28
				c0.06,0.02,0.11,0.05,0.17,0.07c0.18,0.08,0.37,0.15,0.55,0.22c0.04,0.02,0.08,0.03,0.12,0.05c0.22,0.08,0.44,0.16,0.67,0.24
				c0.05,0.02,0.11,0.04,0.16,0.06c0.15,0.05,0.3,0.1,0.46,0.15c0.15,0.05,0.29,0.09,0.44,0.13c0.12,0.04,0.25,0.07,0.37,0.11
				c0.15,0.04,0.3,0.08,0.45,0.12c0.13,0.03,0.25,0.06,0.38,0.1c0.15,0.04,0.3,0.07,0.46,0.11c0.13,0.03,0.25,0.06,0.38,0.08
				c0.16,0.03,0.31,0.06,0.47,0.09c0.14,0.03,0.28,0.05,0.42,0.08c0.06,0.01,0.13,0.02,0.19,0.03c0.22,0.04,0.43,0.07,0.65,0.1
				c0.04,0.01,0.07,0.01,0.11,0.02c0.25,0.03,0.5,0.07,0.75,0.09c0.06,0.01,0.13,0.01,0.19,0.02c0.15,0.02,0.31,0.03,0.46,0.05
				c0.19,0.02,0.39,0.03,0.58,0.05c0.12,0.01,0.24,0.02,0.36,0.03c0.2,0.01,0.4,0.02,0.61,0.03c0.11,0,0.23,0.01,0.34,0.01
				c0.18,0.01,0.35,0.01,0.53,0.01c0.12,0,0.25,0,0.37,0.01c0.19,0,0.37,0,0.56-0.01c0.11,0,0.22,0,0.33,0
				c0.17,0,0.34-0.01,0.51-0.02c0.12-0.01,0.24-0.01,0.36-0.02c0.18-0.01,0.37-0.02,0.55-0.04c0.11-0.01,0.21-0.01,0.32-0.02
				c0.22-0.02,0.44-0.04,0.66-0.06c0.07-0.01,0.13-0.01,0.2-0.02c0.29-0.03,0.57-0.07,0.86-0.11c0.05-0.01,0.09-0.02,0.14-0.02
				c0.24-0.04,0.49-0.07,0.73-0.12c0.1-0.02,0.2-0.04,0.31-0.06c0.19-0.03,0.37-0.07,0.55-0.11c0.1-0.02,0.19-0.04,0.29-0.06
				c0.2-0.04,0.4-0.09,0.6-0.14c0.11-0.03,0.22-0.06,0.33-0.08c0.18-0.05,0.36-0.09,0.55-0.14c0.16-0.04,0.31-0.09,0.46-0.13
				c0.06-0.02,0.12-0.03,0.17-0.05c0.23-0.07,0.46-0.14,0.69-0.22c0.04-0.01,0.09-0.03,0.13-0.05c0.19-0.07,0.37-0.13,0.56-0.2
				c0.06-0.02,0.13-0.05,0.19-0.07c0.15-0.06,0.29-0.12,0.44-0.18c0.1-0.04,0.2-0.08,0.3-0.12c0.14-0.06,0.28-0.12,0.42-0.19
				c0.09-0.04,0.18-0.08,0.27-0.12c0.15-0.07,0.3-0.15,0.45-0.22c0.07-0.04,0.15-0.07,0.22-0.11c0.22-0.12,0.44-0.23,0.65-0.36
				c0.66-0.38,1.26-0.78,1.79-1.2h3.54l0.04,12.88c0.01,2.69-1.76,5.37-5.31,7.42c-0.21,0.12-0.43,0.24-0.65,0.36
				c-0.07,0.04-0.15,0.07-0.22,0.11c-0.15,0.08-0.3,0.15-0.45,0.22c-0.09,0.04-0.18,0.08-0.27,0.12c-0.14,0.06-0.28,0.13-0.42,0.19
				c-0.1,0.04-0.2,0.08-0.3,0.12c-0.1,0.04-0.19,0.08-0.29,0.12c-0.05,0.02-0.1,0.04-0.15,0.06c-0.06,0.02-0.13,0.05-0.19,0.07
				c-0.18,0.07-0.37,0.14-0.56,0.2c-0.04,0.02-0.09,0.03-0.13,0.05c-0.23,0.08-0.46,0.15-0.69,0.22c-0.06,0.02-0.12,0.03-0.17,0.05
				c-0.1,0.03-0.2,0.06-0.3,0.09c-0.05,0.02-0.11,0.03-0.17,0.04c-0.18,0.05-0.36,0.1-0.55,0.14c-0.11,0.03-0.22,0.06-0.33,0.08
				c-0.2,0.05-0.4,0.09-0.61,0.14c-0.08,0.02-0.15,0.04-0.23,0.05c-0.02,0-0.04,0.01-0.06,0.01c-0.18,0.04-0.37,0.07-0.56,0.11
				c-0.1,0.02-0.2,0.04-0.3,0.06c-0.24,0.04-0.49,0.08-0.74,0.12c-0.04,0.01-0.08,0.01-0.13,0.02c0,0,0,0-0.01,0
				c-0.29,0.04-0.57,0.08-0.86,0.11c-0.07,0.01-0.13,0.01-0.2,0.02c-0.22,0.02-0.44,0.05-0.66,0.06c-0.01,0-0.01,0-0.02,0
				c-0.1,0.01-0.2,0.01-0.3,0.02c-0.18,0.01-0.37,0.03-0.55,0.04c-0.12,0.01-0.24,0.01-0.36,0.01c-0.17,0.01-0.34,0.02-0.52,0.02
				c-0.01,0-0.03,0-0.04,0c-0.1,0-0.19,0-0.29,0c-0.19,0-0.38,0.01-0.56,0.01c-0.12,0-0.24,0-0.37-0.01c-0.18,0-0.35,0-0.53-0.01
				c-0.03,0-0.06,0-0.1,0c-0.08,0-0.16-0.01-0.24-0.01c-0.2-0.01-0.4-0.02-0.6-0.03c-0.12-0.01-0.24-0.02-0.36-0.03
				c-0.19-0.01-0.39-0.03-0.58-0.05c-0.07-0.01-0.14-0.01-0.2-0.02c-0.09-0.01-0.17-0.02-0.26-0.03c-0.06-0.01-0.13-0.01-0.19-0.02
				c-0.25-0.03-0.5-0.06-0.75-0.09c-0.04-0.01-0.07-0.01-0.11-0.02c-0.22-0.03-0.43-0.07-0.65-0.1c-0.06-0.01-0.13-0.02-0.19-0.03
				c-0.05-0.01-0.1-0.02-0.15-0.03c-0.09-0.02-0.18-0.04-0.27-0.05c-0.16-0.03-0.31-0.06-0.47-0.09c-0.13-0.03-0.25-0.06-0.38-0.08
				c-0.15-0.03-0.31-0.07-0.46-0.11c-0.13-0.03-0.25-0.06-0.38-0.1c-0.15-0.04-0.3-0.08-0.45-0.12c-0.12-0.03-0.25-0.07-0.37-0.11
				c-0.15-0.04-0.29-0.09-0.44-0.13c-0.06-0.02-0.13-0.04-0.19-0.06c-0.09-0.03-0.18-0.06-0.27-0.09c-0.05-0.02-0.11-0.04-0.16-0.06
				c-0.22-0.08-0.45-0.16-0.67-0.24c-0.04-0.02-0.08-0.03-0.12-0.05c-0.19-0.07-0.37-0.15-0.55-0.22c-0.06-0.02-0.11-0.05-0.17-0.07
				c-0.21-0.09-0.42-0.19-0.63-0.28c-0.02-0.01-0.05-0.02-0.07-0.04c-0.19-0.09-0.37-0.18-0.55-0.27c-0.05-0.03-0.11-0.06-0.16-0.08
				c-0.2-0.11-0.4-0.22-0.6-0.33c-0.07-0.04-0.15-0.09-0.22-0.13c-0.13-0.08-0.26-0.16-0.39-0.24c-0.02-0.01-0.05-0.03-0.07-0.04
				c-0.18-0.12-0.36-0.24-0.53-0.36c-0.02-0.01-0.04-0.03-0.06-0.04c-0.17-0.12-0.34-0.25-0.5-0.37c-0.02-0.01-0.03-0.02-0.05-0.04
				c-0.16-0.13-0.32-0.26-0.47-0.39c-0.01-0.01-0.02-0.02-0.03-0.03c-0.06-0.06-0.13-0.11-0.19-0.17c-0.07-0.06-0.14-0.13-0.2-0.19
				c-0.02-0.02-0.05-0.05-0.07-0.07c-0.13-0.13-0.26-0.26-0.38-0.39c-0.03-0.03-0.06-0.06-0.08-0.09c-0.1-0.11-0.2-0.23-0.29-0.34
				c-0.02-0.02-0.04-0.05-0.06-0.07c-0.01-0.01-0.02-0.02-0.03-0.03c-0.1-0.12-0.19-0.24-0.27-0.37c-0.02-0.03-0.04-0.05-0.05-0.08
				c-0.09-0.14-0.18-0.27-0.27-0.41c-0.01-0.02-0.03-0.04-0.04-0.07c-0.03-0.05-0.06-0.1-0.09-0.16c-0.05-0.09-0.1-0.18-0.15-0.27
				c-0.01-0.01-0.01-0.02-0.01-0.03c-0.08-0.15-0.15-0.3-0.21-0.46c0,0,0,0,0,0c-0.04-0.09-0.07-0.17-0.1-0.26
				c-0.03-0.07-0.05-0.14-0.07-0.21c0-0.01-0.01-0.02-0.01-0.03c-0.05-0.15-0.09-0.3-0.13-0.46c0-0.01-0.01-0.03-0.01-0.04
				c-0.02-0.09-0.05-0.19-0.06-0.28c-0.01-0.05-0.02-0.11-0.03-0.16c0-0.02-0.01-0.03-0.01-0.05c-0.02-0.15-0.04-0.29-0.06-0.44
				c0-0.02,0-0.04-0.01-0.06c-0.01-0.1-0.02-0.21-0.02-0.31c0-0.05,0-0.11,0-0.16l-0.04-12.98H120.52z"/>
			<g>
				<path class="st49" d="M149.55,311.01c-0.54,0.42-1.13,0.82-1.79,1.2c-7.05,4.07-18.45,4.07-25.45,0
					c-0.66-0.38-1.25-0.78-1.78-1.2H149.55z"/>
			</g>
		</g>
	</g>
	<g>
		<g>
			<polygon class="st50" points="100.24,306.58 100.25,308.87 134.99,329.06 134.98,326.77 			"/>
		</g>
	</g>
	<g>
		<g>
			<polygon class="st50" points="134.98,326.77 134.99,329.06 169.95,308.87 169.95,306.58 			"/>
		</g>
	</g>
	<g>
		<g>
			<polygon class="st51" points="100.24,306.58 134.98,326.77 169.95,306.58 135.21,286.39 			"/>
		</g>
	</g>
	<path class="st52" d="M117.66,334.61v-16.23c0-1.03,0.55-2.01,1.43-2.55l14.11-8.56c-0.55-0.5-0.45-1.18,0.31-1.62
		c0.88-0.51,2.31-0.51,3.18,0c0.88,0.51,0.87,1.33-0.01,1.84c-0.73,0.42-1.83,0.49-2.69,0.21l-14.5,8.79
		c-0.65,0.4-1.06,1.12-1.06,1.88v16.25c0.98,0.5,1.76,2.67,1.97,5.47c0.06,0.82-0.59,1.52-1.41,1.52h-1.95
		c-0.82,0-1.47-0.7-1.41-1.52C115.84,337.25,116.65,335.04,117.66,334.61z"/>
	<g>
		<polygon class="st53" points="156.45,334.49 160.76,336.96 161.01,335.66 163.25,335.5 158.93,333.03 		"/>
	</g>
	<path class="st0" d="M136.95,335.12c0.02-0.01,0.05-0.03,0.08-0.04c0.02-0.01,0.03-0.02,0.05-0.02c0.02-0.01,0.03-0.02,0.05-0.02
		c0.02-0.01,0.03-0.01,0.05-0.02c0.02-0.01,0.04-0.01,0.05-0.02c0,0,0,0,0,0c0.02-0.01,0.04-0.01,0.06-0.02
		c0.01,0,0.03-0.01,0.04-0.01c0.01,0,0.02-0.01,0.03-0.01c0.01,0,0.01,0,0.02,0c0.02,0,0.03-0.01,0.05-0.01
		c0.02,0,0.03-0.01,0.05-0.01c0.02,0,0.04-0.01,0.06-0.01c0.02,0,0.03-0.01,0.05-0.01c0,0,0,0,0,0c0.04,0,0.07-0.01,0.11-0.01
		c0.04,0,0.07,0,0.11,0c0.46,0,0.97,0.14,1.52,0.45c1.87,1.06,3.4,3.67,3.41,5.81c0,0.04,0,0.08,0,0.11c0,0.03,0,0.06,0,0.08
		c0,0.04,0,0.07-0.01,0.11c0,0.05-0.01,0.09-0.01,0.13c0,0.03-0.01,0.05-0.01,0.08c0,0.05-0.01,0.09-0.02,0.14
		c0,0.02-0.01,0.05-0.01,0.07c-0.01,0.05-0.02,0.09-0.03,0.13c-0.01,0.04-0.02,0.09-0.03,0.13c0,0.02-0.01,0.04-0.02,0.05
		c0,0,0,0.01,0,0.01c-0.02,0.06-0.04,0.11-0.06,0.17c-0.01,0.01-0.01,0.03-0.02,0.04c-0.01,0.02-0.02,0.04-0.02,0.06
		c-0.02,0.04-0.03,0.08-0.05,0.11v0c-0.02,0.04-0.04,0.07-0.06,0.11c-0.02,0.03-0.04,0.07-0.06,0.1c-0.02,0.03-0.04,0.06-0.06,0.09
		c0,0,0,0,0,0.01c-0.01,0.02-0.03,0.03-0.04,0.05c-0.02,0.03-0.04,0.05-0.06,0.08c-0.01,0.01-0.02,0.02-0.03,0.03
		c-0.02,0.02-0.04,0.04-0.06,0.06c0,0-0.01,0.01-0.01,0.01c-0.02,0.02-0.04,0.04-0.06,0.05c0,0-0.01,0.01-0.01,0.01c0,0,0,0-0.01,0
		c-0.03,0.02-0.06,0.04-0.08,0.06c0,0,0,0,0,0c-0.03,0.02-0.06,0.04-0.09,0.06l16.63-9.86l2.73-1.62l9.86-5.84
		c0.6-0.36,0.97-1.11,0.97-2.18c-0.01-2.14-1.54-4.75-3.41-5.81c-0.94-0.54-1.79-0.58-2.41-0.22l-9.86,5.84l-2.8,1.66l-16.54,9.81
		L136.95,335.12z"/>
	<path class="st54" d="M151.74,326.36c0.35,0.08,0.72,0.23,1.1,0.45c2.16,1.23,3.92,4.22,3.93,6.7c0,0.38-0.04,0.72-0.11,1.02
		l2.73-1.62c0.17-0.39,0.27-0.87,0.27-1.44c-0.01-2.32-1.66-5.14-3.69-6.29c-0.5-0.29-0.98-0.44-1.42-0.48L151.74,326.36z"/>
	<g>
		<path class="st55" d="M139.33,335.35c-1.87-1.06-3.39-0.19-3.38,1.96c0.01,2.15,1.54,4.75,3.41,5.81
			c1.87,1.06,3.39,0.19,3.38-1.96C142.74,339.02,141.21,336.41,139.33,335.35z"/>
	</g>
	<path class="st28" d="M250.93,311.5c0.75,0.17,1.46,0.46,2.2,0.69c1.77,0.54,3.59,0.9,5.43,1.1c1.06,0.11,2.21,0.14,3.12-0.42
		c1.06-0.65,1.23-1.74,1.66-2.83c0.56-1.41,1.04-2.87,1.28-4.37c0.1-0.64,0.16-1.32-0.13-1.9c-0.07-0.15-0.17-0.29-0.32-0.37
		c-0.28-0.15-0.64-0.01-0.85,0.22c-0.21,0.24-0.3,0.55-0.39,0.86c-0.38,1.32-0.83,2.63-1.43,3.87c-0.54,1.12-1.16,2.19-2.49,2.42
		c-0.61,0.11-1.24,0.04-1.86-0.05c-1.69-0.26-3.34-0.7-4.98-1.16c-0.82-0.23-1.64-0.47-2.47-0.69c-0.64-0.17-1.01-0.4-1.43-0.87
		c-0.31-0.35-0.92-0.71-1.32-0.25c-0.62,0.72-0.29,2.25,0.28,2.88c0.3,0.33,0.71,0.57,1.15,0.67c0.77,0.17,1.58,0.03,2.36,0.18
		C250.82,311.47,250.87,311.48,250.93,311.5z"/>
	<path class="st56" d="M262.44,301.72c-0.17-1.08-0.81-2.03-1.37-2.98c-3.14-5.33-6.16-14.39,0.92-17.66
		c3.62-1.67,9.15-1.64,11.96,0.99c1.91,1.79,2.92,4.54,3.39,7.05c0.28,1.52,0.38,3.1,0.17,4.63c-0.17,1.23-1,2.59-0.78,3.82
		c0.15,0.86,1.08,1.63,1.88,1.27c0.59-0.27,1.15-1.05,1.67-0.67c-4,6.13-12.47,8.91-19.32,6.32c1.1-0.25,1.66-1.57,1.5-2.69
		C262.44,301.78,262.44,301.75,262.44,301.72z"/>
	<path class="st57" d="M258.69,304.25c-0.36,2.35-0.56,4.72-0.62,7.1c1.33,0.13,2.69-0.01,3.96-0.42c0.16-0.05,0.32-0.11,0.42-0.25
		c0.08-0.11,0.1-0.24,0.11-0.37c0.27-1.9,0.42-3.61,1.4-5.29c0.38-0.65,0.73-1.32,0.92-2.04c0.18-0.73,0.18-1.52-0.14-2.2
		c-0.07-0.15-0.16-0.29-0.29-0.39c-0.11-0.08-0.25-0.13-0.38-0.16c-1.28-0.33-2.89-0.06-4.01,0.64
		C259.1,301.46,258.84,303.21,258.69,304.25z"/>
	<path class="st32" d="M261.82,365.35c0.25-0.71,0.5-1.41,0.71-2.13c0.65-2.23,0.88-4.56,0.68-6.87c-0.16-1.86-0.61-3.71-0.63-5.58
		c-0.08-5.99,3.81-11,5.4-16.65c1.05-3.72,3.22-12.16-4.39-11.54c-4.61,0.38-4.19,3.96-4.4,6.99c-0.28,4.11-0.56,8.22-0.84,12.33
		c-0.35,5.18-0.52,10.42-1.2,15.55c-0.68,5.11,0.28,10.46-0.06,15.65c-0.17,2.62-0.66,5.23-1.85,7.63c-0.5,1-2,2.3-2.21,3.32
		c-0.29,1.42,0.93,1.74,2.17,1.12c1.85-0.93,2.94-1.81,3.93-3.38c0.92-1.46,3.15-2.89,3.07-4.72c-0.04-0.84-0.58-1.6-0.99-2.36
		C259.59,371.66,260.74,368.39,261.82,365.35z"/>
	<path class="st58" d="M257.41,380.07c0.92-0.81,1.66-1.77,2.32-2.8c0.41-0.63,1.24-3,2.08-1.86c1.37,1.88,1.2,4.46,1.05,6.65
		c-0.02,0.33-0.05,0.66-0.21,0.95c-0.16,0.28-0.51,0.49-0.82,0.39c-0.07-1.06-0.24-2.12-0.52-3.15c-0.31,0.97-0.62,1.94-0.93,2.91
		c-0.08,0.24-0.16,0.49-0.29,0.71c-0.38,0.62-1.12,0.91-1.81,1.14c-1.95,0.63-4.05,1.18-6.11,0.88c-1.4-0.2-1.69-1.52-0.39-2.33
		c0.42-0.26,0.89-0.43,1.31-0.7c1.17-0.74,0.95-1.79,2.42-1.88C256.34,380.92,256.75,380.65,257.41,380.07z"/>
	<path class="st32" d="M271.93,370.77c0.2-0.72,0.4-1.45,0.56-2.17c0.49-2.27,0.55-4.61,0.18-6.9c-0.3-1.85-0.87-3.66-1.03-5.52
		c-0.51-5.97,3-11.24,4.18-16.99c0.78-3.79,2.33-12.37-5.21-11.19c-4.57,0.71-3.89,4.26-3.88,7.28c0.02,4.12,0.04,8.24,0.06,12.36
		c0.02,5.19,0.24,10.43-0.07,15.6c-0.31,5.14,1.03,10.41,1.07,15.62c0.02,2.62-0.28,5.27-1.29,7.74c-0.43,1.04-1.82,2.44-1.96,3.47
		c-0.19,1.44,1.06,1.66,2.24,0.96c1.78-1.06,2.8-2.01,3.68-3.65c0.81-1.52,2.93-3.11,2.72-4.92c-0.1-0.84-0.7-1.55-1.16-2.29
		C270.16,377.22,271.07,373.87,271.93,370.77z"/>
	<path class="st58" d="M268.59,385.77c0.86-0.87,1.53-1.89,2.12-2.96c0.36-0.66,1.02-3.08,1.94-2c1.51,1.78,1.52,4.36,1.53,6.56
		c0,0.33,0,0.67-0.14,0.96c-0.14,0.29-0.47,0.52-0.79,0.45c-0.14-1.06-0.4-2.1-0.75-3.1c-0.24,0.99-0.48,1.98-0.71,2.97
		c-0.06,0.25-0.12,0.5-0.24,0.73c-0.33,0.65-1.05,0.99-1.72,1.26c-1.9,0.77-3.95,1.47-6.03,1.32c-1.41-0.1-1.8-1.39-0.55-2.3
		c0.4-0.29,0.86-0.5,1.25-0.79c1.11-0.83,0.81-1.86,2.28-2.05C267.59,386.7,267.98,386.39,268.59,385.77z"/>
	<path class="st57" d="M279.72,338.16c0.8,5.6,1.44,11.22,3.66,16.47c0.24,0.57,0.49,1.25,0.17,1.77c-0.17,0.28-0.48,0.45-0.77,0.61
		c-2.55,1.36-5.84,3.41-8.75,3.74c-2.37,0.27-5.05,0.07-7.47,0.11c-2.35,0.04-4.74,0.05-6.98-0.66c-2.04-0.65-3.84-1.86-5.61-3.05
		c-2.19-1.48-4.38-2.96-6.57-4.44c2.37-5.69,4.73-11.37,7.1-17.06c1.04-2.5,2.37-4.76,3.43-7.1c1.06-2.36,1.67-4.81,3.4-6.82
		c0.55-0.64,1.19-1.21,1.67-1.9c1.6-2.27-0.32-6.04-1.94-7.97c-1.02-1.21-2.35-2.36-2.49-3.87c-0.17-1.77,1.34-3.18,2.37-4.55
		c0.39-0.51,0.6-1.13,0.85-1.71c0.18-0.41,0.35-1.25,0.79-1.44c0.3-0.13,0.65-0.09,0.97-0.04c0.19,0.03,0.38,0.06,0.57,0.08
		c1.91,0.28,3.82,0.56,5.72,0.84c0.81,0.12,1.53,0.21,2.34,0.15c0.54-0.04,1,0.18,1.34,0.6c1.2,1.51,0.31,4.27-0.23,5.88
		c-1.24,3.71-2.49,7.95-0.74,11.71c0.75,1.61,2,2.2,3.03,3.49c1.27,1.58,1.83,4.12,2.36,6.04
		C278.79,332.02,279.28,335.08,279.72,338.16z"/>
	<path class="st32" d="M264.87,301.29c-0.35,0.75-0.03,1.71,0.78,2.15c0.17,0.1,0.36,0.17,0.56,0.22c0.1,0.03,0.2,0.06,0.3,0.08
		c0.76,0.15,1.59,0.09,2.26-0.24c0.67-0.33,1.17-0.95,1.14-1.61c0-0.21-0.06-0.43-0.11-0.63c-0.13-0.53-0.26-1.06-0.37-1.6
		c-0.27-1.18-0.53-2.36-0.96-3.52c-0.07-0.17-0.15-0.36-0.33-0.46c-0.16-0.09-0.35-0.11-0.53-0.11c-0.78-0.02-2.01,0.09-2.63,0.54
		c-0.73,0.53-0.1,1.13,0.19,1.8c0.33,0.76,0.85,1.73,0.34,2.51c-0.13,0.21-0.34,0.38-0.48,0.58
		C264.97,301.1,264.92,301.19,264.87,301.29z"/>
	<path class="st28" d="M265.04,301.01c-0.07,0.09-0.12,0.18-0.17,0.28c1.28,0.24,2.68-0.07,3.83-0.99c0.26-0.2,0.5-0.43,0.74-0.64
		c-0.27-1.18-0.53-2.36-0.96-3.52c-0.07-0.17-0.15-0.36-0.33-0.46c-0.16-0.09-0.35-0.11-0.53-0.11c-0.78-0.02-2.01,0.09-2.63,0.54
		c-0.73,0.53-0.1,1.13,0.19,1.8c0.33,0.76,0.85,1.73,0.34,2.51C265.39,300.64,265.19,300.81,265.04,301.01z"/>
	<path class="st32" d="M271.29,295.55c-0.85,0.93-1.86,2.31-3.15,3.34c-2.26,1.79-5.42,1.23-6.83-0.95
		c-1.22-1.89-0.97-4.17-1.66-6.21c-0.34-1-0.69-2-0.86-3.05c-0.07-0.41-0.12-0.84-0.08-1.26c0.01-0.17,0.24-0.78,0.18-0.9
		c0,0,0.88,1.77,3.47,2.02c2.59,0.25,7.28,1.35,7.76,3.11c0,0,0.13-3.48,2.41-2.42c1.37,0.64,0.11,3.87-0.77,5.05
		C271.57,294.53,271.42,294.99,271.29,295.55z"/>
	<g>
		<path class="st34" d="M249.47,307.87c0.35-1.71-2-5.25-2-5.25l-0.84,0.11l2.46,5.78l10.33,2.13l0.46-1.12
			C255.48,307.38,249.47,307.87,249.47,307.87z"/>
		<polygon class="st35" points="259.87,309.52 262.57,320.37 262.26,321.03 259.2,310.6 		"/>
		<polygon class="st36" points="262.26,320.92 259.84,310.62 249.09,308.4 246.26,301.87 245.99,301.9 246.75,303.67 248.74,311.04
			252.16,319.01 261.97,320.87 262.05,321.21 		"/>
		<g>
			<polygon class="st37" points="248.88,308.69 259.63,310.9 262.05,321.21 251.89,319.05 			"/>
			<polygon class="st38" points="248.88,308.69 245.99,301.9 248.47,311.07 251.89,319.05 			"/>
		</g>
	</g>
	<path class="st32" d="M273.6,317.3c-0.11,0.44-0.23,0.88-0.34,1.31c-0.83,3.08-4.65,1.86-6.86,1.21c-1.25-0.37-2.5-0.73-3.69-1.24
		c-1.48-0.64-3.39-0.89-4.98-0.55c-0.12,0.03-0.27,0.05-0.36-0.03c-0.08-0.07-0.08-0.21-0.03-0.3c0.05-0.1,0.15-0.16,0.24-0.22
		c0.27-0.16,0.97-0.61,1.29-0.62c-0.58,0.02-1.16,0-1.74-0.06c-0.2-0.02-0.44-0.09-0.46-0.29c-0.03-0.22,0.25-0.34,0.46-0.38
		c0.55-0.12,1.11-0.23,1.66-0.35c-0.59-0.13-1.18-0.26-1.77-0.39c-0.15-0.03-0.32-0.09-0.35-0.24c-0.04-0.21,0.24-0.32,0.45-0.34
		c0.88-0.1,1.75-0.19,2.63-0.29c0.33-0.04,0.68,0,0.92-0.21c0.19-0.17,0.16-0.52,0.48-0.58c0.18-0.03,0.32,0.15,0.41,0.31
		c0.67,1.17,2.04,2.12,3.17,2.81c1.39,0.84,3,1.38,4.62,1.29c0.31-0.02,0.63-0.06,0.89-0.22c0.93-0.59,0.68-1.84,0.64-2.74
		c-0.05-1.14-0.07-2.28,0.12-3.4c0.03-0.2,0.08-0.42,0.22-0.56c0.19-0.18,0.48-0.2,0.74-0.19c0.56,0.02,1.15,0.1,1.56,0.48
		c0.82,0.78,0.71,2,0.59,3.03C274.03,315.45,273.83,316.38,273.6,317.3z"/>
	<path class="st57" d="M268.64,309.71c-0.12,0.59-0.22,1.18-0.3,1.77c-0.01,0.06-0.13,1.24-0.14,1.23c1.23,0.57,2.6,0.74,3.94,0.9
		c0.91,0.11,1.81,0.22,2.72,0.33c0.41-2.11,0.7-4.25,0.87-6.39c0.14-1.69,0.24-3.73-0.97-5.1c-0.46-0.52-1.6-1.12-2.33-1.07
		c-0.54,0.03-0.94,0.41-1.23,0.84c-0.94,1.38-1.43,3.17-1.89,4.76C269.04,307.88,268.82,308.79,268.64,309.71z"/>
</g>
<g id="designed_by_freepik">
</g>
</svg>
